<svg width="454" height="115" viewBox="0 0 454 115" fill="none" xmlns="http://www.w3.org/2000/svg">
<path d="M55.8532 48.664H37.5672L34.1232 58.012C33.0572 60.8 32.6472 61.948 32.6472 63.506C32.6472 66.212 34.6152 67.196 37.9772 67.36V69H22.2332V67.36C27.5632 66.704 28.9572 64.818 35.3532 48.5L41.7492 32.1C43.1432 28.492 44.5372 25.294 44.5372 24.392C44.5372 23.572 44.6192 23.408 44.9472 22.916L48.6372 17.34C49.2112 16.52 49.4572 16.356 50.0312 16.356C51.5072 16.356 51.3432 18.734 53.7212 24.884L66.0212 56.454C69.7932 65.966 70.7772 66.868 75.8612 67.36V69H55.4432V67.36C59.8712 66.868 61.0192 66.048 61.0192 64.408C61.0192 63.014 60.5272 60.964 59.7072 58.832L55.8532 48.664ZM38.4692 46.368H55.0332L47.9812 28.246C47.4892 26.934 47.0792 25.54 46.8332 24.638H46.6692C45.6852 27.918 43.3072 33.74 42.6512 35.462L38.4692 46.368ZM80.5909 69V67.688C84.3629 67.688 85.3469 66.54 85.3469 60.308V24.802C85.3469 20.538 85.0189 20.128 82.1489 18.734C81.5749 18.406 81.0009 18.242 81.0009 17.504C81.0009 17.094 81.3289 16.684 82.0669 16.438C83.4609 15.946 89.3649 13.568 90.1849 13.568C90.7589 13.568 91.0869 13.978 91.0869 15.126V60.308C91.0869 66.54 92.0709 67.688 96.1709 67.688V69H80.5909ZM101.812 69V67.688C105.584 67.688 106.568 66.54 106.568 60.308V24.802C106.568 20.538 106.24 20.128 103.37 18.734C102.796 18.406 102.222 18.242 102.222 17.504C102.222 17.094 102.55 16.684 103.288 16.438C104.682 15.946 110.586 13.568 111.406 13.568C111.98 13.568 112.308 13.978 112.308 15.126V60.308C112.308 66.54 113.292 67.688 117.392 67.688V69H101.812ZM141.892 63.506V53.666L138.612 54.486C132.462 56.044 129.264 57.93 129.264 61.374C129.264 64.408 130.986 66.868 134.676 66.868C137.3 66.868 139.678 65.228 141.892 63.506ZM141.892 52.354V45.712C141.892 40.054 139.76 38.66 136.316 38.66C128.772 38.66 131.888 47.106 127.05 47.106C125.656 47.106 124.672 46.368 124.672 44.892C124.672 41.858 132.052 36.692 138.366 36.692C143.86 36.692 147.632 39.48 147.632 46.532V64.49C147.632 66.376 148.78 66.868 149.682 66.868C150.912 66.868 151.732 66.376 152.552 65.638L153.372 66.54C152.224 68.344 149.436 69.656 146.976 69.656C144.434 69.656 142.056 67.852 141.892 64.818C138.038 68.344 134.266 69.656 131.15 69.656C126.476 69.656 123.196 66.868 123.196 63.26C123.196 57.602 127.87 55.962 137.464 53.502L141.892 52.354ZM220.896 69V67.36C226.8 67.032 228.194 66.048 228.112 62.604C227.784 50.304 227.784 37.676 227.292 25.622H227.128C220.568 39.808 213.188 54.568 207.694 68.18H206.546C205.07 64.982 202.856 58.668 200.232 53.42C197.526 48.008 192.114 35.954 187.276 24.638H187.112C187.03 38.004 186.456 50.55 186.456 58.012C186.456 64.654 187.932 67.36 193.918 67.36V69H176.862V67.36C181.536 66.54 183.258 65.392 183.75 58.75C184.57 48.254 184.98 32.264 184.98 28C184.98 19.636 183.832 18.98 177.6 18.652V17.012H191.13L205.726 50.14C206.874 52.764 208.104 54.978 209.17 58.094L228.932 17.012H241.56V18.652C235.082 19.062 233.688 20.62 233.688 26.934C233.688 30.132 234.262 48.172 234.508 63.014C234.59 66.294 236.476 67.032 241.56 67.36V69H220.896ZM273.258 47.844H252.266C251.938 49.074 251.692 50.468 251.692 52.682C251.692 59.98 256.12 66.376 263.746 66.376C267.026 66.376 269.65 65.228 273.258 62.768L274.242 64.08C270.552 67.032 266.944 69.656 261.614 69.656C251.856 69.656 245.952 61.292 245.952 54.076C245.952 43.744 253.168 36.692 261.778 36.692C268.666 36.692 274.078 42.35 274.078 47.434C274.078 47.762 273.832 47.844 273.258 47.844ZM252.676 45.876H268.338C268.01 41.448 265.14 38.332 260.958 38.332C256.202 38.332 253.578 42.186 252.676 45.876ZM279.345 69V67.688C283.117 67.688 284.101 66.54 284.101 60.308V24.802C284.101 20.538 283.773 20.128 280.903 18.734C280.329 18.406 279.755 18.242 279.755 17.504C279.755 17.094 280.083 16.684 280.821 16.438C282.215 15.946 288.119 13.568 288.939 13.568C289.513 13.568 289.841 13.978 289.841 15.126V60.308C289.841 66.54 290.825 67.688 294.925 67.688V69H279.345ZM300.566 69V67.688C304.338 67.688 305.322 66.54 305.322 60.308V24.802C305.322 20.538 304.994 20.128 302.124 18.734C301.55 18.406 300.976 18.242 300.976 17.504C300.976 17.094 301.304 16.684 302.042 16.438C303.436 15.946 309.34 13.568 310.16 13.568C310.734 13.568 311.062 13.978 311.062 15.126V60.308C311.062 66.54 312.046 67.688 316.146 67.688V69H300.566ZM340.646 63.506V53.666L337.366 54.486C331.216 56.044 328.018 57.93 328.018 61.374C328.018 64.408 329.74 66.868 333.43 66.868C336.054 66.868 338.432 65.228 340.646 63.506ZM340.646 52.354V45.712C340.646 40.054 338.514 38.66 335.07 38.66C327.526 38.66 330.642 47.106 325.804 47.106C324.41 47.106 323.426 46.368 323.426 44.892C323.426 41.858 330.806 36.692 337.12 36.692C342.614 36.692 346.386 39.48 346.386 46.532V64.49C346.386 66.376 347.534 66.868 348.436 66.868C349.666 66.868 350.486 66.376 351.306 65.638L352.126 66.54C350.978 68.344 348.19 69.656 345.73 69.656C343.188 69.656 340.81 67.852 340.646 64.818C336.792 68.344 333.02 69.656 329.904 69.656C325.23 69.656 321.95 66.868 321.95 63.26C321.95 57.602 326.624 55.962 336.218 53.502L340.646 52.354ZM356.454 69V67.688C360.882 67.688 361.866 66.54 361.866 60.308V44.974C361.866 43.088 361.456 42.76 359.898 41.776C359.242 41.366 358.914 41.202 358.914 40.71C358.914 40.054 359.406 39.808 360.308 39.316C363.096 37.594 365.31 36.2 366.376 36.2C366.786 36.2 367.278 36.446 367.278 37.184V40.546C369.492 39.07 372.854 36.692 378.184 36.692C383.022 36.692 389.418 38.496 389.418 48.09V60.308C389.418 66.54 390.402 67.688 394.256 67.688V69H378.84V67.688C382.694 67.688 383.678 66.54 383.678 60.308V49.484C383.678 42.842 380.808 39.48 375.15 39.48C371.788 39.48 368.918 42.022 367.606 43.58V60.308C367.606 66.54 368.59 67.688 372.608 67.688V69H356.454ZM415.868 36.692C424.314 36.692 432.514 42.76 432.514 53.174C432.514 63.588 424.314 69.656 415.868 69.656C407.422 69.656 399.222 63.588 399.222 53.174C399.222 42.76 407.422 36.692 415.868 36.692ZM415.868 38.332C407.914 38.332 405.782 45.384 405.782 53.174C405.782 60.964 407.914 68.016 415.868 68.016C423.822 68.016 425.954 60.964 425.954 53.174C425.954 45.384 423.822 38.332 415.868 38.332Z" fill="white"/>
<path d="M20.7875 91.6055C20.7875 90.0938 21.3969 88.8516 22.6156 87.8789C23.8461 86.9062 25.4281 86.4199 27.3617 86.4199C29.225 86.4199 30.766 86.9238 31.9848 87.9316C33.2152 88.9277 33.8891 90.2285 34.0063 91.834H31.7738C31.6332 90.7441 31.1645 89.8887 30.3676 89.2676C29.5824 88.6465 28.557 88.3359 27.2914 88.3359C26.0492 88.3359 25.0356 88.6348 24.2504 89.2324C23.477 89.8184 23.0902 90.5684 23.0902 91.4824C23.0902 92.2324 23.3715 92.8477 23.934 93.3281C24.4965 93.7969 25.3871 94.1836 26.6059 94.4883L29.3129 95.1387C31.141 95.5957 32.4359 96.1934 33.1977 96.9316C33.9594 97.6699 34.3402 98.6953 34.3402 100.008C34.3402 101.555 33.684 102.826 32.3715 103.822C31.059 104.807 29.3715 105.299 27.309 105.299C25.352 105.299 23.7231 104.801 22.4223 103.805C21.1332 102.809 20.4125 101.502 20.2602 99.8848H22.5805C22.7445 100.975 23.2543 101.83 24.1098 102.451C24.977 103.072 26.0902 103.383 27.4496 103.383C28.8207 103.383 29.9223 103.09 30.7543 102.504C31.5863 101.918 32.0023 101.145 32.0023 100.184C32.0023 99.3867 31.7445 98.7598 31.2289 98.3027C30.725 97.834 29.8637 97.4531 28.6449 97.1602L25.6742 96.4219C24.0219 96.0117 22.7914 95.4141 21.9828 94.6289C21.1859 93.832 20.7875 92.8242 20.7875 91.6055ZM45.6711 82.1484H47.9914V86.7188H51.5949V88.6523H47.9914V100.395C47.9914 101.332 48.1848 102.018 48.5715 102.451C48.9582 102.873 49.5734 103.084 50.4172 103.084C51.0734 103.084 51.4953 103.061 51.6828 103.014V105C51.3547 105.07 50.7805 105.105 49.9602 105.105C48.425 105.105 47.3234 104.754 46.6555 104.051C45.9992 103.336 45.6711 102.152 45.6711 100.5V88.6523H42.9465V86.7188H45.6711V82.1484ZM63.4004 111.609C62.9785 111.609 62.5918 111.574 62.2402 111.504V109.518C62.5215 109.588 62.8906 109.623 63.3477 109.623C64.1797 109.623 64.8477 109.389 65.3516 108.92C65.8672 108.451 66.3301 107.643 66.7402 106.494L67.2324 105.123L60.377 86.7188H62.8731L68.4277 102.68H68.4805L74.0527 86.7188H76.4961L69.3066 106.107C68.5098 108.252 67.7012 109.705 66.8809 110.467C66.0606 111.229 64.9004 111.609 63.4004 111.609ZM86.157 105V79.6348H88.4773V105H86.157ZM100.002 105V86.7188H102.322V105H100.002ZM101.162 83.0273C100.74 83.0273 100.377 82.8809 100.072 82.5879C99.7672 82.2832 99.6149 81.9141 99.6149 81.4805C99.6149 81.0586 99.7672 80.7012 100.072 80.4082C100.377 80.1035 100.74 79.9512 101.162 79.9512C101.595 79.9512 101.964 80.1035 102.269 80.4082C102.574 80.7012 102.726 81.0586 102.726 81.4805C102.726 81.9141 102.574 82.2832 102.269 82.5879C101.964 82.8809 101.595 83.0273 101.162 83.0273ZM113.319 91.6055C113.319 90.0938 113.928 88.8516 115.147 87.8789C116.377 86.9062 117.959 86.4199 119.893 86.4199C121.756 86.4199 123.297 86.9238 124.516 87.9316C125.746 88.9277 126.42 90.2285 126.538 91.834H124.305C124.164 90.7441 123.696 89.8887 122.899 89.2676C122.114 88.6465 121.088 88.3359 119.823 88.3359C118.58 88.3359 117.567 88.6348 116.782 89.2324C116.008 89.8184 115.621 90.5684 115.621 91.4824C115.621 92.2324 115.903 92.8477 116.465 93.3281C117.028 93.7969 117.918 94.1836 119.137 94.4883L121.844 95.1387C123.672 95.5957 124.967 96.1934 125.729 96.9316C126.491 97.6699 126.871 98.6953 126.871 100.008C126.871 101.555 126.215 102.826 124.903 103.822C123.59 104.807 121.903 105.299 119.84 105.299C117.883 105.299 116.254 104.801 114.954 103.805C113.664 102.809 112.944 101.502 112.791 99.8848H115.112C115.276 100.975 115.786 101.83 116.641 102.451C117.508 103.072 118.621 103.383 119.981 103.383C121.352 103.383 122.454 103.09 123.286 102.504C124.118 101.918 124.534 101.145 124.534 100.184C124.534 99.3867 124.276 98.7598 123.76 98.3027C123.256 97.834 122.395 97.4531 121.176 97.1602L118.205 96.4219C116.553 96.0117 115.323 95.4141 114.514 94.6289C113.717 93.832 113.319 92.8242 113.319 91.6055ZM138.202 82.1484H140.523V86.7188H144.126V88.6523H140.523V100.395C140.523 101.332 140.716 102.018 141.103 102.451C141.489 102.873 142.105 103.084 142.948 103.084C143.605 103.084 144.027 103.061 144.214 103.014V105C143.886 105.07 143.312 105.105 142.491 105.105C140.956 105.105 139.855 104.754 139.187 104.051C138.53 103.336 138.202 102.152 138.202 100.5V88.6523H135.478V86.7188H138.202V82.1484ZM169.372 105V86.7188H171.692V105H169.372ZM170.532 83.0273C170.11 83.0273 169.747 82.8809 169.442 82.5879C169.138 82.2832 168.985 81.9141 168.985 81.4805C168.985 81.0586 169.138 80.7012 169.442 80.4082C169.747 80.1035 170.11 79.9512 170.532 79.9512C170.966 79.9512 171.335 80.1035 171.639 80.4082C171.944 80.7012 172.096 81.0586 172.096 81.4805C172.096 81.9141 171.944 82.2832 171.639 82.5879C171.335 82.8809 170.966 83.0273 170.532 83.0273ZM183.058 105V86.7188H185.255V90.0938H185.308C185.718 88.9805 186.386 88.0898 187.312 87.4219C188.238 86.7539 189.345 86.4199 190.634 86.4199C191.947 86.4199 193.066 86.7715 193.992 87.4746C194.929 88.166 195.574 89.0977 195.925 90.2695H195.978C196.423 89.1211 197.156 88.1953 198.175 87.4922C199.207 86.7773 200.396 86.4199 201.744 86.4199C203.525 86.4199 204.955 86.9766 206.033 88.0898C207.111 89.1914 207.65 90.6621 207.65 92.502V105H205.33V93.0293C205.33 91.6113 204.955 90.5039 204.205 89.707C203.455 88.8984 202.418 88.4941 201.093 88.4941C199.746 88.4941 198.644 88.9629 197.789 89.9004C196.945 90.8262 196.523 92.0215 196.523 93.4863V105H194.185V92.8184C194.185 91.5176 193.798 90.4746 193.025 89.6895C192.263 88.8926 191.255 88.4941 190.002 88.4941C188.654 88.4941 187.546 88.9863 186.679 89.9707C185.812 90.9551 185.379 92.2207 185.379 93.7676V105H183.058ZM224.659 103.295C226.264 103.295 227.618 102.797 228.719 101.801C229.821 100.805 230.371 99.5801 230.371 98.127V96.1055L224.957 96.4746C223.516 96.5684 222.409 96.9199 221.635 97.5293C220.862 98.127 220.475 98.9297 220.475 99.9375C220.475 100.934 220.862 101.742 221.635 102.363C222.409 102.984 223.416 103.295 224.659 103.295ZM224.184 105.299C222.379 105.299 220.914 104.807 219.789 103.822C218.676 102.826 218.12 101.531 218.12 99.9375C218.12 98.3672 218.682 97.125 219.807 96.2109C220.944 95.2969 222.567 94.7695 224.676 94.6289L230.371 94.2773V92.6953C230.371 91.3711 229.973 90.3398 229.176 89.6016C228.379 88.8516 227.272 88.4766 225.854 88.4766C224.518 88.4766 223.428 88.7871 222.584 89.4082C221.752 90.0293 221.237 90.8965 221.038 92.0098H218.788C218.916 90.3457 219.62 88.998 220.897 87.9668C222.186 86.9355 223.856 86.4199 225.907 86.4199C227.993 86.4199 229.645 86.9648 230.864 88.0547C232.082 89.1445 232.692 90.6211 232.692 92.4844V105H230.477V101.52H230.424C229.92 102.656 229.094 103.57 227.946 104.262C226.797 104.953 225.543 105.299 224.184 105.299ZM251.019 103.119C252.777 103.119 254.195 102.451 255.273 101.115C256.363 99.7676 256.907 97.998 256.907 95.8066C256.907 93.6152 256.363 91.8457 255.273 90.498C254.195 89.1504 252.777 88.4766 251.019 88.4766C249.296 88.4766 247.907 89.1504 246.853 90.498C245.798 91.834 245.271 93.6094 245.271 95.8242C245.271 98.0273 245.798 99.7969 246.853 101.133C247.907 102.457 249.296 103.119 251.019 103.119ZM251.247 111.768C249.279 111.768 247.597 111.287 246.202 110.326C244.82 109.365 243.999 108.152 243.741 106.688H246.15C246.454 107.602 247.07 108.34 247.995 108.902C248.933 109.477 250.052 109.764 251.353 109.764C253.052 109.764 254.4 109.307 255.396 108.393C256.404 107.49 256.907 106.289 256.907 104.789V101.115H256.855C256.351 102.322 255.536 103.301 254.411 104.051C253.298 104.801 252.027 105.176 250.597 105.176C248.277 105.176 246.407 104.32 244.989 102.609C243.583 100.898 242.88 98.6309 242.88 95.8066C242.88 92.9707 243.589 90.6973 245.007 88.9863C246.425 87.2754 248.306 86.4199 250.65 86.4199C252.079 86.4199 253.351 86.8008 254.464 87.5625C255.589 88.3125 256.427 89.3203 256.978 90.5859H257.03V86.7188H259.245V104.701C259.245 106.834 258.519 108.545 257.066 109.834C255.624 111.123 253.685 111.768 251.247 111.768ZM277.695 88.459C276.066 88.459 274.725 89.0273 273.67 90.1641C272.627 91.2891 272.059 92.7598 271.965 94.5762H283.25C283.227 92.7598 282.705 91.2891 281.686 90.1641C280.666 89.0273 279.336 88.459 277.695 88.459ZM283.109 99.8145H285.412C285.131 101.42 284.299 102.738 282.916 103.77C281.545 104.789 279.863 105.299 277.871 105.299C275.305 105.299 273.277 104.461 271.789 102.785C270.301 101.098 269.557 98.8066 269.557 95.9121C269.557 93.0645 270.301 90.7734 271.789 89.0391C273.277 87.293 275.258 86.4199 277.73 86.4199C280.145 86.4199 282.066 87.2402 283.496 88.8809C284.926 90.5215 285.641 92.707 285.641 95.4375V96.4219H271.947V96.5625C271.947 98.625 272.486 100.26 273.564 101.467C274.643 102.662 276.096 103.26 277.924 103.26C279.271 103.26 280.408 102.943 281.334 102.311C282.26 101.678 282.852 100.846 283.109 99.8145ZM307.395 95.8418H295.864V93.6621H307.395V95.8418ZM318.515 105V86.7188H320.712V90.0938H320.765C321.175 88.9805 321.843 88.0898 322.769 87.4219C323.695 86.7539 324.802 86.4199 326.091 86.4199C327.404 86.4199 328.523 86.7715 329.449 87.4746C330.386 88.166 331.031 89.0977 331.382 90.2695H331.435C331.88 89.1211 332.613 88.1953 333.632 87.4922C334.664 86.7773 335.853 86.4199 337.201 86.4199C338.982 86.4199 340.412 86.9766 341.49 88.0898C342.568 89.1914 343.107 90.6621 343.107 92.502V105H340.787V93.0293C340.787 91.6113 340.412 90.5039 339.662 89.707C338.912 88.8984 337.875 88.4941 336.55 88.4941C335.203 88.4941 334.101 88.9629 333.246 89.9004C332.402 90.8262 331.98 92.0215 331.98 93.4863V105H329.642V92.8184C329.642 91.5176 329.255 90.4746 328.482 89.6895C327.72 88.8926 326.712 88.4941 325.459 88.4941C324.111 88.4941 323.004 88.9863 322.136 89.9707C321.269 90.9551 320.836 92.2207 320.836 93.7676V105H318.515ZM360.116 103.295C361.721 103.295 363.075 102.797 364.176 101.801C365.278 100.805 365.829 99.5801 365.829 98.127V96.1055L360.414 96.4746C358.973 96.5684 357.866 96.9199 357.092 97.5293C356.319 98.127 355.932 98.9297 355.932 99.9375C355.932 100.934 356.319 101.742 357.092 102.363C357.866 102.984 358.873 103.295 360.116 103.295ZM359.641 105.299C357.836 105.299 356.371 104.807 355.246 103.822C354.133 102.826 353.577 101.531 353.577 99.9375C353.577 98.3672 354.139 97.125 355.264 96.2109C356.401 95.2969 358.024 94.7695 360.133 94.6289L365.829 94.2773V92.6953C365.829 91.3711 365.43 90.3398 364.633 89.6016C363.836 88.8516 362.729 88.4766 361.311 88.4766C359.975 88.4766 358.885 88.7871 358.041 89.4082C357.209 90.0293 356.694 90.8965 356.495 92.0098H354.245C354.373 90.3457 355.077 88.998 356.354 87.9668C357.643 86.9355 359.313 86.4199 361.364 86.4199C363.45 86.4199 365.102 86.9648 366.321 88.0547C367.539 89.1445 368.149 90.6211 368.149 92.4844V105H365.934V101.52H365.881C365.377 102.656 364.551 103.57 363.403 104.262C362.254 104.953 361 105.299 359.641 105.299ZM381.747 95.3672L390.782 86.7188H393.665L385.456 94.6113L393.823 105H391.099L383.786 96.0352L381.747 97.916V105H379.409V79.6348H381.747V95.3672ZM409.566 88.459C407.938 88.459 406.596 89.0273 405.541 90.1641C404.498 91.2891 403.93 92.7598 403.836 94.5762H415.121C415.098 92.7598 414.576 91.2891 413.557 90.1641C412.537 89.0273 411.207 88.459 409.566 88.459ZM414.98 99.8145H417.283C417.002 101.42 416.17 102.738 414.787 103.77C413.416 104.789 411.734 105.299 409.742 105.299C407.176 105.299 405.148 104.461 403.66 102.785C402.172 101.098 401.428 98.8066 401.428 95.9121C401.428 93.0645 402.172 90.7734 403.66 89.0391C405.148 87.293 407.129 86.4199 409.602 86.4199C412.016 86.4199 413.938 87.2402 415.367 88.8809C416.797 90.5215 417.512 92.707 417.512 95.4375V96.4219H403.818V96.5625C403.818 98.625 404.357 100.26 405.436 101.467C406.514 102.662 407.967 103.26 409.795 103.26C411.143 103.26 412.279 102.943 413.205 102.311C414.131 101.678 414.723 100.846 414.98 99.8145ZM427.823 105V86.7188H430.02V89.9707H430.073C430.413 88.8574 430.987 87.9902 431.796 87.3691C432.604 86.7363 433.571 86.4199 434.696 86.4199C435.141 86.4199 435.622 86.4844 436.138 86.6133V88.8984C435.763 88.7227 435.182 88.6348 434.397 88.6348C433.108 88.6348 432.077 89.0918 431.304 90.0059C430.53 90.9199 430.143 92.1211 430.143 93.6094V105H427.823Z" fill="white"/>
</svg>
