<svg width="36" height="36" viewBox="0 0 36 36" fill="none" xmlns="http://www.w3.org/2000/svg">
<circle cx="18" cy="18" r="18" fill="white"/>
<path d="M18.2864 13.0201C15.4711 13.0201 13.2003 15.2909 13.2003 18.1062C13.2003 20.9215 15.4711 23.1923 18.2864 23.1923C21.1017 23.1923 23.3724 20.9215 23.3724 18.1062C23.3724 15.2909 21.1017 13.0201 18.2864 13.0201ZM18.2864 21.4128C16.4671 21.4128 14.9798 19.9299 14.9798 18.1062C14.9798 16.2825 16.4627 14.7996 18.2864 14.7996C20.1101 14.7996 21.593 16.2825 21.593 18.1062C21.593 19.9299 20.1057 21.4128 18.2864 21.4128V21.4128ZM24.7668 12.8121C24.7668 13.4716 24.2356 13.9984 23.5805 13.9984C22.9209 13.9984 22.3942 13.4672 22.3942 12.8121C22.3942 12.157 22.9254 11.6258 23.5805 11.6258C24.2356 11.6258 24.7668 12.157 24.7668 12.8121ZM28.1354 14.0161C28.0601 12.427 27.6971 11.0194 26.533 9.85961C25.3732 8.69987 23.9656 8.33689 22.3765 8.25722C20.7387 8.16426 15.8297 8.16426 14.1919 8.25722C12.6072 8.33247 11.1996 8.69544 10.0354 9.85519C8.87122 11.0149 8.51268 12.4226 8.433 14.0117C8.34004 15.6495 8.34004 20.5585 8.433 22.1963C8.50825 23.7854 8.87122 25.193 10.0354 26.3528C11.1996 27.5125 12.6028 27.8755 14.1919 27.9552C15.8297 28.0481 20.7387 28.0481 22.3765 27.9552C23.9656 27.8799 25.3732 27.517 26.533 26.3528C27.6927 25.193 28.0557 23.7854 28.1354 22.1963C28.2283 20.5585 28.2283 15.6539 28.1354 14.0161V14.0161ZM26.0195 23.9536C25.6742 24.8212 25.0058 25.4896 24.1338 25.8393C22.828 26.3572 19.7294 26.2377 18.2864 26.2377C16.8434 26.2377 13.7404 26.3528 12.439 25.8393C11.5714 25.494 10.903 24.8256 10.5533 23.9536C10.0354 22.6478 10.1549 19.5492 10.1549 18.1062C10.1549 16.6632 10.0398 13.5602 10.5533 12.2588C10.8986 11.3912 11.567 10.7228 12.439 10.3731C13.7448 9.85519 16.8434 9.9747 18.2864 9.9747C19.7294 9.9747 22.8324 9.85961 24.1338 10.3731C25.0014 10.7184 25.6698 11.3868 26.0195 12.2588C26.5374 13.5646 26.4179 16.6632 26.4179 18.1062C26.4179 19.5492 26.5374 22.6522 26.0195 23.9536Z" fill="#787878"/>
</svg>
