<svg width="48" height="116" viewBox="0 0 48 116" fill="none" xmlns="http://www.w3.org/2000/svg">
<path fill-rule="evenodd" clip-rule="evenodd" d="M22.4375 13.7051C27.6453 9.85713 33.1423 4.03746 42.3355 0C35.6016 0.0940289 24.8967 5.0631 22.4375 13.7051Z" fill="#E1B43C"/>
<path fill-rule="evenodd" clip-rule="evenodd" d="M28.4998 14.9258C27.5907 15.4169 26.6393 15.8255 25.6572 16.1467C24.1209 16.4739 22.6028 16.8814 21.1091 17.3676C20.0089 17.8232 19.0106 18.4935 18.1725 19.3394C17.4907 19.9615 16.9146 20.6905 16.467 21.4977C15.5071 23.1593 14.9548 25.0248 14.8555 26.9412C15.446 26.2147 16.1128 25.5536 16.8445 24.9695C17.783 24.1601 18.8371 23.4955 19.9721 22.9978C20.7301 22.6217 21.4881 22.247 22.1507 21.8709C24.6212 19.907 26.7643 17.5633 28.4998 14.9272V14.9258Z" fill="#E1B43C"/>
<path fill-rule="evenodd" clip-rule="evenodd" d="M14.7628 26.8476C15.1535 23.8897 16.224 21.0624 17.8903 18.5875C18.7012 17.4177 19.369 16.155 19.8794 14.8263C20.8263 12.5641 21.5253 10.2059 21.964 7.79297C20.6147 8.72139 19.318 9.72398 18.0799 10.7961C15.1418 13.5186 13.4363 16.5217 13.9108 20.6518C13.9108 22.1534 14.0048 25.5326 14.7628 26.8476Z" fill="#E1B43C"/>
<path fill-rule="evenodd" clip-rule="evenodd" d="M19.9761 27.3203C19.2002 27.9904 18.3417 28.5583 17.4214 29.0099C15.9548 29.6056 14.5292 30.2976 13.1539 31.0815C12.1491 31.7187 11.2799 32.548 10.5963 33.5219C10.0463 34.2719 9.6001 35.0928 9.26979 35.9623C8.63988 37.7696 8.47666 39.7067 8.7953 41.5939C9.23537 40.7715 9.74243 39.9867 10.3113 39.2475C11.1 38.3079 11.9897 37.458 12.9644 36.7131C13.6284 36.1504 14.2909 35.6802 14.8594 35.2115C17.4185 32.9592 18.5555 30.2367 19.9761 27.3261V27.3203Z" fill="#E1B43C"/>
<path fill-rule="evenodd" clip-rule="evenodd" d="M8.79394 41.6812C8.3209 39.2408 9.45793 34.7375 10.2159 32.951C10.7682 31.6531 11.1809 30.3002 11.447 28.915C11.9288 26.5053 12.1509 24.0508 12.1095 21.5938C10.9699 22.7547 9.89442 23.9769 8.88797 25.2551C6.51989 28.5403 5.47689 31.7315 6.70794 35.6706C7.10159 37.7653 7.8041 39.79 8.79249 41.6783L8.79394 41.6812Z" fill="#E1B43C"/>
<path fill-rule="evenodd" clip-rule="evenodd" d="M14.8592 39.707C14.2276 40.6575 13.4974 41.5385 12.6806 42.3355C11.3232 43.4212 10.0261 44.5802 8.79506 45.8073C7.91515 46.7754 7.2671 47.931 6.90001 49.1866C6.54725 50.15 6.35709 51.1654 6.33729 52.1912C6.2592 54.2938 6.68111 56.385 7.56834 58.2929C7.85766 57.166 8.13685 56.2272 8.42039 55.2898C8.94907 54.0306 9.6162 52.8341 10.4095 51.7225C10.978 50.9717 11.4525 50.2209 11.9255 49.4701C13.9146 46.467 14.2936 43.1818 14.8621 39.7085L14.8592 39.707Z" fill="#E1B43C"/>
<path fill-rule="evenodd" clip-rule="evenodd" d="M7.56275 58.4807C6.23622 56.0403 6.04672 50.8774 6.3317 48.7191C6.47382 47.1581 6.47382 45.5873 6.3317 44.0263C6.09778 41.3142 5.55716 38.6372 4.72019 36.0469C3.96217 37.5484 3.20415 39.05 2.44614 40.9277C1.02413 45.1518 0.930098 48.9057 3.48769 52.7551C4.34118 54.1626 6.14075 57.4479 7.56275 58.4807Z" fill="#E1B43C"/>
<path fill-rule="evenodd" clip-rule="evenodd" d="M12.3913 54.2578C11.9708 55.3466 11.4308 56.3853 10.7813 57.355C9.64424 59.0446 8.50721 60.1715 7.65372 61.6731C7.0049 62.8601 6.61724 64.172 6.51669 65.521C6.42152 66.5512 6.42152 67.588 6.51669 68.6182C6.89021 70.764 7.76721 72.7907 9.07572 74.5319C9.06948 73.4613 9.16637 72.3927 9.36505 71.3407C9.60401 69.9792 10.0178 68.6542 10.5961 67.3987C10.9751 66.4599 11.3541 65.7091 11.6377 64.8643C12.9642 61.297 12.6806 57.9206 12.3957 54.2578H12.3913Z" fill="#E1B43C"/>
<path fill-rule="evenodd" clip-rule="evenodd" d="M9.17287 74.5313C7.30888 71.6897 6.17041 68.4342 5.85726 65.0503C5.69182 63.4511 5.34232 61.8765 4.81571 60.3575C4.02094 57.6531 2.87357 55.0651 1.40318 52.6602C0.897238 54.4517 0.486312 56.2688 0.172126 58.1037C-0.396387 62.6099 0.361632 66.4578 3.67868 69.743C5.00522 70.964 7.56425 73.8731 9.17576 74.5298L9.17287 74.5313Z" fill="#E1B43C"/>
<path fill-rule="evenodd" clip-rule="evenodd" d="M12.6793 68.1484C12.6309 69.3939 12.4078 70.6263 12.0168 71.8098C11.3166 73.5902 10.7153 75.408 10.2158 77.2548C9.96203 78.6863 9.99448 80.1539 10.3112 81.5729C10.5302 82.6744 10.8804 83.7458 11.3542 84.7641C12.4178 86.8618 13.9794 88.6668 15.9023 90.021C15.525 88.9262 15.2708 87.7928 15.1443 86.6418C14.9547 85.1457 14.9547 83.6317 15.1443 82.1356C15.2384 81.1027 15.3338 80.0699 15.4336 79.225C15.5291 75.189 14.1071 71.8098 12.6851 68.1484H12.6793Z" fill="#E1B43C"/>
<path fill-rule="evenodd" clip-rule="evenodd" d="M15.996 90.1109C13.437 88.5196 10.4049 83.6345 9.45739 81.3807C8.73406 79.8089 7.87845 78.3014 6.8998 76.8745C5.17987 74.3688 3.17659 72.0699 0.929688 70.0234C1.02516 71.904 1.11919 73.6848 1.40417 76.0312C2.35169 80.912 4.34222 84.5661 8.79485 86.8257C10.5004 87.6705 14.0026 89.9228 15.996 90.1109Z" fill="#E1B43C"/>
<path fill-rule="evenodd" clip-rule="evenodd" d="M17.5117 81.9453C17.8621 83.295 18.0529 84.6812 18.0802 86.0754C17.938 88.2318 17.938 90.3953 18.0802 92.5518C18.2824 94.169 18.7973 95.7314 19.5963 97.152C20.2311 98.2694 20.9943 99.3088 21.8703 100.249C23.7414 102.134 26.0536 103.521 28.597 104.285C27.8719 103.229 27.2078 102.132 26.6079 101C25.8895 99.4798 25.3796 97.8697 25.0919 96.2131C24.9163 95.1325 24.663 94.066 24.3339 93.0219C23.0088 88.5158 20.2603 85.4172 17.5117 81.9453Z" fill="#E1B43C"/>
<path fill-rule="evenodd" clip-rule="evenodd" d="M28.598 104.286C25.2824 103.442 20.3524 99.3115 18.6498 97.2458C17.3682 95.7886 15.9395 94.4676 14.3866 93.3038C11.7307 91.1664 8.79793 89.3981 5.66797 88.0469C6.42599 90.0186 7.08998 91.8948 8.22556 94.2427C10.8786 99.1235 14.2897 102.315 19.8808 103.254C21.9654 103.63 26.5135 104.755 28.598 104.286Z" fill="#E1B43C"/>
<path fill-rule="evenodd" clip-rule="evenodd" d="M27.6484 94.9961C28.5507 96.205 29.2841 97.5312 29.8285 98.9381C30.776 101.378 31.155 103.35 32.198 105.415C33.0371 106.958 34.1629 108.328 35.515 109.451C36.5862 110.344 37.764 111.1 39.0216 111.703C41.7003 112.91 44.6199 113.488 47.5565 113.393C46.38 112.61 45.2709 111.731 44.2409 110.764C42.9414 109.495 41.7964 108.078 40.8299 106.54C40.1673 105.413 39.5033 104.474 38.8408 103.537C35.9042 99.5948 31.9231 97.4351 27.66 95.0019L27.6484 94.9961Z" fill="#E1B43C"/>
<path fill-rule="evenodd" clip-rule="evenodd" d="M47.7348 113.392C43.9447 113.674 37.1225 111.327 34.5707 109.825C32.6807 108.81 30.6772 108.023 28.6021 107.479C24.9722 106.315 21.2162 105.591 17.4141 105.32C19.0189 107.168 20.7272 108.923 22.5307 110.577C27.1728 114.519 31.9119 116.491 38.1655 115.458C40.4396 115.082 45.6502 114.519 47.7362 113.392H47.7348Z" fill="#E1B43C"/>
</svg>
