<svg width="112" height="86" viewBox="0 0 112 86" fill="none" xmlns="http://www.w3.org/2000/svg">
<path d="M27.0238 31.283H12.8912L10.2294 38.5077C9.40553 40.6625 9.08865 41.5497 9.08865 42.7539C9.08865 44.8452 10.6097 45.6057 13.208 45.7325V47H1.04003V45.7325C5.1594 45.2255 6.23678 43.7679 11.18 31.1562L16.1233 18.4812C17.2007 15.6927 18.278 13.2211 18.278 12.524C18.278 11.8902 18.3414 11.7635 18.5949 11.3832L21.4468 7.07375C21.8904 6.44 22.0805 6.31325 22.5242 6.31325C23.6649 6.31325 23.5382 8.15112 25.376 12.9042L34.8823 37.3036C37.7975 44.6551 38.558 45.3522 42.4873 45.7325V47H26.7069V45.7325C30.1292 45.3522 31.0164 44.7185 31.0164 43.451C31.0164 42.3736 30.6361 40.7892 30.0024 39.1415L27.0238 31.283ZM13.5883 29.5085H26.39L20.9398 15.5026C20.5595 14.4886 20.2427 13.4112 20.0525 12.7141H19.9258C19.1653 15.2491 17.3274 19.7487 16.8204 21.0796L13.5883 29.5085Z" fill="#E8BB1C"/>
<path d="M94.8934 47V45.7325C99.4564 45.479 100.534 44.7185 100.47 42.0567C100.217 32.5505 100.217 22.7907 99.8366 13.4746H99.7099C94.6399 24.4385 88.9361 35.846 84.69 46.3662H83.8027C82.662 43.8946 80.9509 39.0147 78.9229 34.9587C76.8315 30.776 72.6487 21.4599 68.9096 12.7141H68.7829C68.7195 23.0442 68.2759 32.7406 68.2759 38.5077C68.2759 43.6411 69.4166 45.7325 74.043 45.7325V47H60.861V45.7325C64.4734 45.0987 65.8042 44.2115 66.1845 39.0781C66.8182 30.9661 67.1351 18.608 67.1351 15.3125C67.1351 8.84825 66.2479 8.34125 61.4314 8.08775V6.82025H71.8882L83.169 32.4237C84.0562 34.4517 85.0069 36.1629 85.8307 38.5711L101.104 6.82025H110.864V8.08775C105.857 8.40462 104.78 9.60875 104.78 14.4886C104.78 16.9602 105.223 30.9027 105.414 42.3736C105.477 44.9086 106.935 45.479 110.864 45.7325V47H94.8934Z" fill="#E8BB1C"/>
<path d="M8.16484 69.582C8.16484 68.4062 8.6388 67.4401 9.58672 66.6836C10.5438 65.9271 11.7742 65.5488 13.2781 65.5488C14.7273 65.5488 15.9259 65.9408 16.8738 66.7246C17.8309 67.4993 18.3549 68.5111 18.4461 69.7598H16.7098C16.6004 68.9121 16.2358 68.2467 15.616 67.7637C15.0053 67.2806 14.2078 67.0391 13.2234 67.0391C12.2573 67.0391 11.4689 67.2715 10.8582 67.7363C10.2566 68.1921 9.95586 68.7754 9.95586 69.4863C9.95586 70.0697 10.1746 70.5482 10.6121 70.9219C11.0496 71.2865 11.7423 71.5872 12.6902 71.8242L14.7957 72.3301C16.2176 72.6855 17.2247 73.1504 17.8172 73.7246C18.4096 74.2988 18.7059 75.0964 18.7059 76.1172C18.7059 77.3203 18.1954 78.3092 17.1746 79.084C16.1538 79.8496 14.8413 80.2324 13.2371 80.2324C11.715 80.2324 10.448 79.8451 9.43633 79.0703C8.43372 78.2956 7.87318 77.2793 7.75469 76.0215H9.55938C9.68698 76.8691 10.0835 77.5345 10.7488 78.0176C11.4233 78.5007 12.2892 78.7422 13.3465 78.7422C14.4129 78.7422 15.2697 78.5143 15.9168 78.0586C16.5639 77.6029 16.8875 77.0013 16.8875 76.2539C16.8875 75.6341 16.687 75.1465 16.2859 74.791C15.894 74.4264 15.2241 74.1302 14.2762 73.9023L11.9656 73.3281C10.6805 73.0091 9.72344 72.5443 9.09453 71.9336C8.47474 71.3138 8.16484 70.5299 8.16484 69.582ZM27.5188 62.2266H29.3234V65.7812H32.1262V67.2852H29.3234V76.418C29.3234 77.1471 29.4738 77.6803 29.7746 78.0176C30.0754 78.3457 30.5539 78.5098 31.2102 78.5098C31.7206 78.5098 32.0487 78.4915 32.1945 78.4551V80C31.9393 80.0547 31.4927 80.082 30.8547 80.082C29.6607 80.082 28.8039 79.8086 28.2844 79.2617C27.774 78.7057 27.5188 77.7852 27.5188 76.5V67.2852H25.3996V65.7812H27.5188V62.2266ZM41.3082 85.1406C40.9801 85.1406 40.6793 85.1133 40.4059 85.0586V83.5137C40.6246 83.5684 40.9117 83.5957 41.2672 83.5957C41.9143 83.5957 42.4339 83.4134 42.8258 83.0488C43.2268 82.6842 43.5869 82.0553 43.9059 81.1621L44.2887 80.0957L38.9566 65.7812H40.898L45.2184 78.1953H45.2594L49.5934 65.7812H51.4938L45.902 80.8613C45.2822 82.5293 44.6533 83.6595 44.0152 84.252C43.3772 84.8444 42.4749 85.1406 41.3082 85.1406ZM59.0078 80V60.2715H60.8125V80H59.0078ZM69.7758 80V65.7812H71.5805V80H69.7758ZM70.6781 62.9102C70.35 62.9102 70.0675 62.7962 69.8305 62.5684C69.5935 62.3314 69.475 62.0443 69.475 61.707C69.475 61.3789 69.5935 61.1009 69.8305 60.873C70.0675 60.6361 70.35 60.5176 70.6781 60.5176C71.0154 60.5176 71.3025 60.6361 71.5395 60.873C71.7764 61.1009 71.8949 61.3789 71.8949 61.707C71.8949 62.0443 71.7764 62.3314 71.5395 62.5684C71.3025 62.7962 71.0154 62.9102 70.6781 62.9102ZM80.1336 69.582C80.1336 68.4062 80.6075 67.4401 81.5555 66.6836C82.5125 65.9271 83.743 65.5488 85.2469 65.5488C86.6961 65.5488 87.8947 65.9408 88.8426 66.7246C89.7996 67.4993 90.3237 68.5111 90.4148 69.7598H88.6785C88.5691 68.9121 88.2046 68.2467 87.5848 67.7637C86.9741 67.2806 86.1766 67.0391 85.1922 67.0391C84.226 67.0391 83.4376 67.2715 82.827 67.7363C82.2254 68.1921 81.9246 68.7754 81.9246 69.4863C81.9246 70.0697 82.1434 70.5482 82.5809 70.9219C83.0184 71.2865 83.7111 71.5872 84.659 71.8242L86.7645 72.3301C88.1863 72.6855 89.1935 73.1504 89.7859 73.7246C90.3784 74.2988 90.6746 75.0964 90.6746 76.1172C90.6746 77.3203 90.1642 78.3092 89.1434 79.084C88.1225 79.8496 86.81 80.2324 85.2059 80.2324C83.6837 80.2324 82.4168 79.8451 81.4051 79.0703C80.4025 78.2956 79.8419 77.2793 79.7234 76.0215H81.5281C81.6557 76.8691 82.0522 77.5345 82.7176 78.0176C83.3921 78.5007 84.2579 78.7422 85.3152 78.7422C86.3816 78.7422 87.2384 78.5143 87.8855 78.0586C88.5327 77.6029 88.8562 77.0013 88.8562 76.2539C88.8562 75.6341 88.6557 75.1465 88.2547 74.791C87.8628 74.4264 87.1928 74.1302 86.2449 73.9023L83.9344 73.3281C82.6492 73.0091 81.6922 72.5443 81.0633 71.9336C80.4435 71.3138 80.1336 70.5299 80.1336 69.582ZM99.4875 62.2266H101.292V65.7812H104.095V67.2852H101.292V76.418C101.292 77.1471 101.443 77.6803 101.743 78.0176C102.044 78.3457 102.523 78.5098 103.179 78.5098C103.689 78.5098 104.017 78.4915 104.163 78.4551V80C103.908 80.0547 103.461 80.082 102.823 80.082C101.629 80.082 100.773 79.8086 100.253 79.2617C99.7427 78.7057 99.4875 77.7852 99.4875 76.5V67.2852H97.3684V65.7812H99.4875V62.2266Z" fill="white"/>
<rect x="51" width="2" height="53" fill="#E8BB1C"/>
</svg>
