<svg width="48" height="116" viewBox="0 0 48 116" fill="none" xmlns="http://www.w3.org/2000/svg">
<path fill-rule="evenodd" clip-rule="evenodd" d="M25.4253 13.7051C20.2031 9.85713 14.6973 4.03746 5.48828 0C12.2294 0.0940289 22.9574 5.0631 25.4253 13.7051Z" fill="#E1B43C"/>
<path fill-rule="evenodd" clip-rule="evenodd" d="M19.4443 14.9219C20.3554 15.413 21.3087 15.8217 22.2927 16.1428C23.8318 16.47 25.3528 16.8775 26.8494 17.3637C27.9519 17.8189 28.9527 18.4892 29.7933 19.3355C30.4761 19.9574 31.0531 20.6864 31.5017 21.4938C32.4632 23.1549 33.0165 25.0206 33.1161 26.9373C32.5242 26.2106 31.8559 25.5495 31.1227 24.9656C30.1823 24.156 29.1262 23.4914 27.9894 22.9939C27.2299 22.6178 26.4704 22.2431 25.8064 21.867C23.2829 19.9558 21.1264 17.6032 19.4414 14.9233L19.4443 14.9219Z" fill="#E1B43C"/>
<path fill-rule="evenodd" clip-rule="evenodd" d="M33.2117 26.8437C32.82 23.8851 31.7475 21.0576 30.0784 18.5836C29.2659 17.4141 28.5966 16.1514 28.085 14.8224C27.1362 12.5605 26.4358 10.2022 25.9961 7.78906C27.3482 8.71737 28.6478 9.71995 29.8889 10.7922C32.8327 13.5147 34.5411 16.5178 34.0667 20.6479C34.0755 22.7431 33.7876 24.8291 33.2117 26.8437Z" fill="#E1B43C"/>
<path fill-rule="evenodd" clip-rule="evenodd" d="M27.9897 27.3125C28.7684 27.983 29.6299 28.5508 30.5531 29.0021C32.0209 29.596 33.448 30.2861 34.8249 31.0679C35.8317 31.7047 36.7028 32.534 37.3883 33.5083C37.9394 34.2581 38.3865 35.079 38.7177 35.9487C39.3485 37.7558 39.5118 39.6931 39.1922 41.5803C38.7512 40.7578 38.2432 39.973 37.6733 39.2339C36.8826 38.2941 35.991 37.4442 35.0144 36.6995C34.3504 36.1368 33.685 35.6666 33.115 35.1979C30.5516 32.9456 29.4117 30.2231 27.9883 27.3125H27.9897Z" fill="#E1B43C"/>
<path fill-rule="evenodd" clip-rule="evenodd" d="M39.0997 41.6734C39.5742 39.233 38.4357 34.7297 37.6762 32.9432C37.1227 31.6455 36.7091 30.2925 36.4423 28.9072C35.9595 26.4976 35.7369 24.0431 35.7783 21.5859C36.9199 22.7468 37.9973 23.969 39.0057 25.2473C41.3795 28.5325 42.424 31.7237 41.19 35.6628C40.8096 37.1644 40.1456 40.4496 39.1011 41.6705L39.0997 41.6734Z" fill="#E1B43C"/>
<path fill-rule="evenodd" clip-rule="evenodd" d="M33.1172 39.7031C33.7502 40.6538 34.4819 41.5348 35.3001 42.3316C36.6599 43.4172 37.9594 44.5762 39.1929 45.8034C40.0745 46.7709 40.7241 47.9266 41.0923 49.1827C41.4477 50.1452 41.6403 51.1601 41.6622 52.1858C41.7403 54.2888 41.3174 56.3802 40.4283 58.2876C40.139 57.1607 39.8583 56.2218 39.5734 55.2845C39.0434 54.025 38.3748 52.8285 37.5799 51.7171C37.01 50.9663 36.5355 50.2156 36.061 49.4648C34.0676 46.4616 33.6871 43.1764 33.1172 39.7031Z" fill="#E1B43C"/>
<path fill-rule="evenodd" clip-rule="evenodd" d="M40.4297 58.4793C41.7591 56.0389 41.9486 50.876 41.6636 48.7176C41.5212 47.1566 41.5212 45.5859 41.6636 44.0249C41.8981 41.313 42.4397 38.6365 43.278 36.0469C44.0375 37.5484 44.797 39.05 45.5564 40.9277C46.9799 45.1518 47.0754 48.9057 44.512 52.7551C43.6571 54.1626 41.8531 57.4479 40.4297 58.4807V58.4793Z" fill="#E1B43C"/>
<path fill-rule="evenodd" clip-rule="evenodd" d="M35.4912 54.2539C35.913 55.3429 36.4544 56.3817 37.1056 57.3511C38.2455 59.0407 39.384 60.1676 40.2389 61.6692C40.8892 62.8558 41.2779 64.1678 41.3789 65.5171C41.4742 66.5473 41.4742 67.5841 41.3789 68.6143C41.0046 70.7607 40.126 72.7875 38.8155 74.528C38.822 73.4574 38.7251 72.3887 38.5262 71.3368C38.2866 69.9751 37.8718 68.6501 37.2922 67.3948C36.9118 66.456 36.5328 65.7052 36.2478 64.8604C34.9184 61.2931 35.2988 57.9167 35.4883 54.2539H35.4912Z" fill="#E1B43C"/>
<path fill-rule="evenodd" clip-rule="evenodd" d="M38.7188 74.5274C40.5878 71.6874 41.7304 68.4316 42.0459 65.0464C42.212 63.4471 42.5625 61.8724 43.0904 60.3536C43.8866 57.6488 45.036 55.0607 46.5087 52.6562C47.0158 54.4482 47.4277 56.2657 47.7426 58.1012C48.3126 62.6074 47.5531 66.4554 44.2303 69.7406C42.9009 70.9615 40.3375 73.8706 38.7231 74.5274H38.7188Z" fill="#E1B43C"/>
<path fill-rule="evenodd" clip-rule="evenodd" d="M35.2015 68.1484C35.2501 69.394 35.4736 70.6265 35.8654 71.8098C36.5667 73.5901 37.169 75.4079 37.6694 77.2548C37.9713 78.6822 37.9386 80.1602 37.5739 81.5729C37.3546 82.6746 37.004 83.7459 36.5294 84.7641C35.4631 86.8626 33.8985 88.6676 31.9727 90.021C32.3507 88.9263 32.6054 87.7929 32.7321 86.6418C32.9221 85.1457 32.9221 83.6317 32.7321 82.1356C32.6366 81.1027 32.5426 80.0699 32.4428 79.225C32.3473 75.189 33.7722 71.8098 35.1913 68.1484H35.2015Z" fill="#E1B43C"/>
<path fill-rule="evenodd" clip-rule="evenodd" d="M31.9727 90.1124C34.536 88.5211 37.5739 83.6359 38.5229 81.3821C39.248 79.8101 40.1055 78.3026 41.0862 76.876C42.8098 74.3693 44.817 72.0699 47.0679 70.0234C46.9724 71.904 46.8784 73.6848 46.5934 76.0312C45.6445 80.912 43.6496 84.5661 39.1883 86.8257C37.3844 87.6705 33.872 89.9228 31.9727 90.1109V90.1124Z" fill="#E1B43C"/>
<path fill-rule="evenodd" clip-rule="evenodd" d="M30.3623 81.9453C30.0112 83.2949 29.8199 84.6811 29.7924 86.0754C29.9349 88.2318 29.9349 90.3953 29.7924 92.5518C29.5898 94.1693 29.0738 95.7318 28.2735 97.152C27.6372 98.2696 26.8726 99.309 25.9951 100.249C24.1189 102.135 21.8018 103.522 19.2539 104.285C19.9805 103.229 20.6461 102.132 21.2473 101C21.967 99.48 22.4779 97.8699 22.7663 96.2131C22.9422 95.1325 23.196 94.066 23.5257 93.0219C24.8551 88.5158 27.608 85.4186 30.3609 81.9453H30.3623Z" fill="#E1B43C"/>
<path fill-rule="evenodd" clip-rule="evenodd" d="M19.2539 104.286C22.5811 103.442 27.514 99.3115 29.2224 97.2458C30.5069 95.7883 31.9384 94.4673 33.4942 93.3038C36.1562 91.166 39.0947 89.3977 42.2302 88.0469C41.4708 90.0186 40.8068 91.8948 39.6669 94.2427C37.008 99.1235 33.5912 102.315 27.9885 103.254C25.8996 103.63 21.4368 104.755 19.2539 104.286Z" fill="#E1B43C"/>
<path fill-rule="evenodd" clip-rule="evenodd" d="M20.2031 94.9922C19.2998 96.2009 18.5654 97.5271 18.0202 98.9342C17.0712 101.375 16.6908 103.346 15.6463 105.411C14.8041 106.955 13.6748 108.325 12.3191 109.447C11.246 110.34 10.0662 111.096 8.80678 111.699C6.1242 112.905 3.20156 113.483 0.261719 113.389C1.44366 112.607 2.55806 111.728 3.59324 110.76C4.89525 109.492 6.04266 108.074 7.01155 106.536C7.67554 105.409 8.34097 104.47 9.00496 103.533C11.9488 99.5909 16.0311 97.4312 20.2074 94.998L20.2031 94.9922Z" fill="#E1B43C"/>
<path fill-rule="evenodd" clip-rule="evenodd" d="M0.17086 113.388C3.96818 113.671 10.8048 111.323 13.3682 109.821C15.2627 108.806 17.2705 108.018 19.3499 107.475C22.9839 106.312 26.7437 105.588 30.5494 105.316C28.9413 107.164 27.2296 108.919 25.4227 110.573C20.7704 114.515 16.0198 116.487 9.75747 115.454C7.3836 115.078 2.16283 114.515 0.167969 113.388H0.17086Z" fill="#E1B43C"/>
</svg>
