<svg width="539" height="337" viewBox="0 0 539 337" fill="none" xmlns="http://www.w3.org/2000/svg">
<g filter="url(#filter0_d_1_5)">
<rect x="20" y="20" width="499" height="297" rx="2" fill="#555555"/>
</g>
<path d="M113.484 61H111.307V48.8125H104.256V61H102.059V46.9082H113.484V61ZM125.371 46.6738C127.396 46.6738 129.001 47.3281 130.186 48.6367C131.377 49.9453 131.973 51.7194 131.973 53.959C131.973 56.1986 131.38 57.9727 130.195 59.2812C129.01 60.5833 127.402 61.2344 125.371 61.2344C123.34 61.2344 121.732 60.5833 120.547 59.2812C119.362 57.9727 118.77 56.1986 118.77 53.959C118.77 51.7194 119.362 49.9453 120.547 48.6367C121.732 47.3281 123.34 46.6738 125.371 46.6738ZM125.371 48.5977C124.03 48.5977 122.965 49.0794 122.178 50.043C121.396 51.0065 121.006 52.3118 121.006 53.959C121.006 55.5996 121.396 56.9017 122.178 57.8652C122.965 58.8288 124.03 59.3105 125.371 59.3105C126.706 59.3105 127.764 58.8288 128.545 57.8652C129.333 56.9017 129.727 55.5996 129.727 53.959C129.727 52.3118 129.333 51.0065 128.545 50.043C127.764 49.0794 126.706 48.5977 125.371 48.5977ZM140.012 55.5508C139.96 56.4232 139.865 57.1296 139.729 57.6699C139.592 58.2038 139.364 58.6562 139.045 59.0273V59.1055H145.49V48.793H140.441L140.012 55.5508ZM137.502 61V63.7832H135.49V59.1055H136.516C136.997 58.8255 137.346 58.3926 137.561 57.8066C137.782 57.2207 137.922 56.4362 137.98 55.4531L138.498 46.9082H147.678V59.1055H149.436V63.7832H147.434V61H137.502ZM163.539 61L162.25 57.1914H156.879L155.59 61H153.314L158.402 46.9082H160.766L165.854 61H163.539ZM159.535 49.252L157.436 55.4336H161.693L159.594 49.252H159.535ZM170.602 46.9082H175.885C177.252 46.9082 178.365 47.3379 179.225 48.1973C180.09 49.0566 180.523 50.1699 180.523 51.5371C180.523 52.9108 180.084 54.0306 179.205 54.8965C178.333 55.7559 177.203 56.1855 175.816 56.1855H172.789V61H170.602V46.9082ZM172.789 48.7539V54.3496H175.299C176.249 54.3496 176.985 54.1055 177.506 53.6172C178.027 53.1289 178.287 52.4388 178.287 51.5469C178.287 50.6615 178.027 49.9746 177.506 49.4863C176.992 48.998 176.259 48.7539 175.309 48.7539H172.789ZM191.766 46.6738C193.79 46.6738 195.395 47.3281 196.58 48.6367C197.771 49.9453 198.367 51.7194 198.367 53.959C198.367 56.1986 197.775 57.9727 196.59 59.2812C195.405 60.5833 193.797 61.2344 191.766 61.2344C189.734 61.2344 188.126 60.5833 186.941 59.2812C185.757 57.9727 185.164 56.1986 185.164 53.959C185.164 51.7194 185.757 49.9453 186.941 48.6367C188.126 47.3281 189.734 46.6738 191.766 46.6738ZM191.766 48.5977C190.424 48.5977 189.36 49.0794 188.572 50.043C187.791 51.0065 187.4 52.3118 187.4 53.959C187.4 55.5996 187.791 56.9017 188.572 57.8652C189.36 58.8288 190.424 59.3105 191.766 59.3105C193.1 59.3105 194.158 58.8288 194.939 57.8652C195.727 56.9017 196.121 55.5996 196.121 53.959C196.121 52.3118 195.727 51.0065 194.939 50.043C194.158 49.0794 193.1 48.5977 191.766 48.5977ZM214.453 61H212.266V54.8672H212.129C211.751 55.1602 211.276 55.4076 210.703 55.6094C210.13 55.8047 209.495 55.9023 208.799 55.9023C207.66 55.9023 206.676 55.6712 205.85 55.209C205.029 54.7467 204.417 54.1283 204.014 53.3535C203.617 52.5788 203.418 51.6966 203.418 50.707V46.9082H205.605V50.6289C205.605 51.6706 205.898 52.4844 206.484 53.0703C207.07 53.6562 207.907 53.9492 208.994 53.9492C209.71 53.9492 210.348 53.8353 210.908 53.6074C211.468 53.3796 211.921 53.0931 212.266 52.748V46.9082H214.453V61ZM231.857 61H229.67V54.7598H222.434V61H220.246V46.9082H222.434V52.8652H229.67V46.9082H231.857V61ZM237.641 61V46.9082H239.828V51.957H243.012C244.398 51.957 245.531 52.377 246.41 53.2168C247.289 54.0566 247.729 55.1439 247.729 56.4785C247.729 57.8132 247.296 58.9004 246.43 59.7402C245.57 60.5801 244.454 61 243.08 61H237.641ZM239.828 59.1445H242.504C243.454 59.1445 244.187 58.9134 244.701 58.4512C245.222 57.9889 245.482 57.3314 245.482 56.4785C245.482 55.6191 245.222 54.9583 244.701 54.4961C244.18 54.0339 243.448 53.8027 242.504 53.8027H239.828V59.1445ZM251.674 61H249.486V46.9082H251.674V61ZM266.93 61V50.3945H266.783L259.605 61H257.477V46.9082H259.645V57.543H259.791L266.969 46.9082H269.098V61H266.93ZM260.123 42.9824H261.51C261.516 43.5163 261.682 43.9557 262.008 44.3008C262.34 44.6458 262.763 44.8184 263.277 44.8184C263.792 44.8184 264.212 44.6458 264.537 44.3008C264.869 43.9557 265.038 43.5163 265.045 42.9824H266.432C266.432 43.8613 266.139 44.5742 265.553 45.1211C264.967 45.668 264.208 45.9414 263.277 45.9414C262.346 45.9414 261.588 45.668 261.002 45.1211C260.416 44.5742 260.123 43.8613 260.123 42.9824ZM287.9 61.2637C285.921 61.2637 284.349 60.6061 283.184 59.291C282.025 57.9759 281.445 56.1953 281.445 53.9492C281.445 51.7161 282.028 49.9421 283.193 48.627C284.365 47.3053 285.934 46.6445 287.9 46.6445C289.45 46.6445 290.768 47.0775 291.855 47.9434C292.949 48.8027 293.613 49.9355 293.848 51.3418H291.65C291.423 50.5085 290.967 49.8411 290.283 49.3398C289.606 48.8385 288.812 48.5879 287.9 48.5879C286.618 48.5879 285.592 49.0762 284.824 50.0527C284.062 51.0228 283.682 52.3216 283.682 53.9492C283.682 55.5964 284.062 56.9049 284.824 57.875C285.586 58.8385 286.615 59.3203 287.91 59.3203C288.848 59.3203 289.642 59.1022 290.293 58.666C290.951 58.2298 291.403 57.6178 291.65 56.8301H293.848C293.542 58.2298 292.868 59.3203 291.826 60.1016C290.791 60.8763 289.482 61.2637 287.9 61.2637ZM307.98 59.1055V61H299.035V46.9082H307.98V48.793H301.223V52.9141H307.619V54.7305H301.223V59.1055H307.98ZM313.441 46.9082H318.725C320.092 46.9082 321.205 47.3379 322.064 48.1973C322.93 49.0566 323.363 50.1699 323.363 51.5371C323.363 52.9108 322.924 54.0306 322.045 54.8965C321.173 55.7559 320.043 56.1855 318.656 56.1855H315.629V61H313.441V46.9082ZM315.629 48.7539V54.3496H318.139C319.089 54.3496 319.825 54.1055 320.346 53.6172C320.867 53.1289 321.127 52.4388 321.127 51.5469C321.127 50.6615 320.867 49.9746 320.346 49.4863C319.831 48.998 319.099 48.7539 318.148 48.7539H315.629ZM333.941 61H331.754V48.793H327.438V46.9082H338.248V48.793H333.941V61ZM352.684 61V50.3945H352.537L345.359 61H343.23V46.9082H345.398V57.543H345.545L352.723 46.9082H354.852V61H352.684ZM366.357 57.8848V49.9453C365.088 49.9974 364.082 50.3783 363.34 51.0879C362.598 51.7975 362.227 52.7383 362.227 53.9102C362.227 55.0951 362.594 56.0423 363.33 56.752C364.072 57.4616 365.081 57.8392 366.357 57.8848ZM372.617 53.9199C372.617 52.735 372.246 51.7878 371.504 51.0781C370.768 50.3685 369.766 49.9909 368.496 49.9453V57.8848C369.766 57.8327 370.768 57.4518 371.504 56.7422C372.246 56.0326 372.617 55.0918 372.617 53.9199ZM366.348 59.75C364.414 59.6979 362.878 59.151 361.738 58.1094C360.599 57.0612 360.029 55.6615 360.029 53.9102C360.029 52.1654 360.599 50.7721 361.738 49.7305C362.878 48.6888 364.414 48.1387 366.348 48.0801V46.6738H368.506V48.0801C370.439 48.1322 371.976 48.6823 373.115 49.7305C374.255 50.7721 374.824 52.1686 374.824 53.9199C374.824 55.6582 374.255 57.0514 373.115 58.0996C371.976 59.1413 370.439 59.6914 368.506 59.75V61.2344H366.348V59.75ZM389.445 61V50.3945H389.299L382.121 61H379.992V46.9082H382.16V57.543H382.307L389.484 46.9082H391.613V61H389.445ZM401.83 53.627L408.607 61H405.746L399.672 54.3887H399.594V61H397.406V46.9082H399.594V53.2168H399.672L405.414 46.9082H408.031L401.83 53.627ZM422.398 61L421.109 57.1914H415.738L414.449 61H412.174L417.262 46.9082H419.625L424.713 61H422.398ZM418.395 49.252L416.295 55.4336H420.553L418.453 49.252H418.395ZM433.445 61H431.258V48.793H426.941V46.9082H437.752V48.793H433.445V61Z" fill="white"/>
<path d="M106.586 277H104.626V266.031H98.2803V277H96.3027V264.317H106.586V277ZM116.034 275.893C115.237 276.748 114.174 277.176 112.844 277.176C111.514 277.176 110.45 276.748 109.653 275.893C108.856 275.031 108.458 273.859 108.458 272.377C108.458 270.9 108.856 269.734 109.653 268.879C110.45 268.018 111.514 267.587 112.844 267.587C114.174 267.587 115.237 268.018 116.034 268.879C116.831 269.734 117.229 270.9 117.229 272.377C117.229 273.859 116.831 275.031 116.034 275.893ZM112.844 275.611C113.6 275.611 114.197 275.327 114.637 274.759C115.076 274.19 115.296 273.396 115.296 272.377C115.296 271.363 115.073 270.572 114.628 270.004C114.188 269.436 113.594 269.151 112.844 269.151C112.094 269.151 111.496 269.436 111.051 270.004C110.611 270.572 110.392 271.363 110.392 272.377C110.392 273.396 110.611 274.19 111.051 274.759C111.496 275.327 112.094 275.611 112.844 275.611ZM121.325 272.79C121.29 273.341 121.234 273.827 121.158 274.249C121.082 274.671 120.971 275.066 120.824 275.436C120.678 275.799 120.499 276.101 120.288 276.341C120.077 276.575 119.813 276.76 119.497 276.895C119.187 277.023 118.826 277.088 118.416 277.088C118.158 277.088 117.944 277.056 117.774 276.991V275.321C117.933 275.368 118.1 275.392 118.275 275.392C118.697 275.392 119.008 275.163 119.207 274.706C119.406 274.249 119.535 273.584 119.594 272.711L119.91 267.754H126.317V277H124.428V269.257H121.58L121.325 272.79ZM134.43 277V272.975H130.246V277H128.356V267.754H130.246V271.48H134.43V267.754H136.319V277H134.43ZM145.548 275.893C144.751 276.748 143.688 277.176 142.357 277.176C141.027 277.176 139.964 276.748 139.167 275.893C138.37 275.031 137.972 273.859 137.972 272.377C137.972 270.9 138.37 269.734 139.167 268.879C139.964 268.018 141.027 267.587 142.357 267.587C143.688 267.587 144.751 268.018 145.548 268.879C146.345 269.734 146.743 270.9 146.743 272.377C146.743 273.859 146.345 275.031 145.548 275.893ZM142.357 275.611C143.113 275.611 143.711 275.327 144.15 274.759C144.59 274.19 144.81 273.396 144.81 272.377C144.81 271.363 144.587 270.572 144.142 270.004C143.702 269.436 143.107 269.151 142.357 269.151C141.607 269.151 141.01 269.436 140.564 270.004C140.125 270.572 139.905 271.363 139.905 272.377C139.905 273.396 140.125 274.19 140.564 274.759C141.01 275.327 141.607 275.611 142.357 275.611ZM153.862 269.784C153.446 269.339 152.91 269.116 152.254 269.116C151.598 269.116 151.053 269.342 150.619 269.793C150.186 270.238 149.945 270.815 149.898 271.524H154.521C154.498 270.81 154.278 270.229 153.862 269.784ZM154.513 274.284H156.314C156.18 275.134 155.746 275.828 155.014 276.367C154.281 276.906 153.388 277.176 152.333 277.176C150.979 277.176 149.913 276.751 149.134 275.901C148.36 275.046 147.974 273.886 147.974 272.421C147.974 270.968 148.36 269.799 149.134 268.914C149.913 268.029 150.953 267.587 152.254 267.587C153.531 267.587 154.545 268.006 155.295 268.844C156.045 269.676 156.42 270.795 156.42 272.201V272.852H149.89V272.966C149.89 273.774 150.115 274.422 150.566 274.908C151.018 275.395 151.621 275.638 152.377 275.638C152.91 275.638 153.367 275.515 153.748 275.269C154.129 275.022 154.384 274.694 154.513 274.284ZM165.517 269.134H163.574V271.56H165.332C166.404 271.56 166.94 271.149 166.94 270.329C166.94 269.948 166.817 269.655 166.571 269.45C166.325 269.239 165.974 269.134 165.517 269.134ZM165.455 272.887H163.574V275.62H165.666C166.205 275.62 166.615 275.506 166.896 275.277C167.178 275.043 167.318 274.703 167.318 274.258C167.318 273.344 166.697 272.887 165.455 272.887ZM161.702 277V267.754H165.903C166.806 267.754 167.512 267.965 168.021 268.387C168.537 268.803 168.795 269.377 168.795 270.109C168.795 270.59 168.643 271.023 168.338 271.41C168.039 271.791 167.667 272.022 167.222 272.104V272.175C167.819 272.257 168.3 272.494 168.663 272.887C169.026 273.273 169.208 273.757 169.208 274.337C169.208 275.151 168.915 275.799 168.329 276.279C167.749 276.76 166.958 277 165.956 277H161.702ZM176.969 277V272.975H172.785V277H170.896V267.754H172.785V271.48H176.969V267.754H178.858V277H176.969ZM186.399 269.784C185.983 269.339 185.447 269.116 184.791 269.116C184.135 269.116 183.59 269.342 183.156 269.793C182.723 270.238 182.482 270.815 182.436 271.524H187.059C187.035 270.81 186.815 270.229 186.399 269.784ZM187.05 274.284H188.852C188.717 275.134 188.283 275.828 187.551 276.367C186.818 276.906 185.925 277.176 184.87 277.176C183.517 277.176 182.45 276.751 181.671 275.901C180.897 275.046 180.511 273.886 180.511 272.421C180.511 270.968 180.897 269.799 181.671 268.914C182.45 268.029 183.49 267.587 184.791 267.587C186.068 267.587 187.082 268.006 187.832 268.844C188.582 269.676 188.957 270.795 188.957 272.201V272.852H182.427V272.966C182.427 273.774 182.652 274.422 183.104 274.908C183.555 275.395 184.158 275.638 184.914 275.638C185.447 275.638 185.904 275.515 186.285 275.269C186.666 275.022 186.921 274.694 187.05 274.284ZM190.583 277V267.754H192.473V275.497H195.575V267.754H197.465V275.497H200.567V267.754H202.457V277H190.583ZM210.578 277V272.975H206.395V277H204.505V267.754H206.395V271.48H210.578V267.754H212.468V277H210.578ZM220.009 269.784C219.593 269.339 219.057 269.116 218.4 269.116C217.744 269.116 217.199 269.342 216.766 269.793C216.332 270.238 216.092 270.815 216.045 271.524H220.668C220.645 270.81 220.425 270.229 220.009 269.784ZM220.659 274.284H222.461C222.326 275.134 221.893 275.828 221.16 276.367C220.428 276.906 219.534 277.176 218.479 277.176C217.126 277.176 216.06 276.751 215.28 275.901C214.507 275.046 214.12 273.886 214.12 272.421C214.12 270.968 214.507 269.799 215.28 268.914C216.06 268.029 217.1 267.587 218.4 267.587C219.678 267.587 220.691 268.006 221.441 268.844C222.191 269.676 222.566 270.795 222.566 272.201V272.852H216.036V272.966C216.036 273.774 216.262 274.422 216.713 274.908C217.164 275.395 217.768 275.638 218.523 275.638C219.057 275.638 219.514 275.515 219.895 275.269C220.275 275.022 220.53 274.694 220.659 274.284ZM229.677 269.784C229.261 269.339 228.725 269.116 228.068 269.116C227.412 269.116 226.867 269.342 226.434 269.793C226 270.238 225.76 270.815 225.713 271.524H230.336C230.312 270.81 230.093 270.229 229.677 269.784ZM230.327 274.284H232.129C231.994 275.134 231.561 275.828 230.828 276.367C230.096 276.906 229.202 277.176 228.147 277.176C226.794 277.176 225.728 276.751 224.948 275.901C224.175 275.046 223.788 273.886 223.788 272.421C223.788 270.968 224.175 269.799 224.948 268.914C225.728 268.029 226.768 267.587 228.068 267.587C229.346 267.587 230.359 268.006 231.109 268.844C231.859 269.676 232.234 270.795 232.234 272.201V272.852H225.704V272.966C225.704 273.774 225.93 274.422 226.381 274.908C226.832 275.395 227.436 275.638 228.191 275.638C228.725 275.638 229.182 275.515 229.562 275.269C229.943 275.022 230.198 274.694 230.327 274.284ZM239.389 277H237.517V267.754H239.389V274.231H239.459L243.73 267.754H245.603V277H243.73V270.505H243.66L239.389 277ZM255.112 269.134H253.17V271.56H254.928C256 271.56 256.536 271.149 256.536 270.329C256.536 269.948 256.413 269.655 256.167 269.45C255.921 269.239 255.569 269.134 255.112 269.134ZM255.051 272.887H253.17V275.62H255.262C255.801 275.62 256.211 275.506 256.492 275.277C256.773 275.043 256.914 274.703 256.914 274.258C256.914 273.344 256.293 272.887 255.051 272.887ZM251.298 277V267.754H255.499C256.401 267.754 257.107 267.965 257.617 268.387C258.133 268.803 258.391 269.377 258.391 270.109C258.391 270.59 258.238 271.023 257.934 271.41C257.635 271.791 257.263 272.022 256.817 272.104V272.175C257.415 272.257 257.896 272.494 258.259 272.887C258.622 273.273 258.804 273.757 258.804 274.337C258.804 275.151 258.511 275.799 257.925 276.279C257.345 276.76 256.554 277 255.552 277H251.298ZM266.564 277V272.975H262.381V277H260.491V267.754H262.381V271.48H266.564V267.754H268.454V277H266.564ZM271.434 280.445C271.076 280.445 270.818 280.431 270.66 280.401V278.863C270.754 278.887 270.959 278.898 271.275 278.898C271.721 278.898 272.069 278.796 272.321 278.591C272.573 278.392 272.772 278.055 272.919 277.58C272.919 277.574 272.948 277.478 273.007 277.29L273.086 277.009L269.746 267.754H271.803L274.149 275.277H274.176L276.522 267.754H278.526L275.055 277.483C274.662 278.603 274.202 279.376 273.675 279.804C273.147 280.231 272.4 280.445 271.434 280.445ZM286.823 267.754V269.257H283.923V277H282.033V269.257H279.133V267.754H286.823ZM293.037 267.604C294.215 267.604 295.158 268.035 295.867 268.896C296.576 269.758 296.931 270.918 296.931 272.377C296.931 273.836 296.579 274.999 295.876 275.866C295.173 276.728 294.238 277.158 293.072 277.158C292.416 277.158 291.833 277.009 291.323 276.71C290.819 276.411 290.433 276.001 290.163 275.479H290.119V280.059H288.221V267.754H290.058V269.345H290.093C290.368 268.806 290.764 268.381 291.279 268.07C291.795 267.76 292.381 267.604 293.037 267.604ZM292.536 275.55C293.286 275.55 293.881 275.266 294.32 274.697C294.76 274.123 294.979 273.35 294.979 272.377C294.979 271.41 294.76 270.64 294.32 270.065C293.881 269.491 293.286 269.204 292.536 269.204C291.81 269.204 291.224 269.494 290.778 270.074C290.333 270.654 290.11 271.422 290.11 272.377C290.11 273.338 290.33 274.108 290.77 274.688C291.215 275.263 291.804 275.55 292.536 275.55ZM304.05 269.784C303.634 269.339 303.098 269.116 302.441 269.116C301.785 269.116 301.24 269.342 300.807 269.793C300.373 270.238 300.133 270.815 300.086 271.524H304.709C304.686 270.81 304.466 270.229 304.05 269.784ZM304.7 274.284H306.502C306.367 275.134 305.934 275.828 305.201 276.367C304.469 276.906 303.575 277.176 302.521 277.176C301.167 277.176 300.101 276.751 299.321 275.901C298.548 275.046 298.161 273.886 298.161 272.421C298.161 270.968 298.548 269.799 299.321 268.914C300.101 268.029 301.141 267.587 302.441 267.587C303.719 267.587 304.732 268.006 305.482 268.844C306.232 269.676 306.607 270.795 306.607 272.201V272.852H300.077V272.966C300.077 273.774 300.303 274.422 300.754 274.908C301.205 275.395 301.809 275.638 302.564 275.638C303.098 275.638 303.555 275.515 303.936 275.269C304.316 275.022 304.571 274.694 304.7 274.284ZM313.718 269.784C313.302 269.339 312.766 269.116 312.109 269.116C311.453 269.116 310.908 269.342 310.475 269.793C310.041 270.238 309.801 270.815 309.754 271.524H314.377C314.354 270.81 314.134 270.229 313.718 269.784ZM314.368 274.284H316.17C316.035 275.134 315.602 275.828 314.869 276.367C314.137 276.906 313.243 277.176 312.188 277.176C310.835 277.176 309.769 276.751 308.989 275.901C308.216 275.046 307.829 273.886 307.829 272.421C307.829 270.968 308.216 269.799 308.989 268.914C309.769 268.029 310.809 267.587 312.109 267.587C313.387 267.587 314.4 268.006 315.15 268.844C315.9 269.676 316.275 270.795 316.275 272.201V272.852H309.745V272.966C309.745 273.774 309.971 274.422 310.422 274.908C310.873 275.395 311.477 275.638 312.232 275.638C312.766 275.638 313.223 275.515 313.604 275.269C313.984 275.022 314.239 274.694 314.368 274.284ZM327.543 277V269.257H323.447V277H321.558V267.754H329.441V277H327.543ZM336.314 267.604C337.492 267.604 338.436 268.035 339.145 268.896C339.854 269.758 340.208 270.918 340.208 272.377C340.208 273.836 339.856 274.999 339.153 275.866C338.45 276.728 337.516 277.158 336.35 277.158C335.693 277.158 335.11 277.009 334.601 276.71C334.097 276.411 333.71 276.001 333.44 275.479H333.396V280.059H331.498V267.754H333.335V269.345H333.37C333.646 268.806 334.041 268.381 334.557 268.07C335.072 267.76 335.658 267.604 336.314 267.604ZM335.813 275.55C336.563 275.55 337.158 275.266 337.598 274.697C338.037 274.123 338.257 273.35 338.257 272.377C338.257 271.41 338.037 270.64 337.598 270.065C337.158 269.491 336.563 269.204 335.813 269.204C335.087 269.204 334.501 269.494 334.056 270.074C333.61 270.654 333.388 271.422 333.388 272.377C333.388 273.338 333.607 274.108 334.047 274.688C334.492 275.263 335.081 275.55 335.813 275.55ZM343.715 277H341.843V267.754H343.715V274.231H343.785L348.057 267.754H349.929V277H348.057V270.505H347.986L343.715 277ZM359.14 275.893C358.343 276.748 357.279 277.176 355.949 277.176C354.619 277.176 353.556 276.748 352.759 275.893C351.962 275.031 351.563 273.859 351.563 272.377C351.563 270.9 351.962 269.734 352.759 268.879C353.556 268.018 354.619 267.587 355.949 267.587C357.279 267.587 358.343 268.018 359.14 268.879C359.937 269.734 360.335 270.9 360.335 272.377C360.335 273.859 359.937 275.031 359.14 275.893ZM355.949 275.611C356.705 275.611 357.303 275.327 357.742 274.759C358.182 274.19 358.401 273.396 358.401 272.377C358.401 271.363 358.179 270.572 357.733 270.004C357.294 269.436 356.699 269.151 355.949 269.151C355.199 269.151 354.602 269.436 354.156 270.004C353.717 270.572 353.497 271.363 353.497 272.377C353.497 273.396 353.717 274.19 354.156 274.759C354.602 275.327 355.199 275.611 355.949 275.611ZM366.092 277.176C364.639 277.176 363.531 276.707 362.77 275.77C362.014 274.832 361.636 273.452 361.636 271.63C361.636 269.913 361.809 268.527 362.154 267.473C362.506 266.412 363.045 265.627 363.771 265.117C364.504 264.607 365.462 264.332 366.646 264.291L367.472 264.265C368.614 264.212 369.42 264.06 369.889 263.808V265.381C369.766 265.498 369.487 265.604 369.054 265.697C368.62 265.791 368.128 265.85 367.577 265.873L366.769 265.899C366.153 265.923 365.635 266.011 365.213 266.163C364.797 266.31 364.451 266.544 364.176 266.866C363.9 267.183 363.687 267.566 363.534 268.018C363.382 268.463 363.262 269.025 363.174 269.705H363.244C363.537 269.16 363.953 268.744 364.492 268.457C365.037 268.164 365.673 268.018 366.399 268.018C367.647 268.018 368.641 268.422 369.379 269.23C370.123 270.039 370.495 271.123 370.495 272.482C370.495 273.936 370.103 275.081 369.317 275.919C368.532 276.757 367.457 277.176 366.092 277.176ZM366.074 275.585C366.859 275.585 367.469 275.318 367.902 274.785C368.336 274.246 368.553 273.487 368.553 272.509C368.553 271.577 368.336 270.854 367.902 270.338C367.469 269.822 366.859 269.564 366.074 269.564C365.283 269.564 364.668 269.822 364.229 270.338C363.795 270.854 363.578 271.577 363.578 272.509C363.578 273.493 363.795 274.252 364.229 274.785C364.668 275.318 365.283 275.585 366.074 275.585ZM376.955 267.604C378.133 267.604 379.076 268.035 379.785 268.896C380.494 269.758 380.849 270.918 380.849 272.377C380.849 273.836 380.497 274.999 379.794 275.866C379.091 276.728 378.156 277.158 376.99 277.158C376.334 277.158 375.751 277.009 375.241 276.71C374.737 276.411 374.351 276.001 374.081 275.479H374.037V280.059H372.139V267.754H373.976V269.345H374.011C374.286 268.806 374.682 268.381 375.197 268.07C375.713 267.76 376.299 267.604 376.955 267.604ZM376.454 275.55C377.204 275.55 377.799 275.266 378.238 274.697C378.678 274.123 378.897 273.35 378.897 272.377C378.897 271.41 378.678 270.64 378.238 270.065C377.799 269.491 377.204 269.204 376.454 269.204C375.728 269.204 375.142 269.494 374.696 270.074C374.251 270.654 374.028 271.422 374.028 272.377C374.028 273.338 374.248 274.108 374.688 274.688C375.133 275.263 375.722 275.55 376.454 275.55ZM385.727 275.655C386.395 275.655 386.954 275.453 387.405 275.049C387.862 274.639 388.091 274.135 388.091 273.537V272.808L385.814 272.948C385.246 272.989 384.807 273.13 384.496 273.37C384.191 273.604 384.039 273.921 384.039 274.319C384.039 274.724 384.191 275.049 384.496 275.295C384.807 275.535 385.217 275.655 385.727 275.655ZM385.199 277.158C384.291 277.158 383.55 276.9 382.976 276.385C382.407 275.869 382.123 275.198 382.123 274.372C382.123 273.563 382.422 272.922 383.02 272.447C383.617 271.967 384.464 271.697 385.56 271.639L388.091 271.489V270.777C388.091 270.262 387.927 269.86 387.599 269.573C387.271 269.28 386.816 269.134 386.236 269.134C385.697 269.134 385.258 269.254 384.918 269.494C384.584 269.734 384.373 270.065 384.285 270.487H382.492C382.545 269.632 382.914 268.935 383.6 268.396C384.285 267.856 385.188 267.587 386.307 267.587C387.426 267.587 388.316 267.862 388.979 268.413C389.646 268.964 389.98 269.702 389.98 270.628V277H388.161V275.479H388.117C387.854 275.989 387.452 276.396 386.913 276.701C386.38 277.006 385.809 277.158 385.199 277.158ZM400.659 272.096L404.605 277H402.25L398.849 272.737H398.778V277H396.906V272.737H396.845L393.443 277H391.123L395.043 272.131L391.229 267.754H393.487L396.845 271.709H396.906V267.754H398.778V271.709H398.849L402.206 267.754H404.447L400.659 272.096ZM410.978 269.784C410.562 269.339 410.025 269.116 409.369 269.116C408.713 269.116 408.168 269.342 407.734 269.793C407.301 270.238 407.061 270.815 407.014 271.524H411.637C411.613 270.81 411.394 270.229 410.978 269.784ZM411.628 274.284H413.43C413.295 275.134 412.861 275.828 412.129 276.367C411.396 276.906 410.503 277.176 409.448 277.176C408.095 277.176 407.028 276.751 406.249 275.901C405.476 275.046 405.089 273.886 405.089 272.421C405.089 270.968 405.476 269.799 406.249 268.914C407.028 268.029 408.068 267.587 409.369 267.587C410.646 267.587 411.66 268.006 412.41 268.844C413.16 269.676 413.535 270.795 413.535 272.201V272.852H407.005V272.966C407.005 273.774 407.23 274.422 407.682 274.908C408.133 275.395 408.736 275.638 409.492 275.638C410.025 275.638 410.482 275.515 410.863 275.269C411.244 275.022 411.499 274.694 411.628 274.284ZM421.234 277V272.975H417.051V277H415.161V267.754H417.051V271.48H421.234V267.754H423.124V277H421.234ZM427.053 277H425.181V267.754H427.053V274.231H427.123L431.395 267.754H433.267V277H431.395V270.505H431.324L427.053 277ZM440.79 269.784C440.374 269.339 439.838 269.116 439.182 269.116C438.525 269.116 437.98 269.342 437.547 269.793C437.113 270.238 436.873 270.815 436.826 271.524H441.449C441.426 270.81 441.206 270.229 440.79 269.784ZM441.44 274.284H443.242C443.107 275.134 442.674 275.828 441.941 276.367C441.209 276.906 440.315 277.176 439.261 277.176C437.907 277.176 436.841 276.751 436.062 275.901C435.288 275.046 434.901 273.886 434.901 272.421C434.901 270.968 435.288 269.799 436.062 268.914C436.841 268.029 437.881 267.587 439.182 267.587C440.459 267.587 441.473 268.006 442.223 268.844C442.973 269.676 443.348 270.795 443.348 272.201V272.852H436.817V272.966C436.817 273.774 437.043 274.422 437.494 274.908C437.945 275.395 438.549 275.638 439.305 275.638C439.838 275.638 440.295 275.515 440.676 275.269C441.057 275.022 441.312 274.694 441.44 274.284Z" fill="white"/>
<path d="M166.372 205H164.403V194.014H160.519V192.317H170.248V194.014H166.372V205ZM173.456 203.655C174.124 203.655 174.684 203.453 175.135 203.049C175.592 202.639 175.82 202.135 175.82 201.537V200.808L173.544 200.948C172.976 200.989 172.536 201.13 172.226 201.37C171.921 201.604 171.769 201.921 171.769 202.319C171.769 202.724 171.921 203.049 172.226 203.295C172.536 203.535 172.946 203.655 173.456 203.655ZM172.929 205.158C172.021 205.158 171.279 204.9 170.705 204.385C170.137 203.869 169.853 203.198 169.853 202.372C169.853 201.563 170.151 200.922 170.749 200.447C171.347 199.967 172.193 199.697 173.289 199.639L175.82 199.489V198.777C175.82 198.262 175.656 197.86 175.328 197.573C175 197.28 174.546 197.134 173.966 197.134C173.427 197.134 172.987 197.254 172.647 197.494C172.313 197.734 172.103 198.065 172.015 198.487H170.222C170.274 197.632 170.644 196.935 171.329 196.396C172.015 195.856 172.917 195.587 174.036 195.587C175.155 195.587 176.046 195.862 176.708 196.413C177.376 196.964 177.71 197.702 177.71 198.628V205H175.891V203.479H175.847C175.583 203.989 175.182 204.396 174.643 204.701C174.109 205.006 173.538 205.158 172.929 205.158ZM184.53 195.604C185.708 195.604 186.651 196.035 187.36 196.896C188.069 197.758 188.424 198.918 188.424 200.377C188.424 201.836 188.072 202.999 187.369 203.866C186.666 204.728 185.731 205.158 184.565 205.158C183.909 205.158 183.326 205.009 182.816 204.71C182.312 204.411 181.926 204.001 181.656 203.479H181.612V208.059H179.714V195.754H181.551V197.345H181.586C181.861 196.806 182.257 196.381 182.772 196.07C183.288 195.76 183.874 195.604 184.53 195.604ZM184.029 203.55C184.779 203.55 185.374 203.266 185.813 202.697C186.253 202.123 186.473 201.35 186.473 200.377C186.473 199.41 186.253 198.64 185.813 198.065C185.374 197.491 184.779 197.204 184.029 197.204C183.303 197.204 182.717 197.494 182.271 198.074C181.826 198.654 181.604 199.422 181.604 200.377C181.604 201.338 181.823 202.108 182.263 202.688C182.708 203.263 183.297 203.55 184.029 203.55ZM191.931 205H190.059V195.754H191.931V202.231H192.001L196.272 195.754H198.145V205H196.272V198.505H196.202L191.931 205ZM204.648 203.594V197.16C203.74 197.184 203.02 197.482 202.486 198.057C201.959 198.631 201.695 199.404 201.695 200.377C201.695 201.355 201.959 202.129 202.486 202.697C203.02 203.266 203.74 203.564 204.648 203.594ZM208.63 202.706C209.163 202.132 209.43 201.355 209.43 200.377C209.43 199.398 209.163 198.625 208.63 198.057C208.103 197.488 207.385 197.189 206.477 197.16V203.594C207.379 203.57 208.097 203.274 208.63 202.706ZM204.64 205.123C203.157 205.094 201.974 204.654 201.089 203.805C200.21 202.949 199.771 201.807 199.771 200.377C199.771 198.953 200.213 197.813 201.098 196.958C201.982 196.103 203.163 195.663 204.64 195.64V192.757H206.485V195.64C207.956 195.669 209.134 196.108 210.019 196.958C210.903 197.808 211.346 198.947 211.346 200.377C211.346 201.801 210.9 202.94 210.01 203.796C209.125 204.651 207.95 205.094 206.485 205.123V208.059H204.64V205.123ZM215.143 204.763C214.92 204.985 214.647 205.097 214.325 205.097C214.003 205.097 213.73 204.985 213.508 204.763C213.285 204.54 213.174 204.268 213.174 203.945C213.174 203.623 213.285 203.351 213.508 203.128C213.73 202.905 214.003 202.794 214.325 202.794C214.647 202.794 214.92 202.905 215.143 203.128C215.365 203.351 215.477 203.623 215.477 203.945C215.477 204.268 215.365 204.54 215.143 204.763ZM215.143 198.355C214.92 198.578 214.647 198.689 214.325 198.689C214.003 198.689 213.73 198.578 213.508 198.355C213.285 198.133 213.174 197.86 213.174 197.538C213.174 197.216 213.285 196.943 213.508 196.721C213.73 196.498 214.003 196.387 214.325 196.387C214.647 196.387 214.92 196.498 215.143 196.721C215.365 196.943 215.477 197.216 215.477 197.538C215.477 197.86 215.365 198.133 215.143 198.355Z" fill="white"/>
<path d="M239.405 116.583H227.165L224.859 122.84C224.146 124.707 223.871 125.475 223.871 126.518C223.871 128.329 225.189 128.988 227.439 129.098V130.195H216.901V129.098C220.468 128.658 221.401 127.396 225.683 116.473L229.964 105.496C230.897 103.081 231.83 100.94 231.83 100.337C231.83 99.7878 231.885 99.678 232.105 99.3487L234.574 95.6163C234.959 95.0675 235.123 94.9577 235.508 94.9577C236.495 94.9577 236.386 96.5494 237.977 100.666L246.211 121.798C248.735 128.164 249.394 128.768 252.797 129.098V130.195H239.13V129.098C242.094 128.768 242.862 128.219 242.862 127.122C242.862 126.189 242.533 124.816 241.984 123.389L239.405 116.583ZM227.768 115.046H238.856L234.135 102.916C233.806 102.038 233.532 101.105 233.367 100.501H233.257C232.598 102.697 231.007 106.594 230.568 107.746L227.768 115.046Z" fill="#E8BB1C"/>
<path d="M298.186 130.195V129.098C302.137 128.878 303.071 128.219 303.016 125.914C302.796 117.681 302.796 109.228 302.467 101.16H302.357C297.966 110.655 293.026 120.535 289.349 129.646H288.58C287.592 127.506 286.11 123.28 284.354 119.767C282.543 116.144 278.92 108.076 275.682 100.501H275.572C275.517 109.448 275.133 117.846 275.133 122.84C275.133 127.286 276.121 129.098 280.128 129.098V130.195H268.711V129.098C271.84 128.549 272.992 127.78 273.322 123.334C273.87 116.309 274.145 105.606 274.145 102.752C274.145 97.1532 273.376 96.7141 269.205 96.4945V95.3968H278.261L288.031 117.571C288.8 119.328 289.623 120.81 290.337 122.895L303.565 95.3968H312.017V96.4945C307.681 96.769 306.748 97.8118 306.748 102.038C306.748 104.179 307.132 116.254 307.297 126.189C307.352 128.384 308.614 128.878 312.017 129.098V130.195H298.186Z" fill="#E8BB1C"/>
<path d="M223.071 149.942C223.071 148.924 223.482 148.087 224.303 147.432C225.132 146.777 226.197 146.449 227.5 146.449C228.755 146.449 229.793 146.789 230.614 147.467C231.443 148.138 231.897 149.015 231.976 150.096H230.472C230.377 149.362 230.061 148.786 229.525 148.367C228.996 147.949 228.305 147.74 227.452 147.74C226.616 147.74 225.933 147.941 225.404 148.344C224.883 148.738 224.622 149.244 224.622 149.859C224.622 150.364 224.812 150.779 225.191 151.103C225.57 151.418 226.17 151.679 226.991 151.884L228.814 152.322C230.046 152.63 230.918 153.033 231.431 153.53C231.944 154.027 232.201 154.718 232.201 155.602C232.201 156.644 231.759 157.501 230.874 158.172C229.99 158.835 228.854 159.166 227.464 159.166C226.146 159.166 225.049 158.831 224.173 158.16C223.304 157.489 222.819 156.609 222.716 155.519H224.279C224.39 156.253 224.733 156.83 225.309 157.248C225.893 157.666 226.643 157.875 227.559 157.875C228.483 157.875 229.225 157.678 229.785 157.283C230.346 156.889 230.626 156.368 230.626 155.72C230.626 155.184 230.452 154.761 230.105 154.453C229.765 154.138 229.185 153.881 228.364 153.684L226.363 153.187C225.25 152.91 224.421 152.508 223.877 151.979C223.34 151.442 223.071 150.763 223.071 149.942ZM239.833 143.572H241.396V146.65H243.824V147.953H241.396V155.863C241.396 156.494 241.526 156.956 241.787 157.248C242.047 157.532 242.462 157.674 243.03 157.674C243.472 157.674 243.756 157.658 243.883 157.627V158.965C243.662 159.012 243.275 159.036 242.722 159.036C241.688 159.036 240.946 158.799 240.496 158.325C240.054 157.844 239.833 157.047 239.833 155.934V147.953H237.998V146.65H239.833V143.572ZM251.776 163.417C251.492 163.417 251.231 163.393 250.994 163.346V162.008C251.184 162.055 251.432 162.079 251.74 162.079C252.301 162.079 252.751 161.921 253.09 161.605C253.438 161.29 253.749 160.745 254.026 159.971L254.357 159.048L249.739 146.65H251.421L255.162 157.402H255.198L258.951 146.65H260.597L255.754 159.711C255.218 161.155 254.673 162.134 254.12 162.647C253.568 163.16 252.786 163.417 251.776 163.417ZM267.105 158.965V141.879H268.668V158.965H267.105ZM276.431 158.965V146.65H277.994V158.965H276.431ZM277.212 144.164C276.928 144.164 276.683 144.065 276.478 143.868C276.273 143.663 276.17 143.414 276.17 143.122C276.17 142.838 276.273 142.597 276.478 142.4C276.683 142.194 276.928 142.092 277.212 142.092C277.504 142.092 277.753 142.194 277.958 142.4C278.164 142.597 278.266 142.838 278.266 143.122C278.266 143.414 278.164 143.663 277.958 143.868C277.753 144.065 277.504 144.164 277.212 144.164ZM285.401 149.942C285.401 148.924 285.812 148.087 286.633 147.432C287.462 146.777 288.527 146.449 289.83 146.449C291.085 146.449 292.123 146.789 292.944 147.467C293.773 148.138 294.227 149.015 294.306 150.096H292.802C292.707 149.362 292.391 148.786 291.855 148.367C291.326 147.949 290.635 147.74 289.783 147.74C288.946 147.74 288.263 147.941 287.734 148.344C287.213 148.738 286.953 149.244 286.953 149.859C286.953 150.364 287.142 150.779 287.521 151.103C287.9 151.418 288.5 151.679 289.321 151.884L291.144 152.322C292.376 152.63 293.248 153.033 293.761 153.53C294.274 154.027 294.531 154.718 294.531 155.602C294.531 156.644 294.089 157.501 293.205 158.172C292.32 158.835 291.184 159.166 289.794 159.166C288.476 159.166 287.379 158.831 286.503 158.16C285.634 157.489 285.149 156.609 285.046 155.519H286.609C286.72 156.253 287.063 156.83 287.639 157.248C288.223 157.666 288.973 157.875 289.889 157.875C290.813 157.875 291.555 157.678 292.115 157.283C292.676 156.889 292.956 156.368 292.956 155.72C292.956 155.184 292.782 154.761 292.435 154.453C292.095 154.138 291.515 153.881 290.694 153.684L288.693 153.187C287.58 152.91 286.751 152.508 286.207 151.979C285.67 151.442 285.401 150.763 285.401 149.942ZM302.163 143.572H303.726V146.65H306.154V147.953H303.726V155.863C303.726 156.494 303.857 156.956 304.117 157.248C304.378 157.532 304.792 157.674 305.36 157.674C305.802 157.674 306.087 157.658 306.213 157.627V158.965C305.992 159.012 305.605 159.036 305.052 159.036C304.018 159.036 303.276 158.799 302.826 158.325C302.384 157.844 302.163 157.047 302.163 155.934V147.953H300.328V146.65H302.163V143.572Z" fill="white"/>
<rect x="260.168" y="89" width="1.73214" height="45.9018" fill="#E8BB1C"/>
<path d="M171.707 233H169.738V227.384H163.226V233H161.257V220.317H163.226V225.679H169.738V220.317H171.707V233ZM177.218 231.655C177.886 231.655 178.445 231.453 178.896 231.049C179.354 230.639 179.582 230.135 179.582 229.537V228.808L177.306 228.948C176.737 228.989 176.298 229.13 175.987 229.37C175.683 229.604 175.53 229.921 175.53 230.319C175.53 230.724 175.683 231.049 175.987 231.295C176.298 231.535 176.708 231.655 177.218 231.655ZM176.69 233.158C175.782 233.158 175.041 232.9 174.467 232.385C173.898 231.869 173.614 231.198 173.614 230.372C173.614 229.563 173.913 228.922 174.511 228.447C175.108 227.967 175.955 227.697 177.051 227.639L179.582 227.489V226.777C179.582 226.262 179.418 225.86 179.09 225.573C178.762 225.28 178.308 225.134 177.728 225.134C177.188 225.134 176.749 225.254 176.409 225.494C176.075 225.734 175.864 226.065 175.776 226.487H173.983C174.036 225.632 174.405 224.935 175.091 224.396C175.776 223.856 176.679 223.587 177.798 223.587C178.917 223.587 179.808 223.862 180.47 224.413C181.138 224.964 181.472 225.702 181.472 226.628V233H179.652V231.479H179.608C179.345 231.989 178.943 232.396 178.404 232.701C177.871 233.006 177.3 233.158 176.69 233.158ZM185.295 233H183.467V223.754H185.849L188.811 230.53H188.881L191.86 223.754H194.189V233H192.344V226.584H192.282L189.514 232.64H188.125L185.356 226.584H185.295V233ZM198.101 233H196.229V223.754H198.101V230.231H198.171L202.442 223.754H204.314V233H202.442V226.505H202.372L198.101 233ZM212.427 233V228.975H208.243V233H206.354V223.754H208.243V227.48H212.427V223.754H214.316V233H212.427ZM219.616 231.655C220.284 231.655 220.844 231.453 221.295 231.049C221.752 230.639 221.98 230.135 221.98 229.537V228.808L219.704 228.948C219.136 228.989 218.696 229.13 218.386 229.37C218.081 229.604 217.929 229.921 217.929 230.319C217.929 230.724 218.081 231.049 218.386 231.295C218.696 231.535 219.106 231.655 219.616 231.655ZM219.089 233.158C218.181 233.158 217.439 232.9 216.865 232.385C216.297 231.869 216.013 231.198 216.013 230.372C216.013 229.563 216.312 228.922 216.909 228.447C217.507 227.967 218.354 227.697 219.449 227.639L221.98 227.489V226.777C221.98 226.262 221.816 225.86 221.488 225.573C221.16 225.28 220.706 225.134 220.126 225.134C219.587 225.134 219.147 225.254 218.808 225.494C218.474 225.734 218.263 226.065 218.175 226.487H216.382C216.435 225.632 216.804 224.935 217.489 224.396C218.175 223.856 219.077 223.587 220.196 223.587C221.315 223.587 222.206 223.862 222.868 224.413C223.536 224.964 223.87 225.702 223.87 226.628V233H222.051V231.479H222.007C221.743 231.989 221.342 232.396 220.803 232.701C220.27 233.006 219.698 233.158 219.089 233.158ZM228.66 228.79C228.625 229.341 228.569 229.827 228.493 230.249C228.417 230.671 228.306 231.066 228.159 231.436C228.013 231.799 227.834 232.101 227.623 232.341C227.412 232.575 227.148 232.76 226.832 232.895C226.521 233.023 226.161 233.088 225.751 233.088C225.493 233.088 225.279 233.056 225.109 232.991V231.321C225.268 231.368 225.435 231.392 225.61 231.392C226.032 231.392 226.343 231.163 226.542 230.706C226.741 230.249 226.87 229.584 226.929 228.711L227.245 223.754H233.652V233H231.763V225.257H228.915L228.66 228.79ZM237.854 232.763C237.631 232.985 237.358 233.097 237.036 233.097C236.714 233.097 236.441 232.985 236.219 232.763C235.996 232.54 235.885 232.268 235.885 231.945C235.885 231.623 235.996 231.351 236.219 231.128C236.441 230.905 236.714 230.794 237.036 230.794C237.358 230.794 237.631 230.905 237.854 231.128C238.076 231.351 238.188 231.623 238.188 231.945C238.188 232.268 238.076 232.54 237.854 232.763ZM237.854 226.355C237.631 226.578 237.358 226.689 237.036 226.689C236.714 226.689 236.441 226.578 236.219 226.355C235.996 226.133 235.885 225.86 235.885 225.538C235.885 225.216 235.996 224.943 236.219 224.721C236.441 224.498 236.714 224.387 237.036 224.387C237.358 224.387 237.631 224.498 237.854 224.721C238.076 224.943 238.188 225.216 238.188 225.538C238.188 225.86 238.076 226.133 237.854 226.355Z" fill="white"/>
<path d="M251.774 233.281C250.415 233.281 249.29 232.918 248.399 232.191C247.515 231.459 247.052 230.519 247.011 229.37H249.463C249.539 229.909 249.791 230.346 250.219 230.68C250.652 231.014 251.177 231.181 251.792 231.181C252.483 231.181 253.046 230.964 253.479 230.53C253.919 230.091 254.139 229.525 254.139 228.834C254.139 228.131 253.922 227.557 253.488 227.111C253.055 226.666 252.495 226.443 251.81 226.443C251.329 226.443 250.893 226.549 250.5 226.76C250.113 226.965 249.809 227.249 249.586 227.612H247.213L247.837 220.317H255.905V222.427H249.92L249.63 225.898H249.683C249.946 225.465 250.321 225.125 250.808 224.879C251.3 224.633 251.865 224.51 252.504 224.51C253.717 224.51 254.713 224.911 255.492 225.714C256.277 226.511 256.67 227.527 256.67 228.764C256.67 230.105 256.216 231.195 255.308 232.033C254.405 232.865 253.228 233.281 251.774 233.281ZM269.565 231.497C268.657 232.687 267.406 233.281 265.812 233.281C264.219 233.281 262.965 232.689 262.051 231.506C261.137 230.316 260.679 228.693 260.679 226.637C260.679 224.592 261.137 222.98 262.051 221.803C262.971 220.619 264.224 220.027 265.812 220.027C267.4 220.027 268.651 220.616 269.565 221.794C270.479 222.972 270.936 224.583 270.936 226.628C270.936 228.679 270.479 230.302 269.565 231.497ZM264.019 229.968C264.453 230.759 265.051 231.154 265.812 231.154C266.574 231.154 267.169 230.762 267.596 229.977C268.024 229.186 268.238 228.072 268.238 226.637C268.238 225.213 268.021 224.111 267.588 223.332C267.16 222.547 266.568 222.154 265.812 222.154C265.056 222.154 264.462 222.547 264.028 223.332C263.595 224.117 263.378 225.219 263.378 226.637C263.378 228.066 263.592 229.177 264.019 229.968ZM284.218 228.711H279.525C279.841 229.455 280.334 230.026 281.002 230.425C281.67 230.817 282.458 231.014 283.366 231.014C284.198 231.014 284.801 230.967 285.176 230.873V233.088C284.696 233.188 284.089 233.237 283.357 233.237C281.646 233.237 280.208 232.845 279.042 232.06C277.881 231.269 277.111 230.152 276.73 228.711H275.113V227.322H276.502C276.484 227.1 276.475 226.877 276.475 226.654C276.475 226.514 276.481 226.309 276.493 226.039H275.113V224.65H276.712C277.087 223.191 277.858 222.066 279.024 221.275C280.196 220.479 281.64 220.08 283.357 220.08C284.084 220.08 284.678 220.147 285.141 220.282V222.471C284.661 222.365 284.081 222.312 283.401 222.312C282.481 222.312 281.681 222.515 281.002 222.919C280.322 223.317 279.824 223.895 279.507 224.65H284.218V226.039H279.165C279.147 226.238 279.138 226.443 279.138 226.654C279.138 226.912 279.15 227.135 279.173 227.322H284.218V228.711ZM297.37 235.725H294.997L299.506 220.317H301.87L297.37 235.725ZM317.782 233V230.741H311.471V228.482C312.503 226.514 314.199 223.792 316.56 220.317H320.304V228.614H321.957V230.741H320.304V233H317.782ZM313.801 228.623V228.693H317.835V222.198H317.782C316.804 223.628 316.018 224.82 315.427 225.775C314.835 226.725 314.293 227.674 313.801 228.623ZM330.985 233.281C329.626 233.281 328.501 232.918 327.61 232.191C326.725 231.459 326.262 230.519 326.221 229.37H328.673C328.75 229.909 329.002 230.346 329.429 230.68C329.863 231.014 330.387 231.181 331.003 231.181C331.694 231.181 332.256 230.964 332.69 230.53C333.129 230.091 333.349 229.525 333.349 228.834C333.349 228.131 333.132 227.557 332.699 227.111C332.265 226.666 331.706 226.443 331.02 226.443C330.54 226.443 330.103 226.549 329.711 226.76C329.324 226.965 329.019 227.249 328.796 227.612H326.423L327.047 220.317H335.116V222.427H329.13L328.84 225.898H328.893C329.157 225.465 329.532 225.125 330.018 224.879C330.51 224.633 331.076 224.51 331.714 224.51C332.927 224.51 333.923 224.911 334.703 225.714C335.488 226.511 335.88 227.527 335.88 228.764C335.88 230.105 335.426 231.195 334.518 232.033C333.616 232.865 332.438 233.281 330.985 233.281ZM348.776 231.497C347.868 232.687 346.617 233.281 345.023 233.281C343.429 233.281 342.175 232.689 341.261 231.506C340.347 230.316 339.89 228.693 339.89 226.637C339.89 224.592 340.347 222.98 341.261 221.803C342.181 220.619 343.435 220.027 345.023 220.027C346.611 220.027 347.862 220.616 348.776 221.794C349.69 222.972 350.147 224.583 350.147 226.628C350.147 228.679 349.69 230.302 348.776 231.497ZM343.23 229.968C343.663 230.759 344.261 231.154 345.023 231.154C345.785 231.154 346.379 230.762 346.807 229.977C347.235 229.186 347.449 228.072 347.449 226.637C347.449 225.213 347.232 224.111 346.798 223.332C346.371 222.547 345.779 222.154 345.023 222.154C344.267 222.154 343.672 222.547 343.239 223.332C342.805 224.117 342.588 225.219 342.588 226.637C342.588 228.066 342.802 229.177 343.23 229.968ZM363.2 231.497C362.292 232.687 361.041 233.281 359.447 233.281C357.854 233.281 356.6 232.689 355.686 231.506C354.772 230.316 354.315 228.693 354.315 226.637C354.315 224.592 354.772 222.98 355.686 221.803C356.606 220.619 357.86 220.027 359.447 220.027C361.035 220.027 362.286 220.616 363.2 221.794C364.114 222.972 364.571 224.583 364.571 226.628C364.571 228.679 364.114 230.302 363.2 231.497ZM357.654 229.968C358.088 230.759 358.686 231.154 359.447 231.154C360.209 231.154 360.804 230.762 361.232 229.977C361.659 229.186 361.873 228.072 361.873 226.637C361.873 225.213 361.656 224.111 361.223 223.332C360.795 222.547 360.203 222.154 359.447 222.154C358.692 222.154 358.097 222.547 357.663 223.332C357.23 224.117 357.013 225.219 357.013 226.637C357.013 228.066 357.227 229.177 357.654 229.968ZM372.747 222.427V226.391H374.276C375.032 226.391 375.609 226.218 376.008 225.872C376.412 225.521 376.614 225.031 376.614 224.404C376.614 223.783 376.415 223.3 376.017 222.954C375.618 222.603 375.044 222.427 374.294 222.427H372.747ZM376.184 231.304H372.747V233H370.093V231.304H368.502V229.669H370.093V228.368H368.502V226.426H370.093V220.317H375.085C376.345 220.317 377.361 220.695 378.135 221.451C378.914 222.207 379.304 223.183 379.304 224.378C379.304 225.556 378.899 226.522 378.091 227.278C377.282 228.034 376.233 228.412 374.944 228.412H372.747V229.669H376.184V231.304Z" fill="white"/>
<path d="M223.58 201.388H226.138C226.196 201.903 226.469 202.322 226.955 202.645C227.447 202.961 228.048 203.119 228.757 203.119C229.46 203.119 230.031 202.97 230.471 202.671C230.916 202.366 231.139 201.979 231.139 201.511C231.139 201.101 230.975 200.77 230.646 200.518C230.318 200.266 229.771 200.055 229.003 199.885L227.351 199.524C225.024 199.026 223.861 197.846 223.861 195.982C223.861 194.822 224.312 193.885 225.215 193.17C226.123 192.455 227.289 192.098 228.713 192.098C230.178 192.098 231.347 192.446 232.22 193.144C233.093 193.835 233.541 194.758 233.564 195.912H231.077C231.036 195.379 230.799 194.96 230.365 194.655C229.938 194.345 229.39 194.189 228.722 194.189C228.065 194.189 227.535 194.333 227.131 194.62C226.732 194.907 226.533 195.285 226.533 195.754C226.533 196.141 226.694 196.454 227.017 196.694C227.345 196.935 227.875 197.14 228.607 197.31L230.146 197.635C231.417 197.904 232.343 198.326 232.923 198.9C233.503 199.469 233.793 200.236 233.793 201.203C233.793 202.434 233.33 203.412 232.404 204.139C231.479 204.859 230.228 205.22 228.651 205.22C227.122 205.22 225.903 204.88 224.995 204.2C224.093 203.515 223.621 202.577 223.58 201.388ZM243.814 205H241.16V194.506H237.495V192.317H247.488V194.506H243.814V205ZM258.239 205L257.272 201.924H252.816L251.849 205H249.125L253.528 192.317H256.648L261.06 205H258.239ZM255.013 194.743L253.387 199.938H256.701L255.075 194.743H255.013ZM267.601 205H265.061V192.317H267.276L273.2 200.579H273.27V192.317H275.81V205H273.613L267.68 196.694H267.601V205ZM280.628 192.317H285.471C287.381 192.317 288.866 192.865 289.927 193.961C290.987 195.057 291.518 196.606 291.518 198.61C291.518 200.62 290.985 202.188 289.918 203.312C288.858 204.438 287.375 205 285.471 205H280.628V192.317ZM283.282 194.506V202.803H285.154C286.344 202.803 287.249 202.448 287.87 201.739C288.497 201.024 288.811 199.984 288.811 198.619C288.811 197.295 288.494 196.278 287.862 195.569C287.229 194.86 286.326 194.506 285.154 194.506H283.282ZM303.71 205L302.743 201.924H298.287L297.32 205H294.596L298.999 192.317H302.119L306.531 205H303.71ZM300.484 194.743L298.858 199.938H302.172L300.546 194.743H300.484ZM313.186 194.392V198.435H315.471C316.139 198.435 316.658 198.256 317.027 197.898C317.402 197.541 317.59 197.046 317.59 196.413C317.59 195.798 317.396 195.309 317.01 194.945C316.623 194.576 316.101 194.392 315.445 194.392H313.186ZM313.186 200.359V205H310.532V192.317H315.726C317.174 192.317 318.299 192.678 319.101 193.398C319.91 194.113 320.314 195.101 320.314 196.36C320.314 197.187 320.109 197.925 319.699 198.575C319.295 199.22 318.732 199.683 318.012 199.964L320.683 205H317.678L315.313 200.359H313.186ZM330.45 205H327.796V194.506H324.13V192.317H334.124V194.506H330.45V205Z" fill="white"/>
<defs>
<filter id="filter0_d_1_5" x="0" y="0" width="539" height="337" filterUnits="userSpaceOnUse" color-interpolation-filters="sRGB">
<feFlood flood-opacity="0" result="BackgroundImageFix"/>
<feColorMatrix in="SourceAlpha" type="matrix" values="0 0 0 0 0 0 0 0 0 0 0 0 0 0 0 0 0 0 127 0" result="hardAlpha"/>
<feOffset/>
<feGaussianBlur stdDeviation="10"/>
<feComposite in2="hardAlpha" operator="out"/>
<feColorMatrix type="matrix" values="0 0 0 0 0 0 0 0 0 0 0 0 0 0 0 0 0 0 0.4 0"/>
<feBlend mode="normal" in2="BackgroundImageFix" result="effect1_dropShadow_1_5"/>
<feBlend mode="normal" in="SourceGraphic" in2="effect1_dropShadow_1_5" result="shape"/>
</filter>
</defs>
</svg>
