<svg width="320" height="229" viewBox="0 0 320 229" fill="none" xmlns="http://www.w3.org/2000/svg">
<g filter="url(#filter0_d_1_5)">
<path d="M101.706 36L121.106 0.299998H125.806L130.206 36H125.806L124.456 24.9H112.406L106.606 36H101.706ZM114.556 20.9H124.006L123.206 13.4C123.072 12.1333 122.939 10.7333 122.806 9.2C122.706 7.66667 122.639 6.31667 122.606 5.15H122.456C121.922 6.41666 121.306 7.78333 120.606 9.25C119.906 10.6833 119.172 12.1333 118.406 13.6L114.556 20.9ZM132.482 36.35C132.049 36.35 131.649 36.3 131.282 36.2C130.915 36.1333 130.632 36.0667 130.432 36V32.2C130.665 32.3 130.915 32.3833 131.182 32.45C131.449 32.4833 131.749 32.5 132.082 32.5C132.882 32.5 133.582 32.3167 134.182 31.95C134.815 31.55 135.399 30.9333 135.932 30.1C136.465 29.2667 136.999 28.1833 137.532 26.85C138.099 25.5167 138.699 23.9167 139.332 22.05C140.099 19.8167 140.832 17.8833 141.532 16.25C142.232 14.6167 143.015 13.2667 143.882 12.2C144.782 11.1 145.882 10.2833 147.182 9.75C148.482 9.21667 150.099 8.95 152.032 8.95C153.165 8.95 154.265 9.03333 155.332 9.2C156.399 9.33333 157.365 9.53333 158.232 9.8L152.632 36H148.182L153.232 12.85C152.999 12.7833 152.715 12.7333 152.382 12.7C152.049 12.6667 151.699 12.65 151.332 12.65C149.965 12.65 148.849 12.9833 147.982 13.65C147.149 14.2833 146.382 15.3833 145.682 16.95C144.982 18.5167 144.149 20.7167 143.182 23.55C142.449 25.6167 141.749 27.45 141.082 29.05C140.415 30.6167 139.699 31.95 138.932 33.05C138.165 34.1167 137.265 34.9333 136.232 35.5C135.199 36.0667 133.949 36.35 132.482 36.35ZM159.679 36.35C159.246 36.35 158.846 36.3 158.479 36.2C158.112 36.1333 157.829 36.0667 157.629 36V32.2C157.862 32.3 158.112 32.3833 158.379 32.45C158.646 32.4833 158.946 32.5 159.279 32.5C160.079 32.5 160.779 32.3167 161.379 31.95C162.012 31.55 162.596 30.9333 163.129 30.1C163.662 29.2667 164.196 28.1833 164.729 26.85C165.296 25.5167 165.896 23.9167 166.529 22.05C167.296 19.8167 168.029 17.8833 168.729 16.25C169.429 14.6167 170.212 13.2667 171.079 12.2C171.979 11.1 173.079 10.2833 174.379 9.75C175.679 9.21667 177.296 8.95 179.229 8.95C180.362 8.95 181.462 9.03333 182.529 9.2C183.596 9.33333 184.562 9.53333 185.429 9.8L179.829 36H175.379L180.429 12.85C180.196 12.7833 179.912 12.7333 179.579 12.7C179.246 12.6667 178.896 12.65 178.529 12.65C177.162 12.65 176.046 12.9833 175.179 13.65C174.346 14.2833 173.579 15.3833 172.879 16.95C172.179 18.5167 171.346 20.7167 170.379 23.55C169.646 25.6167 168.946 27.45 168.279 29.05C167.612 30.6167 166.896 31.95 166.129 33.05C165.362 34.1167 164.462 34.9333 163.429 35.5C162.396 36.0667 161.146 36.35 159.679 36.35ZM196.676 36.5C195.243 36.5 193.976 36.1667 192.876 35.5C191.81 34.8 190.96 33.7667 190.326 32.4C189.726 31.0333 189.426 29.35 189.426 27.35C189.426 25.35 189.626 23.4333 190.026 21.6C190.46 19.7333 191.06 18.0167 191.826 16.45C192.593 14.8833 193.51 13.5333 194.576 12.4C195.676 11.2333 196.893 10.3333 198.226 9.7C199.593 9.03333 201.043 8.7 202.576 8.7C203.743 8.7 204.76 8.91667 205.626 9.35C206.526 9.78333 207.276 10.35 207.876 11.05C208.476 11.75 208.96 12.5167 209.326 13.35H209.576L211.176 9.2H214.526L208.826 36H205.326L205.976 31.05H205.776C205.01 32.0167 204.16 32.9167 203.226 33.75C202.293 34.5833 201.276 35.25 200.176 35.75C199.11 36.25 197.943 36.5 196.676 36.5ZM198.126 32.85C199.36 32.85 200.56 32.4 201.726 31.5C202.926 30.6 204.01 29.3833 204.976 27.85C205.943 26.3167 206.676 24.6 207.176 22.7C207.443 21.7333 207.61 20.85 207.676 20.05C207.776 19.2167 207.826 18.45 207.826 17.75C207.826 16.1833 207.393 14.9 206.526 13.9C205.66 12.9 204.493 12.4 203.026 12.4C201.993 12.4 201.01 12.6667 200.076 13.2C199.176 13.7333 198.343 14.4833 197.576 15.45C196.81 16.3833 196.16 17.4833 195.626 18.75C195.093 20.0167 194.676 21.4 194.376 22.9C194.076 24.3667 193.926 25.8833 193.926 27.45C193.926 29.25 194.293 30.6 195.026 31.5C195.76 32.4 196.793 32.85 198.126 32.85ZM57.9961 81L65.5461 45.3H71.8461L75.2961 74.45H75.4961L91.3461 45.3H98.1961L90.7961 81H86.2961L90.7961 59.8C91.1294 58.3333 91.4294 56.9667 91.6961 55.7C91.9961 54.4333 92.2628 53.2833 92.4961 52.25C92.7628 51.2167 92.9961 50.35 93.1961 49.65H93.0961L75.8961 81H72.3461L68.5461 49.7H68.3461C68.2794 50.3667 68.1628 51.2667 67.9961 52.4C67.8294 53.5 67.6294 54.6833 67.3961 55.95C67.1961 57.1833 66.9794 58.3833 66.7461 59.55L62.1961 81H57.9961ZM110.137 81.5C108.07 81.5 106.304 81.1 104.837 80.3C103.404 79.4667 102.304 78.3 101.537 76.8C100.804 75.2667 100.437 73.4667 100.437 71.4C100.437 69.2667 100.737 67.1667 101.337 65.1C101.97 63 102.87 61.1 104.037 59.4C105.204 57.6667 106.604 56.2833 108.237 55.25C109.904 54.2167 111.77 53.7 113.837 53.7C116.37 53.7 118.27 54.25 119.537 55.35C120.837 56.45 121.487 57.9833 121.487 59.95C121.487 61.25 121.187 62.4833 120.587 63.65C119.987 64.7833 119.054 65.7833 117.787 66.65C116.52 67.5167 114.904 68.2 112.937 68.7C110.97 69.1667 108.604 69.4 105.837 69.4H104.987C104.954 69.7 104.92 70.0167 104.887 70.35C104.887 70.6833 104.887 70.9833 104.887 71.25C104.887 73.2833 105.387 74.9 106.387 76.1C107.387 77.2667 108.904 77.85 110.937 77.85C112.204 77.85 113.404 77.6667 114.537 77.3C115.67 76.9333 116.904 76.4333 118.237 75.8V79.55C116.97 80.1167 115.72 80.5833 114.487 80.95C113.287 81.3167 111.837 81.5 110.137 81.5ZM105.987 65.85C107.987 65.85 109.837 65.6833 111.537 65.35C113.237 64.9833 114.604 64.4 115.637 63.6C116.67 62.7667 117.187 61.6667 117.187 60.3C117.187 59.4333 116.887 58.7333 116.287 58.2C115.72 57.6333 114.82 57.35 113.587 57.35C112.52 57.35 111.47 57.6833 110.437 58.35C109.404 59.0167 108.47 59.9833 107.637 61.25C106.804 62.5167 106.137 64.05 105.637 65.85H105.987ZM122.838 81.35C122.405 81.35 122.005 81.3 121.638 81.2C121.272 81.1333 120.988 81.0667 120.788 81V77.2C121.022 77.3 121.272 77.3833 121.538 77.45C121.805 77.4833 122.105 77.5 122.438 77.5C123.238 77.5 123.938 77.3167 124.538 76.95C125.172 76.55 125.755 75.9333 126.288 75.1C126.822 74.2667 127.355 73.1833 127.888 71.85C128.455 70.5167 129.055 68.9167 129.688 67.05C130.455 64.8167 131.188 62.8833 131.888 61.25C132.588 59.6167 133.372 58.2667 134.238 57.2C135.138 56.1 136.238 55.2833 137.538 54.75C138.838 54.2167 140.455 53.95 142.388 53.95C143.522 53.95 144.622 54.0333 145.688 54.2C146.755 54.3333 147.722 54.5333 148.588 54.8L142.988 81H138.538L143.588 57.85C143.355 57.7833 143.072 57.7333 142.738 57.7C142.405 57.6667 142.055 57.65 141.688 57.65C140.322 57.65 139.205 57.9833 138.338 58.65C137.505 59.2833 136.738 60.3833 136.038 61.95C135.338 63.5167 134.505 65.7167 133.538 68.55C132.805 70.6167 132.105 72.45 131.438 74.05C130.772 75.6167 130.055 76.95 129.288 78.05C128.522 79.1167 127.622 79.9333 126.588 80.5C125.555 81.0667 124.305 81.35 122.838 81.35ZM150.036 81.35C149.602 81.35 149.202 81.3 148.836 81.2C148.469 81.1333 148.186 81.0667 147.986 81V77.2C148.219 77.3 148.469 77.3833 148.736 77.45C149.002 77.4833 149.302 77.5 149.636 77.5C150.436 77.5 151.136 77.3167 151.736 76.95C152.369 76.55 152.952 75.9333 153.486 75.1C154.019 74.2667 154.552 73.1833 155.086 71.85C155.652 70.5167 156.252 68.9167 156.886 67.05C157.652 64.8167 158.386 62.8833 159.086 61.25C159.786 59.6167 160.569 58.2667 161.436 57.2C162.336 56.1 163.436 55.2833 164.736 54.75C166.036 54.2167 167.652 53.95 169.586 53.95C170.719 53.95 171.819 54.0333 172.886 54.2C173.952 54.3333 174.919 54.5333 175.786 54.8L170.186 81H165.736L170.786 57.85C170.552 57.7833 170.269 57.7333 169.936 57.7C169.602 57.6667 169.252 57.65 168.886 57.65C167.519 57.65 166.402 57.9833 165.536 58.65C164.702 59.2833 163.936 60.3833 163.236 61.95C162.536 63.5167 161.702 65.7167 160.736 68.55C160.002 70.6167 159.302 72.45 158.636 74.05C157.969 75.6167 157.252 76.95 156.486 78.05C155.719 79.1167 154.819 79.9333 153.786 80.5C152.752 81.0667 151.502 81.35 150.036 81.35ZM187.033 81.5C185.599 81.5 184.333 81.1667 183.233 80.5C182.166 79.8 181.316 78.7667 180.683 77.4C180.083 76.0333 179.783 74.35 179.783 72.35C179.783 70.35 179.983 68.4333 180.383 66.6C180.816 64.7333 181.416 63.0167 182.183 61.45C182.949 59.8833 183.866 58.5333 184.933 57.4C186.033 56.2333 187.249 55.3333 188.583 54.7C189.949 54.0333 191.399 53.7 192.933 53.7C194.099 53.7 195.116 53.9167 195.983 54.35C196.883 54.7833 197.633 55.35 198.233 56.05C198.833 56.75 199.316 57.5167 199.683 58.35H199.933L201.533 54.2H204.883L199.183 81H195.683L196.333 76.05H196.133C195.366 77.0167 194.516 77.9167 193.583 78.75C192.649 79.5833 191.633 80.25 190.533 80.75C189.466 81.25 188.299 81.5 187.033 81.5ZM188.483 77.85C189.716 77.85 190.916 77.4 192.083 76.5C193.283 75.6 194.366 74.3833 195.333 72.85C196.299 71.3167 197.033 69.6 197.533 67.7C197.799 66.7333 197.966 65.85 198.033 65.05C198.133 64.2167 198.183 63.45 198.183 62.75C198.183 61.1833 197.749 59.9 196.883 58.9C196.016 57.9 194.849 57.4 193.383 57.4C192.349 57.4 191.366 57.6667 190.433 58.2C189.533 58.7333 188.699 59.4833 187.933 60.45C187.166 61.3833 186.516 62.4833 185.983 63.75C185.449 65.0167 185.033 66.4 184.733 67.9C184.433 69.3667 184.283 70.8833 184.283 72.45C184.283 74.25 184.649 75.6 185.383 76.5C186.116 77.4 187.149 77.85 188.483 77.85ZM207.201 81L212.901 54.2H217.251L214.951 65.35H227.551L229.951 54.2H234.351L228.701 81H224.251L226.751 69H214.151L211.601 81H207.201ZM248.23 81.4C246.163 81.4 244.38 80.9833 242.88 80.15C241.38 79.3167 240.23 78.1333 239.43 76.6C238.63 75.0333 238.23 73.2 238.23 71.1C238.23 69.4667 238.413 67.8333 238.78 66.2C239.147 64.5333 239.68 62.9667 240.38 61.5C241.113 60.0333 242.013 58.7333 243.08 57.6C244.147 56.4333 245.397 55.5167 246.83 54.85C248.263 54.1833 249.863 53.85 251.63 53.85C253.73 53.85 255.513 54.2667 256.98 55.1C258.48 55.9333 259.63 57.1333 260.43 58.7C261.23 60.2333 261.63 62.0667 261.63 64.2C261.63 65.8333 261.447 67.4667 261.08 69.1C260.713 70.7333 260.163 72.3 259.43 73.8C258.73 75.2667 257.847 76.5667 256.78 77.7C255.713 78.8333 254.463 79.7333 253.03 80.4C251.597 81.0667 249.997 81.4 248.23 81.4ZM248.48 77.75C249.447 77.75 250.347 77.55 251.18 77.15C252.047 76.75 252.847 76.1667 253.58 75.4C254.313 74.6 254.93 73.6333 255.43 72.5C255.963 71.3333 256.38 70.0167 256.68 68.55C256.98 67.0833 257.13 65.4667 257.13 63.7C257.13 62.7 256.947 61.7333 256.58 60.8C256.247 59.8333 255.68 59.05 254.88 58.45C254.08 57.8167 253.013 57.5 251.68 57.5C250.58 57.5 249.563 57.7333 248.63 58.2C247.697 58.6667 246.863 59.3333 246.13 60.2C245.397 61.0333 244.763 62.0333 244.23 63.2C243.73 64.3333 243.347 65.5833 243.08 66.95C242.813 68.3167 242.68 69.75 242.68 71.25C242.68 73.3167 243.18 74.9167 244.18 76.05C245.213 77.1833 246.647 77.75 248.48 77.75Z" fill="white"/>
</g>
<g filter="url(#filter1_d_1_5)">
<path d="M91.5628 127.26C90.5402 127.26 89.6388 127.069 88.8588 126.688C88.0788 126.307 87.4722 125.735 87.0388 124.972C86.6055 124.192 86.3888 123.221 86.3888 122.06C86.3888 121.055 86.4928 120.101 86.7008 119.2C86.9262 118.281 87.2468 117.432 87.6628 116.652C88.0788 115.872 88.5815 115.196 89.1708 114.624C89.7602 114.052 90.4275 113.61 91.1728 113.298C91.9355 112.969 92.7675 112.804 93.6688 112.804C94.2755 112.804 94.8822 112.865 95.4888 112.986C96.0955 113.107 96.6415 113.272 97.1268 113.48L96.4768 115.378C96.1302 115.222 95.7142 115.075 95.2288 114.936C94.7608 114.797 94.2495 114.728 93.6948 114.728C93.1055 114.728 92.5508 114.858 92.0308 115.118C91.5282 115.361 91.0688 115.707 90.6528 116.158C90.2542 116.609 89.9075 117.146 89.6128 117.77C89.3355 118.377 89.1188 119.044 88.9628 119.772C88.8068 120.483 88.7288 121.237 88.7288 122.034C88.7288 122.727 88.8502 123.325 89.0928 123.828C89.3355 124.331 89.6822 124.712 90.1328 124.972C90.6008 125.232 91.1555 125.362 91.7968 125.362C92.4035 125.362 92.9755 125.275 93.5128 125.102C94.0675 124.929 94.6135 124.729 95.1508 124.504V126.428C94.6655 126.671 94.1195 126.87 93.5128 127.026C92.9235 127.182 92.2735 127.26 91.5628 127.26ZM102.85 127L105.814 113.064H107.686L107.4 115.638H107.53C107.842 115.205 108.206 114.771 108.622 114.338C109.055 113.905 109.549 113.541 110.104 113.246C110.676 112.951 111.317 112.804 112.028 112.804C112.981 112.804 113.709 113.081 114.212 113.636C114.732 114.173 115.044 114.927 115.148 115.898H115.252C115.599 115.378 116.006 114.884 116.474 114.416C116.959 113.948 117.497 113.567 118.086 113.272C118.675 112.96 119.325 112.804 120.036 112.804C121.111 112.804 121.943 113.099 122.532 113.688C123.121 114.277 123.416 115.127 123.416 116.236C123.416 116.652 123.39 117.042 123.338 117.406C123.286 117.753 123.217 118.125 123.13 118.524L121.336 127H119.022L120.894 118.264C120.981 117.865 121.041 117.527 121.076 117.25C121.111 116.973 121.128 116.704 121.128 116.444C121.128 115.924 120.981 115.508 120.686 115.196C120.409 114.884 119.967 114.728 119.36 114.728C118.944 114.728 118.502 114.849 118.034 115.092C117.566 115.317 117.107 115.673 116.656 116.158C116.205 116.643 115.798 117.267 115.434 118.03C115.07 118.775 114.775 119.668 114.55 120.708L113.224 127H110.936L112.782 118.264C112.869 117.865 112.929 117.536 112.964 117.276C112.999 116.999 113.016 116.756 113.016 116.548C113.016 115.976 112.886 115.534 112.626 115.222C112.366 114.893 111.933 114.728 111.326 114.728C110.91 114.728 110.459 114.841 109.974 115.066C109.506 115.291 109.047 115.655 108.596 116.158C108.145 116.643 107.729 117.285 107.348 118.082C106.967 118.879 106.655 119.85 106.412 120.994L105.138 127H102.85ZM134.986 127.26C134.293 127.26 133.677 127.13 133.14 126.87C132.62 126.61 132.213 126.22 131.918 125.7C131.641 125.18 131.502 124.547 131.502 123.802C131.502 123.403 131.528 123.031 131.58 122.684C131.649 122.32 131.719 121.947 131.788 121.566L133.608 113.064H135.922L134.05 121.826C133.981 122.207 133.92 122.537 133.868 122.814C133.833 123.091 133.816 123.343 133.816 123.568C133.816 124.123 133.955 124.565 134.232 124.894C134.527 125.206 134.995 125.362 135.636 125.362C136.225 125.362 136.858 125.154 137.534 124.738C138.227 124.322 138.869 123.655 139.458 122.736C140.047 121.817 140.507 120.595 140.836 119.07L142.11 113.064H144.372L141.408 127H139.536L139.822 124.426H139.692C139.363 124.842 138.973 125.275 138.522 125.726C138.089 126.159 137.577 126.523 136.988 126.818C136.416 127.113 135.749 127.26 134.986 127.26ZM150.251 127.182C150.025 127.182 149.817 127.156 149.627 127.104C149.436 127.069 149.289 127.035 149.185 127V125.024C149.306 125.076 149.436 125.119 149.575 125.154C149.713 125.171 149.869 125.18 150.043 125.18C150.459 125.18 150.823 125.085 151.135 124.894C151.464 124.686 151.767 124.365 152.045 123.932C152.322 123.499 152.599 122.935 152.877 122.242C153.171 121.549 153.483 120.717 153.813 119.746C154.211 118.585 154.593 117.579 154.957 116.73C155.321 115.881 155.728 115.179 156.179 114.624C156.647 114.052 157.219 113.627 157.895 113.35C158.571 113.073 159.411 112.934 160.417 112.934C161.006 112.934 161.578 112.977 162.133 113.064C162.687 113.133 163.19 113.237 163.641 113.376L160.729 127H158.415L161.041 114.962C160.919 114.927 160.772 114.901 160.599 114.884C160.425 114.867 160.243 114.858 160.053 114.858C159.342 114.858 158.761 115.031 158.311 115.378C157.877 115.707 157.479 116.279 157.115 117.094C156.751 117.909 156.317 119.053 155.815 120.526C155.433 121.601 155.069 122.554 154.723 123.386C154.376 124.201 154.003 124.894 153.605 125.466C153.206 126.021 152.738 126.445 152.201 126.74C151.663 127.035 151.013 127.182 150.251 127.182ZM174.585 127.26C173.892 127.26 173.277 127.13 172.739 126.87C172.219 126.61 171.812 126.22 171.517 125.7C171.24 125.18 171.101 124.547 171.101 123.802C171.101 123.403 171.127 123.031 171.179 122.684C171.249 122.32 171.318 121.947 171.387 121.566L173.207 113.064H175.521L173.649 121.826C173.58 122.207 173.519 122.537 173.467 122.814C173.433 123.091 173.415 123.343 173.415 123.568C173.415 124.123 173.554 124.565 173.831 124.894C174.126 125.206 174.594 125.362 175.235 125.362C175.825 125.362 176.457 125.154 177.133 124.738C177.827 124.322 178.468 123.655 179.057 122.736C179.647 121.817 180.106 120.595 180.435 119.07L181.709 113.064H183.971L181.007 127H179.135L179.421 124.426H179.291C178.962 124.842 178.572 125.275 178.121 125.726C177.688 126.159 177.177 126.523 176.587 126.818C176.015 127.113 175.348 127.26 174.585 127.26ZM196.35 127.26C195.327 127.26 194.426 127.069 193.646 126.688C192.866 126.307 192.259 125.735 191.826 124.972C191.393 124.192 191.176 123.221 191.176 122.06C191.176 121.055 191.28 120.101 191.488 119.2C191.713 118.281 192.034 117.432 192.45 116.652C192.866 115.872 193.369 115.196 193.958 114.624C194.547 114.052 195.215 113.61 195.96 113.298C196.723 112.969 197.555 112.804 198.456 112.804C199.063 112.804 199.669 112.865 200.276 112.986C200.883 113.107 201.429 113.272 201.914 113.48L201.264 115.378C200.917 115.222 200.501 115.075 200.016 114.936C199.548 114.797 199.037 114.728 198.482 114.728C197.893 114.728 197.338 114.858 196.818 115.118C196.315 115.361 195.856 115.707 195.44 116.158C195.041 116.609 194.695 117.146 194.4 117.77C194.123 118.377 193.906 119.044 193.75 119.772C193.594 120.483 193.516 121.237 193.516 122.034C193.516 122.727 193.637 123.325 193.88 123.828C194.123 124.331 194.469 124.712 194.92 124.972C195.388 125.232 195.943 125.362 196.584 125.362C197.191 125.362 197.763 125.275 198.3 125.102C198.855 124.929 199.401 124.729 199.938 124.504V126.428C199.453 126.671 198.907 126.87 198.3 127.026C197.711 127.182 197.061 127.26 196.35 127.26ZM207.637 127L210.601 113.064H212.473L212.187 115.638H212.317C212.629 115.205 212.993 114.771 213.409 114.338C213.843 113.905 214.337 113.541 214.891 113.246C215.463 112.951 216.105 112.804 216.815 112.804C217.769 112.804 218.497 113.081 218.999 113.636C219.519 114.173 219.831 114.927 219.935 115.898H220.039C220.386 115.378 220.793 114.884 221.261 114.416C221.747 113.948 222.284 113.567 222.873 113.272C223.463 112.96 224.113 112.804 224.823 112.804C225.898 112.804 226.73 113.099 227.319 113.688C227.909 114.277 228.203 115.127 228.203 116.236C228.203 116.652 228.177 117.042 228.125 117.406C228.073 117.753 228.004 118.125 227.917 118.524L226.123 127H223.809L225.681 118.264C225.768 117.865 225.829 117.527 225.863 117.25C225.898 116.973 225.915 116.704 225.915 116.444C225.915 115.924 225.768 115.508 225.473 115.196C225.196 114.884 224.754 114.728 224.147 114.728C223.731 114.728 223.289 114.849 222.821 115.092C222.353 115.317 221.894 115.673 221.443 116.158C220.993 116.643 220.585 117.267 220.221 118.03C219.857 118.775 219.563 119.668 219.337 120.708L218.011 127H215.723L217.569 118.264C217.656 117.865 217.717 117.536 217.751 117.276C217.786 116.999 217.803 116.756 217.803 116.548C217.803 115.976 217.673 115.534 217.413 115.222C217.153 114.893 216.72 114.728 216.113 114.728C215.697 114.728 215.247 114.841 214.761 115.066C214.293 115.291 213.834 115.655 213.383 116.158C212.933 116.643 212.517 117.285 212.135 118.082C211.754 118.879 211.442 119.85 211.199 120.994L209.925 127H207.637ZM53.2333 153.26C52.54 153.26 51.9247 153.13 51.3873 152.87C50.8673 152.61 50.46 152.22 50.1653 151.7C49.888 151.18 49.7493 150.547 49.7493 149.802C49.7493 149.403 49.7753 149.031 49.8273 148.684C49.8967 148.32 49.966 147.947 50.0353 147.566L51.8553 139.064H54.1693L52.2973 147.826C52.228 148.207 52.1673 148.537 52.1153 148.814C52.0807 149.091 52.0633 149.343 52.0633 149.568C52.0633 150.123 52.202 150.565 52.4793 150.894C52.774 151.206 53.242 151.362 53.8833 151.362C54.4727 151.362 55.1053 151.154 55.7813 150.738C56.4747 150.322 57.116 149.655 57.7053 148.736C58.2947 147.817 58.754 146.595 59.0833 145.07L60.3573 139.064H62.6193L59.6553 153H57.7833L58.0693 150.426H57.9393C57.61 150.842 57.22 151.275 56.7693 151.726C56.336 152.159 55.8247 152.523 55.2353 152.818C54.6633 153.113 53.996 153.26 53.2333 153.26ZM69.33 153L72.268 139.09H75.232L76.688 150.14H76.74L82.85 139.09H86.048L83.136 153H81.056L82.746 145.018C82.902 144.359 83.058 143.701 83.214 143.042C83.3873 142.383 83.5433 141.777 83.682 141.222H83.63L77.078 153H75.284L73.698 141.248H73.62C73.5506 141.733 73.4553 142.331 73.334 143.042C73.2126 143.735 73.0826 144.411 72.944 145.07L71.332 153H69.33ZM96.8697 153.26C96.1763 153.26 95.561 153.13 95.0237 152.87C94.5037 152.61 94.0963 152.22 93.8017 151.7C93.5243 151.18 93.3857 150.547 93.3857 149.802C93.3857 149.403 93.4117 149.031 93.4637 148.684C93.533 148.32 93.6023 147.947 93.6717 147.566L95.4917 139.064H97.8057L95.9337 147.826C95.8643 148.207 95.8037 148.537 95.7517 148.814C95.717 149.091 95.6997 149.343 95.6997 149.568C95.6997 150.123 95.8383 150.565 96.1157 150.894C96.4103 151.206 96.8783 151.362 97.5197 151.362C98.109 151.362 98.7417 151.154 99.4177 150.738C100.111 150.322 100.752 149.655 101.342 148.736C101.931 147.817 102.39 146.595 102.72 145.07L103.994 139.064H106.256L103.292 153H101.42L101.706 150.426H101.576C101.246 150.842 100.856 151.275 100.406 151.726C99.9723 152.159 99.461 152.523 98.8717 152.818C98.2997 153.113 97.6323 153.26 96.8697 153.26ZM118.062 153.26C117.057 153.26 116.208 153.052 115.514 152.636C114.838 152.203 114.327 151.605 113.98 150.842C113.634 150.079 113.46 149.195 113.46 148.19C113.46 147.393 113.547 146.595 113.72 145.798C113.894 144.983 114.154 144.212 114.5 143.484C114.864 142.739 115.306 142.08 115.826 141.508C116.346 140.936 116.944 140.485 117.62 140.156C118.314 139.827 119.085 139.662 119.934 139.662C120.628 139.662 121.208 139.766 121.676 139.974C122.144 140.165 122.526 140.433 122.82 140.78C123.132 141.109 123.384 141.473 123.574 141.872H123.652C123.67 141.733 123.678 141.603 123.678 141.482C123.678 141.343 123.678 141.231 123.678 141.144C123.678 139.012 123.392 137.435 122.82 136.412C122.248 135.389 121.373 134.878 120.194 134.878C119.761 134.878 119.293 134.93 118.79 135.034C118.305 135.138 117.863 135.277 117.464 135.45L116.892 133.76C117.308 133.552 117.854 133.37 118.53 133.214C119.206 133.058 119.856 132.98 120.48 132.98C121.763 132.98 122.803 133.292 123.6 133.916C124.415 134.523 125.013 135.424 125.394 136.62C125.793 137.799 125.992 139.255 125.992 140.988C125.992 141.855 125.923 142.765 125.784 143.718C125.646 144.654 125.438 145.581 125.16 146.5C124.883 147.419 124.528 148.285 124.094 149.1C123.678 149.915 123.176 150.634 122.586 151.258C121.997 151.882 121.33 152.376 120.584 152.74C119.839 153.087 118.998 153.26 118.062 153.26ZM118.296 151.336C118.816 151.336 119.293 151.215 119.726 150.972C120.177 150.712 120.584 150.365 120.948 149.932C121.33 149.481 121.668 148.961 121.962 148.372C122.257 147.783 122.508 147.15 122.716 146.474C122.942 145.798 123.124 145.096 123.262 144.368C123.106 143.813 122.881 143.319 122.586 142.886C122.309 142.435 121.962 142.08 121.546 141.82C121.148 141.56 120.68 141.43 120.142 141.43C119.674 141.43 119.224 141.543 118.79 141.768C118.357 141.993 117.958 142.314 117.594 142.73C117.23 143.146 116.91 143.631 116.632 144.186C116.355 144.741 116.138 145.356 115.982 146.032C115.844 146.708 115.774 147.419 115.774 148.164C115.774 149.065 115.965 149.819 116.346 150.426C116.745 151.033 117.395 151.336 118.296 151.336ZM133.283 153.26C133.04 153.26 132.772 153.243 132.477 153.208C132.2 153.173 131.948 153.121 131.723 153.052L132.061 151.18C132.234 151.232 132.434 151.275 132.659 151.31C132.884 151.345 133.101 151.362 133.309 151.362C133.916 151.362 134.462 151.223 134.947 150.946C135.432 150.651 135.866 150.261 136.247 149.776C136.628 149.291 136.94 148.745 137.183 148.138C137.443 147.514 137.634 146.864 137.755 146.188C137.894 145.512 137.963 144.853 137.963 144.212C137.963 143.207 137.772 142.375 137.391 141.716C137.01 141.057 136.368 140.728 135.467 140.728C135.207 140.728 134.956 140.745 134.713 140.78C134.488 140.815 134.254 140.858 134.011 140.91V139.038C134.254 138.986 134.531 138.934 134.843 138.882C135.155 138.83 135.476 138.804 135.805 138.804C137.296 138.804 138.414 139.281 139.159 140.234C139.904 141.17 140.277 142.479 140.277 144.16C140.277 144.316 140.268 144.481 140.251 144.654C140.251 144.81 140.242 144.957 140.225 145.096H142.357L143.631 139.064H145.737L144.437 145.096H146.491C146.647 144.403 146.89 143.692 147.219 142.964C147.548 142.219 147.973 141.534 148.493 140.91C149.03 140.286 149.672 139.783 150.417 139.402C151.18 139.003 152.055 138.804 153.043 138.804C153.338 138.804 153.632 138.821 153.927 138.856C154.222 138.891 154.525 138.951 154.837 139.038L154.421 140.884C154.23 140.832 154.014 140.797 153.771 140.78C153.528 140.745 153.294 140.728 153.069 140.728C152.462 140.728 151.916 140.875 151.431 141.17C150.946 141.447 150.521 141.829 150.157 142.314C149.793 142.799 149.49 143.354 149.247 143.978C149.004 144.585 148.822 145.226 148.701 145.902C148.58 146.561 148.519 147.211 148.519 147.852C148.519 148.857 148.701 149.698 149.065 150.374C149.429 151.033 150.062 151.362 150.963 151.362C151.258 151.362 151.509 151.345 151.717 151.31C151.942 151.275 152.176 151.223 152.419 151.154V153.052C152.194 153.087 151.925 153.13 151.613 153.182C151.301 153.234 150.98 153.26 150.651 153.26C149.663 153.26 148.84 153.052 148.181 152.636C147.522 152.203 147.02 151.587 146.673 150.79C146.344 149.993 146.179 149.031 146.179 147.904C146.179 147.713 146.179 147.531 146.179 147.358C146.196 147.185 146.214 147.011 146.231 146.838H144.073L142.773 153H140.693L142.019 146.838H139.965C139.792 147.618 139.523 148.389 139.159 149.152C138.812 149.915 138.362 150.608 137.807 151.232C137.27 151.856 136.62 152.35 135.857 152.714C135.112 153.078 134.254 153.26 133.283 153.26ZM160.056 153L162.994 139.09H165.958L167.414 150.14H167.466L173.576 139.09H176.774L173.862 153H171.782L173.472 145.018C173.628 144.359 173.784 143.701 173.94 143.042C174.113 142.383 174.269 141.777 174.408 141.222H174.356L167.804 153H166.01L164.424 141.248H164.346C164.276 141.733 164.181 142.331 164.06 143.042C163.938 143.735 163.808 144.411 163.67 145.07L162.058 153H160.056ZM188.973 153.26C187.899 153.26 186.98 153.052 186.217 152.636C185.472 152.203 184.9 151.596 184.501 150.816C184.12 150.019 183.929 149.083 183.929 148.008C183.929 146.899 184.085 145.807 184.397 144.732C184.727 143.64 185.195 142.652 185.801 141.768C186.408 140.867 187.136 140.147 187.985 139.61C188.852 139.073 189.823 138.804 190.897 138.804C192.215 138.804 193.203 139.09 193.861 139.662C194.537 140.234 194.875 141.031 194.875 142.054C194.875 142.73 194.719 143.371 194.407 143.978C194.095 144.567 193.61 145.087 192.951 145.538C192.293 145.989 191.452 146.344 190.429 146.604C189.407 146.847 188.176 146.968 186.737 146.968H186.295C186.278 147.124 186.261 147.289 186.243 147.462C186.243 147.635 186.243 147.791 186.243 147.93C186.243 148.987 186.503 149.828 187.023 150.452C187.543 151.059 188.332 151.362 189.389 151.362C190.048 151.362 190.672 151.267 191.261 151.076C191.851 150.885 192.492 150.625 193.185 150.296V152.246C192.527 152.541 191.877 152.783 191.235 152.974C190.611 153.165 189.857 153.26 188.973 153.26ZM186.815 145.122C187.855 145.122 188.817 145.035 189.701 144.862C190.585 144.671 191.296 144.368 191.833 143.952C192.371 143.519 192.639 142.947 192.639 142.236C192.639 141.785 192.483 141.421 192.171 141.144C191.877 140.849 191.409 140.702 190.767 140.702C190.213 140.702 189.667 140.875 189.129 141.222C188.592 141.569 188.107 142.071 187.673 142.73C187.24 143.389 186.893 144.186 186.633 145.122H186.815ZM210.216 137.244C209.245 137.244 208.457 137.114 207.85 136.854C207.243 136.577 206.801 136.204 206.524 135.736C206.247 135.268 206.108 134.722 206.108 134.098C206.108 133.942 206.117 133.786 206.134 133.63C206.169 133.457 206.195 133.327 206.212 133.24H208.214C208.197 133.379 208.179 133.509 208.162 133.63C208.145 133.734 208.136 133.847 208.136 133.968C208.136 134.453 208.301 134.852 208.63 135.164C208.977 135.459 209.549 135.606 210.346 135.606C211.161 135.606 211.828 135.45 212.348 135.138C212.885 134.809 213.241 134.176 213.414 133.24H215.598C215.442 134.055 215.156 134.765 214.74 135.372C214.324 135.961 213.743 136.421 212.998 136.75C212.27 137.079 211.343 137.244 210.216 137.244ZM205.77 153.26C205.077 153.26 204.461 153.13 203.924 152.87C203.404 152.61 202.997 152.22 202.702 151.7C202.425 151.18 202.286 150.547 202.286 149.802C202.286 149.403 202.312 149.031 202.364 148.684C202.433 148.32 202.503 147.947 202.572 147.566L204.392 139.064H206.706L204.834 147.826C204.765 148.207 204.704 148.537 204.652 148.814C204.617 149.091 204.6 149.343 204.6 149.568C204.6 150.123 204.739 150.565 205.016 150.894C205.311 151.206 205.779 151.362 206.42 151.362C207.009 151.362 207.642 151.154 208.318 150.738C209.011 150.322 209.653 149.655 210.242 148.736C210.831 147.817 211.291 146.595 211.62 145.07L212.894 139.064H215.156L212.192 153H210.32L210.606 150.426H210.476C210.147 150.842 209.757 151.275 209.306 151.726C208.873 152.159 208.361 152.523 207.772 152.818C207.2 153.113 206.533 153.26 205.77 153.26ZM221.841 153L224.779 139.064H227.041L225.611 145.772L232.111 139.064H234.971L228.081 145.954L232.735 153H230.005L225.585 146.058L224.129 153H221.841ZM244.741 153.26C243.667 153.26 242.748 153.052 241.985 152.636C241.24 152.203 240.668 151.596 240.269 150.816C239.888 150.019 239.697 149.083 239.697 148.008C239.697 146.899 239.853 145.807 240.165 144.732C240.495 143.64 240.963 142.652 241.569 141.768C242.176 140.867 242.904 140.147 243.753 139.61C244.62 139.073 245.591 138.804 246.665 138.804C247.983 138.804 248.971 139.09 249.629 139.662C250.305 140.234 250.643 141.031 250.643 142.054C250.643 142.73 250.487 143.371 250.175 143.978C249.863 144.567 249.378 145.087 248.719 145.538C248.061 145.989 247.22 146.344 246.197 146.604C245.175 146.847 243.944 146.968 242.505 146.968H242.063C242.046 147.124 242.029 147.289 242.011 147.462C242.011 147.635 242.011 147.791 242.011 147.93C242.011 148.987 242.271 149.828 242.791 150.452C243.311 151.059 244.1 151.362 245.157 151.362C245.816 151.362 246.44 151.267 247.029 151.076C247.619 150.885 248.26 150.625 248.953 150.296V152.246C248.295 152.541 247.645 152.783 247.003 152.974C246.379 153.165 245.625 153.26 244.741 153.26ZM242.583 145.122C243.623 145.122 244.585 145.035 245.469 144.862C246.353 144.671 247.064 144.368 247.601 143.952C248.139 143.519 248.407 142.947 248.407 142.236C248.407 141.785 248.251 141.421 247.939 141.144C247.645 140.849 247.177 140.702 246.535 140.702C245.981 140.702 245.435 140.875 244.897 141.222C244.36 141.569 243.875 142.071 243.441 142.73C243.008 143.389 242.661 144.186 242.401 145.122H242.583ZM256.052 159.24L260.316 139.064H262.188L261.876 141.664H261.98C262.396 141.144 262.838 140.676 263.306 140.26C263.774 139.827 264.285 139.48 264.84 139.22C265.395 138.96 265.993 138.83 266.634 138.83C267.379 138.83 268.029 139.012 268.584 139.376C269.156 139.723 269.598 140.251 269.91 140.962C270.239 141.655 270.404 142.531 270.404 143.588C270.404 144.611 270.3 145.599 270.092 146.552C269.901 147.505 269.607 148.389 269.208 149.204C268.827 150.001 268.359 150.712 267.804 151.336C267.267 151.943 266.643 152.419 265.932 152.766C265.221 153.095 264.45 153.26 263.618 153.26C262.994 153.26 262.448 153.147 261.98 152.922C261.529 152.697 261.148 152.402 260.836 152.038C260.524 151.674 260.264 151.284 260.056 150.868H259.926C259.909 151.145 259.865 151.535 259.796 152.038C259.727 152.523 259.657 152.922 259.588 153.234L258.314 159.24H256.052ZM263.436 151.362C263.991 151.362 264.502 151.223 264.97 150.946C265.455 150.651 265.889 150.253 266.27 149.75C266.651 149.23 266.972 148.641 267.232 147.982C267.509 147.306 267.717 146.595 267.856 145.85C267.995 145.087 268.064 144.316 268.064 143.536C268.064 142.6 267.873 141.898 267.492 141.43C267.128 140.962 266.582 140.728 265.854 140.728C265.473 140.728 265.083 140.823 264.684 141.014C264.285 141.205 263.895 141.482 263.514 141.846C263.133 142.193 262.777 142.609 262.448 143.094C262.119 143.579 261.824 144.117 261.564 144.706C261.321 145.278 261.131 145.893 260.992 146.552C260.853 147.193 260.784 147.861 260.784 148.554C260.784 149.386 261.001 150.062 261.434 150.582C261.867 151.102 262.535 151.362 263.436 151.362Z" fill="white"/>
</g>
<path d="M7.31092 191.344C7.31092 191.944 7.49692 192.412 7.86892 192.748C7.95292 192.82 8.02492 192.88 8.08492 192.928C8.14492 192.964 8.17492 192.988 8.17492 193L7.59892 193.36C7.25092 193.576 7.04692 193.684 6.98692 193.684C6.92692 193.684 6.83692 193.612 6.71692 193.468C6.59692 193.324 6.47692 193.12 6.35692 192.856C6.24892 192.58 6.19492 192.304 6.19492 192.028C6.19492 191.248 6.42292 190.432 6.87892 189.58C7.33492 188.716 8.00692 187.9 8.89492 187.132C9.25492 186.82 9.60292 186.562 9.93892 186.358C10.2869 186.154 10.5029 186.052 10.5869 186.052C10.6829 186.052 10.7309 186.064 10.7309 186.088C10.7309 186.112 10.6829 186.148 10.5869 186.196C10.4909 186.232 10.3049 186.346 10.0289 186.538C9.76492 186.73 9.47092 186.988 9.14692 187.312C7.92292 188.536 7.31092 189.88 7.31092 191.344ZM10.1549 191.344C10.1549 191.944 10.3409 192.412 10.7129 192.748C10.7969 192.82 10.8689 192.88 10.9289 192.928C10.9889 192.964 11.0189 192.988 11.0189 193L10.4429 193.36C10.0949 193.576 9.89092 193.684 9.83092 193.684C9.77092 193.684 9.68092 193.612 9.56092 193.468C9.44092 193.324 9.32092 193.12 9.20092 192.856C9.09292 192.58 9.03892 192.304 9.03892 192.028C9.03892 191.248 9.26692 190.432 9.72292 189.58C10.1789 188.716 10.8509 187.9 11.7389 187.132C12.0989 186.82 12.4469 186.562 12.7829 186.358C13.1309 186.154 13.3469 186.052 13.4309 186.052C13.5269 186.052 13.5749 186.064 13.5749 186.088C13.5749 186.112 13.5269 186.148 13.4309 186.196C13.3349 186.232 13.1489 186.346 12.8729 186.538C12.6089 186.73 12.3149 186.988 11.9909 187.312C10.7669 188.536 10.1549 189.88 10.1549 191.344ZM10.4978 202L13.2158 189.148H16.1138C17.0378 189.148 17.7818 189.292 18.3458 189.58C18.9098 189.856 19.3178 190.246 19.5698 190.75C19.8338 191.242 19.9658 191.824 19.9658 192.496C19.9658 193.216 19.8458 193.858 19.6058 194.422C19.3658 194.974 19.0058 195.442 18.5258 195.826C18.0458 196.21 17.4518 196.498 16.7438 196.69C16.0478 196.882 15.2378 196.978 14.3138 196.978H13.1618L12.0998 202H10.4978ZM14.5658 195.628C15.3338 195.628 15.9998 195.52 16.5638 195.304C17.1278 195.088 17.5598 194.752 17.8598 194.296C18.1718 193.84 18.3278 193.258 18.3278 192.55C18.3278 191.842 18.1238 191.332 17.7158 191.02C17.3198 190.696 16.7138 190.534 15.8978 190.534H14.5298L13.4498 195.628H14.5658ZM24.3287 202.18C23.5847 202.18 22.9487 202.036 22.4207 201.748C21.9047 201.448 21.5087 201.028 21.2327 200.488C20.9687 199.936 20.8367 199.288 20.8367 198.544C20.8367 197.776 20.9447 197.02 21.1607 196.276C21.3887 195.52 21.7127 194.836 22.1327 194.224C22.5527 193.6 23.0567 193.102 23.6447 192.73C24.2447 192.358 24.9167 192.172 25.6607 192.172C26.5727 192.172 27.2567 192.37 27.7127 192.766C28.1807 193.162 28.4147 193.714 28.4147 194.422C28.4147 194.89 28.3067 195.334 28.0907 195.754C27.8747 196.162 27.5387 196.522 27.0827 196.834C26.6267 197.146 26.0447 197.392 25.3367 197.572C24.6287 197.74 23.7767 197.824 22.7807 197.824H22.4747C22.4627 197.932 22.4507 198.046 22.4387 198.166C22.4387 198.286 22.4387 198.394 22.4387 198.49C22.4387 199.222 22.6187 199.804 22.9787 200.236C23.3387 200.656 23.8847 200.866 24.6167 200.866C25.0727 200.866 25.5047 200.8 25.9127 200.668C26.3207 200.536 26.7647 200.356 27.2447 200.128V201.478C26.7887 201.682 26.3387 201.85 25.8947 201.982C25.4627 202.114 24.9407 202.18 24.3287 202.18ZM22.8347 196.546C23.5547 196.546 24.2207 196.486 24.8327 196.366C25.4447 196.234 25.9367 196.024 26.3087 195.736C26.6807 195.436 26.8667 195.04 26.8667 194.548C26.8667 194.236 26.7587 193.984 26.5427 193.792C26.3387 193.588 26.0147 193.486 25.5707 193.486C25.1867 193.486 24.8087 193.606 24.4367 193.846C24.0647 194.086 23.7287 194.434 23.4287 194.89C23.1287 195.346 22.8887 195.898 22.7087 196.546H22.8347ZM32.4291 202.18C31.9131 202.18 31.4571 202.06 31.0611 201.82C30.6771 201.568 30.3711 201.196 30.1431 200.704C29.9271 200.212 29.8191 199.606 29.8191 198.886C29.8191 198.166 29.8911 197.476 30.0351 196.816C30.1911 196.144 30.4071 195.526 30.6831 194.962C30.9591 194.398 31.2891 193.912 31.6731 193.504C32.0691 193.084 32.5071 192.76 32.9871 192.532C33.4791 192.292 34.0011 192.172 34.5531 192.172C34.9731 192.172 35.3391 192.25 35.6511 192.406C35.9751 192.562 36.2451 192.766 36.4611 193.018C36.6771 193.27 36.8511 193.546 36.9831 193.846H37.0731L37.6491 192.352H38.8551L36.8031 202H35.5431L35.7771 200.218H35.7051C35.4291 200.566 35.1231 200.89 34.7871 201.19C34.4511 201.49 34.0851 201.73 33.6891 201.91C33.3051 202.09 32.8851 202.18 32.4291 202.18ZM32.9511 200.866C33.3951 200.866 33.8271 200.704 34.2471 200.38C34.6791 200.056 35.0691 199.618 35.4171 199.066C35.7651 198.514 36.0291 197.896 36.2091 197.212C36.3051 196.864 36.3651 196.546 36.3891 196.258C36.4251 195.958 36.4431 195.682 36.4431 195.43C36.4431 194.866 36.2871 194.404 35.9751 194.044C35.6631 193.684 35.2431 193.504 34.7151 193.504C34.3431 193.504 33.9891 193.6 33.6531 193.792C33.3291 193.984 33.0291 194.254 32.7531 194.602C32.4771 194.938 32.2431 195.334 32.0511 195.79C31.8591 196.246 31.7091 196.744 31.6011 197.284C31.4931 197.812 31.4391 198.358 31.4391 198.922C31.4391 199.57 31.5711 200.056 31.8351 200.38C32.0991 200.704 32.4711 200.866 32.9511 200.866ZM39.1315 202.126C38.9755 202.126 38.8315 202.108 38.6995 202.072C38.5675 202.048 38.4655 202.024 38.3935 202V200.632C38.4775 200.668 38.5675 200.698 38.6635 200.722C38.7595 200.734 38.8675 200.74 38.9875 200.74C39.2755 200.74 39.5275 200.674 39.7435 200.542C39.9715 200.398 40.1815 200.176 40.3735 199.876C40.5655 199.576 40.7575 199.186 40.9495 198.706C41.1535 198.226 41.3695 197.65 41.5975 196.978C41.8735 196.174 42.1375 195.478 42.3895 194.89C42.6415 194.302 42.9235 193.816 43.2355 193.432C43.5595 193.036 43.9555 192.742 44.4235 192.55C44.8915 192.358 45.4735 192.262 46.1695 192.262C46.5775 192.262 46.9735 192.292 47.3575 192.352C47.7415 192.4 48.0895 192.472 48.4015 192.568L46.3855 202H44.7835L46.6015 193.666C46.5175 193.642 46.4155 193.624 46.2955 193.612C46.1755 193.6 46.0495 193.594 45.9175 193.594C45.4255 193.594 45.0235 193.714 44.7115 193.954C44.4115 194.182 44.1355 194.578 43.8835 195.142C43.6315 195.706 43.3315 196.498 42.9835 197.518C42.7195 198.262 42.4675 198.922 42.2275 199.498C41.9875 200.062 41.7295 200.542 41.4535 200.938C41.1775 201.322 40.8535 201.616 40.4815 201.82C40.1095 202.024 39.6595 202.126 39.1315 202.126ZM52.3786 202.18C51.8986 202.18 51.4726 202.09 51.1006 201.91C50.7406 201.73 50.4586 201.46 50.2546 201.1C50.0626 200.74 49.9666 200.302 49.9666 199.786C49.9666 199.51 49.9846 199.252 50.0206 199.012C50.0686 198.76 50.1166 198.502 50.1646 198.238L51.4246 192.352H53.0266L51.7306 198.418C51.6826 198.682 51.6406 198.91 51.6046 199.102C51.5806 199.294 51.5686 199.468 51.5686 199.624C51.5686 200.008 51.6646 200.314 51.8566 200.542C52.0606 200.758 52.3846 200.866 52.8286 200.866C53.2366 200.866 53.6746 200.722 54.1426 200.434C54.6226 200.146 55.0666 199.684 55.4746 199.048C55.8826 198.412 56.2006 197.566 56.4286 196.51L57.3106 192.352H58.8766L56.8246 202H55.5286L55.7266 200.218H55.6366C55.4086 200.506 55.1386 200.806 54.8266 201.118C54.5266 201.418 54.1726 201.67 53.7646 201.874C53.3686 202.078 52.9066 202.18 52.3786 202.18ZM62.1544 202.18C61.6384 202.18 61.1284 202.12 60.6244 202C60.1324 201.892 59.7184 201.748 59.3824 201.568V200.11C59.6944 200.278 60.0964 200.452 60.5884 200.632C61.0804 200.8 61.6444 200.884 62.2804 200.884C62.7844 200.884 63.2224 200.812 63.5944 200.668C63.9664 200.512 64.2544 200.302 64.4584 200.038C64.6624 199.762 64.7644 199.444 64.7644 199.084C64.7644 198.664 64.6384 198.322 64.3864 198.058C64.1464 197.794 63.6664 197.662 62.9464 197.662H61.6144L61.9204 196.33H62.8024C63.1984 196.33 63.5884 196.288 63.9724 196.204C64.3684 196.12 64.6924 195.958 64.9444 195.718C65.1964 195.478 65.3224 195.13 65.3224 194.674C65.3224 194.314 65.1964 194.032 64.9444 193.828C64.7044 193.612 64.3324 193.504 63.8284 193.504C63.5524 193.504 63.2824 193.528 63.0184 193.576C62.7544 193.612 62.4844 193.678 62.2084 193.774C61.9444 193.858 61.6564 193.972 61.3444 194.116L60.8764 192.91C61.3684 192.67 61.8604 192.49 62.3524 192.37C62.8564 192.238 63.4204 192.172 64.0444 192.172C64.6444 192.172 65.1544 192.262 65.5744 192.442C66.0064 192.622 66.3364 192.88 66.5644 193.216C66.7924 193.552 66.9064 193.96 66.9064 194.44C66.9064 194.872 66.8164 195.256 66.6364 195.592C66.4684 195.928 66.2164 196.21 65.8804 196.438C65.5444 196.666 65.1304 196.834 64.6384 196.942V196.978C65.1544 197.11 65.5564 197.344 65.8444 197.68C66.1324 198.016 66.2764 198.466 66.2764 199.03C66.2764 199.618 66.1264 200.152 65.8264 200.632C65.5264 201.112 65.0704 201.49 64.4584 201.766C63.8464 202.042 63.0784 202.18 62.1544 202.18ZM66.9484 206.32C66.6604 206.32 66.4264 206.302 66.2464 206.266C66.0544 206.23 65.8744 206.188 65.7064 206.14V204.862C65.8744 204.91 66.0544 204.946 66.2464 204.97C66.4384 205.006 66.6424 205.024 66.8584 205.024C67.3504 205.024 67.7644 204.874 68.1004 204.574C68.4484 204.274 68.7784 203.836 69.0904 203.26L69.7204 202.144L68.2624 192.352H69.8464L70.4764 197.122C70.5364 197.506 70.5784 197.932 70.6024 198.4C70.6384 198.856 70.6624 199.294 70.6744 199.714C70.6984 200.122 70.7104 200.452 70.7104 200.704H70.7644C70.8484 200.512 70.9684 200.224 71.1244 199.84C71.2924 199.456 71.4724 199.06 71.6644 198.652C71.8564 198.244 72.0244 197.908 72.1684 197.644L74.9764 192.352H76.6684L70.5484 203.62C70.2244 204.22 69.8944 204.718 69.5584 205.114C69.2224 205.522 68.8444 205.822 68.4244 206.014C68.0044 206.218 67.5124 206.32 66.9484 206.32ZM84.4408 202.144C83.3128 202.144 82.4548 201.796 81.8668 201.1C81.2908 200.404 81.0028 199.516 81.0028 198.436C81.0028 198.28 81.0028 198.136 81.0028 198.004C81.0148 197.86 81.0208 197.752 81.0208 197.68H78.8068L77.8888 202H76.3048L78.3568 192.352H79.9228L79.0948 196.366H81.2368C81.4288 195.682 81.6688 195.082 81.9568 194.566C82.2568 194.038 82.5928 193.606 82.9648 193.27C83.3488 192.922 83.7628 192.664 84.2068 192.496C84.6508 192.316 85.1248 192.226 85.6288 192.226C86.3968 192.226 87.0328 192.388 87.5368 192.712C88.0408 193.024 88.4188 193.462 88.6708 194.026C88.9348 194.578 89.0668 195.22 89.0668 195.952C89.0668 196.576 89.0008 197.188 88.8688 197.788C88.7488 198.388 88.5628 198.952 88.3108 199.48C88.0588 199.996 87.7468 200.458 87.3748 200.866C87.0028 201.262 86.5708 201.574 86.0788 201.802C85.5868 202.03 85.0408 202.144 84.4408 202.144ZM84.5488 200.83C84.8728 200.83 85.1788 200.752 85.4668 200.596C85.7548 200.44 86.0188 200.218 86.2588 199.93C86.5108 199.642 86.7208 199.294 86.8888 198.886C87.0688 198.466 87.2068 197.998 87.3028 197.482C87.3988 196.954 87.4468 196.384 87.4468 195.772C87.4468 195.1 87.2848 194.56 86.9608 194.152C86.6488 193.744 86.1988 193.54 85.6108 193.54C85.2028 193.54 84.8368 193.636 84.5128 193.828C84.1888 194.02 83.9068 194.284 83.6668 194.62C83.4268 194.944 83.2288 195.316 83.0728 195.736C82.9168 196.156 82.7968 196.606 82.7128 197.086C82.6408 197.554 82.6048 198.022 82.6048 198.49C82.6048 199.186 82.7608 199.75 83.0728 200.182C83.3968 200.614 83.8888 200.83 84.5488 200.83ZM98.2478 202L100.966 189.148H104.296C105.088 189.148 105.766 189.256 106.33 189.472C106.906 189.676 107.344 189.994 107.644 190.426C107.956 190.858 108.112 191.416 108.112 192.1C108.112 192.688 107.992 193.204 107.752 193.648C107.512 194.08 107.176 194.44 106.744 194.728C106.312 195.004 105.802 195.196 105.214 195.304V195.394C105.802 195.55 106.294 195.844 106.69 196.276C107.086 196.708 107.284 197.284 107.284 198.004C107.284 198.88 107.068 199.618 106.636 200.218C106.216 200.806 105.634 201.25 104.89 201.55C104.158 201.85 103.312 202 102.352 202H98.2478ZM102.406 200.632C103.09 200.632 103.666 200.53 104.134 200.326C104.614 200.122 104.974 199.822 105.214 199.426C105.466 199.03 105.592 198.556 105.592 198.004C105.592 197.428 105.406 196.942 105.034 196.546C104.662 196.15 104.032 195.952 103.144 195.952H101.128L100.138 200.632H102.406ZM103.522 194.62C104.062 194.62 104.548 194.536 104.98 194.368C105.424 194.2 105.778 193.948 106.042 193.612C106.306 193.264 106.438 192.826 106.438 192.298C106.438 191.734 106.258 191.302 105.898 191.002C105.538 190.69 104.938 190.534 104.098 190.534H102.28L101.416 194.62H103.522ZM111.777 202.18C111.261 202.18 110.805 202.06 110.409 201.82C110.025 201.568 109.719 201.196 109.491 200.704C109.275 200.212 109.167 199.606 109.167 198.886C109.167 198.166 109.239 197.476 109.383 196.816C109.539 196.144 109.755 195.526 110.031 194.962C110.307 194.398 110.637 193.912 111.021 193.504C111.417 193.084 111.855 192.76 112.335 192.532C112.827 192.292 113.349 192.172 113.901 192.172C114.321 192.172 114.687 192.25 114.999 192.406C115.323 192.562 115.593 192.766 115.809 193.018C116.025 193.27 116.199 193.546 116.331 193.846H116.421L116.997 192.352H118.203L116.151 202H114.891L115.125 200.218H115.053C114.777 200.566 114.471 200.89 114.135 201.19C113.799 201.49 113.433 201.73 113.037 201.91C112.653 202.09 112.233 202.18 111.777 202.18ZM112.299 200.866C112.743 200.866 113.175 200.704 113.595 200.38C114.027 200.056 114.417 199.618 114.765 199.066C115.113 198.514 115.377 197.896 115.557 197.212C115.653 196.864 115.713 196.546 115.737 196.258C115.773 195.958 115.791 195.682 115.791 195.43C115.791 194.866 115.635 194.404 115.323 194.044C115.011 193.684 114.591 193.504 114.063 193.504C113.691 193.504 113.337 193.6 113.001 193.792C112.677 193.984 112.377 194.254 112.101 194.602C111.825 194.938 111.591 195.334 111.399 195.79C111.207 196.246 111.057 196.744 110.949 197.284C110.841 197.812 110.787 198.358 110.787 198.922C110.787 199.57 110.919 200.056 111.183 200.38C111.447 200.704 111.819 200.866 112.299 200.866ZM121.863 202.18C121.119 202.18 120.543 201.976 120.135 201.568C119.727 201.16 119.523 200.572 119.523 199.804C119.523 199.516 119.541 199.246 119.577 198.994C119.625 198.742 119.673 198.484 119.721 198.22L120.963 192.352H122.565L121.287 198.4C121.239 198.664 121.197 198.898 121.161 199.102C121.125 199.294 121.107 199.48 121.107 199.66C121.107 200.02 121.203 200.308 121.395 200.524C121.599 200.74 121.911 200.848 122.331 200.848C122.727 200.848 123.141 200.704 123.573 200.416C124.005 200.128 124.407 199.678 124.779 199.066C125.163 198.454 125.457 197.668 125.661 196.708L126.597 192.352H128.181L126.885 198.4C126.837 198.664 126.795 198.892 126.759 199.084C126.735 199.276 126.723 199.444 126.723 199.588C126.723 199.984 126.813 200.296 126.993 200.524C127.173 200.74 127.473 200.848 127.893 200.848C128.193 200.848 128.505 200.77 128.829 200.614C129.165 200.458 129.489 200.212 129.801 199.876C130.113 199.528 130.401 199.078 130.665 198.526C130.929 197.974 131.139 197.302 131.295 196.51L132.177 192.352H133.761L131.709 202H130.413L130.611 200.218H130.521C130.305 200.506 130.047 200.806 129.747 201.118C129.459 201.418 129.123 201.67 128.739 201.874C128.355 202.078 127.917 202.18 127.425 202.18C127.101 202.18 126.807 202.132 126.543 202.036C126.291 201.94 126.075 201.802 125.895 201.622C125.715 201.43 125.571 201.202 125.463 200.938C125.355 200.674 125.283 200.374 125.247 200.038H125.175C124.935 200.386 124.653 200.728 124.329 201.064C124.005 201.388 123.633 201.658 123.213 201.874C122.805 202.078 122.355 202.18 121.863 202.18ZM137.685 202.18C137.205 202.18 136.779 202.09 136.407 201.91C136.047 201.73 135.765 201.46 135.561 201.1C135.369 200.74 135.273 200.302 135.273 199.786C135.273 199.51 135.291 199.252 135.327 199.012C135.375 198.76 135.423 198.502 135.471 198.238L136.731 192.352H138.333L137.037 198.418C136.989 198.682 136.947 198.91 136.911 199.102C136.887 199.294 136.875 199.468 136.875 199.624C136.875 200.008 136.971 200.314 137.163 200.542C137.367 200.758 137.691 200.866 138.135 200.866C138.543 200.866 138.981 200.722 139.449 200.434C139.929 200.146 140.373 199.684 140.781 199.048C141.189 198.412 141.507 197.566 141.735 196.51L142.617 192.352H144.183L142.131 202H140.835L141.033 200.218H140.943C140.715 200.506 140.445 200.806 140.133 201.118C139.833 201.418 139.479 201.67 139.071 201.874C138.675 202.078 138.213 202.18 137.685 202.18ZM152.788 202L154.822 192.37H156.874L157.882 200.02H157.918L162.148 192.37H164.362L162.346 202H160.906L162.076 196.474C162.184 196.018 162.292 195.562 162.4 195.106C162.52 194.65 162.628 194.23 162.724 193.846H162.688L158.152 202H156.91L155.812 193.864H155.758C155.71 194.2 155.644 194.614 155.56 195.106C155.476 195.586 155.386 196.054 155.29 196.51L154.174 202H152.788ZM169.208 202.18C168.464 202.18 167.828 202.036 167.3 201.748C166.784 201.448 166.388 201.028 166.112 200.488C165.848 199.936 165.716 199.288 165.716 198.544C165.716 197.776 165.824 197.02 166.04 196.276C166.268 195.52 166.592 194.836 167.012 194.224C167.432 193.6 167.936 193.102 168.524 192.73C169.124 192.358 169.796 192.172 170.54 192.172C171.452 192.172 172.136 192.37 172.592 192.766C173.06 193.162 173.294 193.714 173.294 194.422C173.294 194.89 173.186 195.334 172.97 195.754C172.754 196.162 172.418 196.522 171.962 196.834C171.506 197.146 170.924 197.392 170.216 197.572C169.508 197.74 168.656 197.824 167.66 197.824H167.354C167.342 197.932 167.33 198.046 167.318 198.166C167.318 198.286 167.318 198.394 167.318 198.49C167.318 199.222 167.498 199.804 167.858 200.236C168.218 200.656 168.764 200.866 169.496 200.866C169.952 200.866 170.384 200.8 170.792 200.668C171.2 200.536 171.644 200.356 172.124 200.128V201.478C171.668 201.682 171.218 201.85 170.774 201.982C170.342 202.114 169.82 202.18 169.208 202.18ZM167.714 196.546C168.434 196.546 169.1 196.486 169.712 196.366C170.324 196.234 170.816 196.024 171.188 195.736C171.56 195.436 171.746 195.04 171.746 194.548C171.746 194.236 171.638 193.984 171.422 193.792C171.218 193.588 170.894 193.486 170.45 193.486C170.066 193.486 169.688 193.606 169.316 193.846C168.944 194.086 168.608 194.434 168.308 194.89C168.008 195.346 167.768 195.898 167.588 196.546H167.714ZM180.278 199.282C180.362 198.862 180.458 198.454 180.566 198.058C180.686 197.662 180.788 197.314 180.872 197.014H180.8C180.56 197.338 180.284 197.626 179.972 197.878C179.66 198.118 179.312 198.31 178.928 198.454C178.556 198.598 178.142 198.67 177.686 198.67C177.146 198.67 176.69 198.58 176.318 198.4C175.958 198.208 175.682 197.926 175.49 197.554C175.31 197.182 175.22 196.732 175.22 196.204C175.22 195.976 175.244 195.718 175.292 195.43C175.34 195.142 175.388 194.854 175.436 194.566L175.904 192.352H177.506L177.02 194.692C176.948 195.004 176.894 195.268 176.858 195.484C176.834 195.688 176.822 195.88 176.822 196.06C176.822 196.54 176.936 196.876 177.164 197.068C177.404 197.248 177.728 197.338 178.136 197.338C178.556 197.338 178.982 197.224 179.414 196.996C179.858 196.768 180.272 196.366 180.656 195.79C181.04 195.214 181.346 194.404 181.574 193.36L181.79 192.352H183.374L181.322 202H179.702L180.278 199.282ZM184.393 202L186.445 192.352H187.741L187.543 194.134H187.633C187.849 193.834 188.101 193.534 188.389 193.234C188.689 192.934 189.031 192.682 189.415 192.478C189.811 192.274 190.255 192.172 190.747 192.172C191.407 192.172 191.911 192.364 192.259 192.748C192.619 193.12 192.835 193.642 192.907 194.314H192.979C193.219 193.954 193.501 193.612 193.825 193.288C194.161 192.964 194.533 192.7 194.941 192.496C195.349 192.28 195.799 192.172 196.291 192.172C197.035 192.172 197.611 192.376 198.019 192.784C198.427 193.192 198.631 193.78 198.631 194.548C198.631 194.836 198.613 195.106 198.577 195.358C198.541 195.598 198.493 195.856 198.433 196.132L197.191 202H195.589L196.885 195.952C196.945 195.676 196.987 195.442 197.011 195.25C197.035 195.058 197.047 194.872 197.047 194.692C197.047 194.332 196.945 194.044 196.741 193.828C196.549 193.612 196.243 193.504 195.823 193.504C195.535 193.504 195.229 193.588 194.905 193.756C194.581 193.912 194.263 194.158 193.951 194.494C193.639 194.83 193.357 195.262 193.105 195.79C192.853 196.306 192.649 196.924 192.493 197.644L191.575 202H189.991L191.269 195.952C191.329 195.676 191.371 195.448 191.395 195.268C191.419 195.076 191.431 194.908 191.431 194.764C191.431 194.368 191.341 194.062 191.161 193.846C190.981 193.618 190.681 193.504 190.261 193.504C189.973 193.504 189.661 193.582 189.325 193.738C189.001 193.894 188.683 194.146 188.371 194.494C188.059 194.83 187.771 195.274 187.507 195.826C187.243 196.378 187.027 197.05 186.859 197.842L185.977 202H184.393ZM203.887 202.18C203.251 202.18 202.693 202.084 202.213 201.892C201.745 201.688 201.385 201.382 201.133 200.974C200.881 200.554 200.755 200.032 200.755 199.408C200.755 199.168 200.773 198.892 200.809 198.58C200.857 198.268 200.905 197.98 200.953 197.716L202.087 192.352H203.689L202.789 196.546C203.077 196.486 203.383 196.438 203.707 196.402C204.043 196.354 204.379 196.33 204.715 196.33C205.363 196.33 205.903 196.432 206.335 196.636C206.779 196.828 207.109 197.116 207.325 197.5C207.541 197.872 207.649 198.328 207.649 198.868C207.649 199.468 207.511 200.02 207.235 200.524C206.971 201.028 206.563 201.43 206.011 201.73C205.459 202.03 204.751 202.18 203.887 202.18ZM203.977 200.884C204.349 200.884 204.667 200.836 204.931 200.74C205.195 200.632 205.411 200.494 205.579 200.326C205.747 200.146 205.873 199.948 205.957 199.732C206.041 199.504 206.083 199.264 206.083 199.012C206.083 198.664 206.011 198.388 205.867 198.184C205.735 197.98 205.531 197.836 205.255 197.752C204.991 197.668 204.661 197.626 204.265 197.626C203.965 197.626 203.665 197.644 203.365 197.68C203.077 197.704 202.795 197.746 202.519 197.806C202.447 198.154 202.393 198.442 202.357 198.67C202.333 198.886 202.321 199.084 202.321 199.264C202.321 199.78 202.447 200.182 202.699 200.47C202.963 200.746 203.389 200.884 203.977 200.884ZM208.603 202L210.637 192.352H212.221L210.169 202H208.603ZM224.955 195.286C224.367 195.946 223.875 196.72 223.479 197.608C223.083 198.484 222.885 199.246 222.885 199.894C222.885 200.53 223.023 201.034 223.299 201.406C223.587 201.778 224.109 201.964 224.865 201.964C225.621 201.964 226.467 201.712 227.403 201.208C228.351 200.704 229.215 200.11 229.995 199.426C230.787 198.73 231.369 198.1 231.741 197.536C231.789 197.464 231.837 197.428 231.885 197.428C231.933 197.428 231.957 197.446 231.957 197.482C231.957 197.518 231.945 197.56 231.921 197.608C231.405 198.292 230.805 198.94 230.121 199.552C228.009 201.448 226.029 202.396 224.181 202.396C223.413 202.396 222.777 202.228 222.273 201.892C221.769 201.556 221.517 201.028 221.517 200.308C221.517 199.564 221.751 198.76 222.219 197.896C222.675 197.044 223.221 196.312 223.857 195.7C224.505 195.076 225.171 194.566 225.855 194.17C226.551 193.774 227.091 193.576 227.475 193.576C227.871 193.576 228.153 193.672 228.321 193.864C228.489 194.056 228.573 194.29 228.573 194.566C228.573 194.83 228.537 195.016 228.465 195.124C228.393 195.22 228.219 195.34 227.943 195.484C227.667 195.628 227.493 195.7 227.421 195.7C227.349 195.7 227.313 195.688 227.313 195.664C227.313 195.64 227.319 195.616 227.331 195.592C227.367 195.496 227.385 195.34 227.385 195.124C227.385 194.908 227.295 194.716 227.115 194.548C226.935 194.38 226.749 194.296 226.557 194.296C226.077 194.296 225.543 194.626 224.955 195.286ZM236.703 202L238.773 192.298H240.177L239.979 194.08H239.997C240.225 193.78 240.489 193.48 240.789 193.18C241.101 192.88 241.461 192.628 241.869 192.424C242.277 192.22 242.739 192.118 243.255 192.118C243.771 192.118 244.215 192.214 244.587 192.406C244.959 192.598 245.241 192.874 245.433 193.234C245.637 193.594 245.739 194.032 245.739 194.548C245.739 194.824 245.715 195.106 245.667 195.394C245.631 195.682 245.589 195.934 245.541 196.15L244.263 202H242.571L243.867 195.934C243.927 195.658 243.969 195.43 243.993 195.25C244.029 195.058 244.047 194.878 244.047 194.71C244.047 194.326 243.945 194.038 243.741 193.846C243.537 193.654 243.231 193.558 242.823 193.558C242.427 193.558 241.995 193.696 241.527 193.972C241.071 194.248 240.639 194.698 240.231 195.322C239.835 195.946 239.523 196.786 239.295 197.842L238.395 202H236.703ZM251.159 202.144C250.415 202.144 249.773 201.994 249.233 201.694C248.693 201.394 248.279 200.968 247.991 200.416C247.703 199.852 247.559 199.192 247.559 198.436C247.559 197.848 247.625 197.26 247.757 196.672C247.889 196.072 248.081 195.508 248.333 194.98C248.597 194.452 248.921 193.984 249.305 193.576C249.689 193.156 250.139 192.826 250.655 192.586C251.171 192.346 251.747 192.226 252.383 192.226C253.139 192.226 253.781 192.376 254.309 192.676C254.849 192.976 255.263 193.408 255.551 193.972C255.839 194.524 255.983 195.184 255.983 195.952C255.983 196.54 255.917 197.128 255.785 197.716C255.653 198.304 255.455 198.868 255.191 199.408C254.939 199.936 254.621 200.404 254.237 200.812C253.853 201.22 253.403 201.544 252.887 201.784C252.371 202.024 251.795 202.144 251.159 202.144ZM251.249 200.83C251.597 200.83 251.921 200.758 252.221 200.614C252.533 200.47 252.821 200.26 253.085 199.984C253.349 199.696 253.571 199.348 253.751 198.94C253.943 198.52 254.093 198.046 254.201 197.518C254.309 196.99 254.363 196.408 254.363 195.772C254.363 195.412 254.297 195.064 254.165 194.728C254.045 194.38 253.841 194.098 253.553 193.882C253.265 193.654 252.881 193.54 252.401 193.54C252.005 193.54 251.639 193.624 251.303 193.792C250.967 193.96 250.667 194.2 250.403 194.512C250.139 194.812 249.911 195.172 249.719 195.592C249.539 196 249.401 196.45 249.305 196.942C249.209 197.434 249.161 197.95 249.161 198.49C249.161 199.234 249.341 199.81 249.701 200.218C250.073 200.626 250.589 200.83 251.249 200.83ZM257.36 202L259.394 192.37H261.446L262.454 200.02H262.49L266.72 192.37H268.934L266.918 202H265.478L266.648 196.474C266.756 196.018 266.864 195.562 266.972 195.106C267.092 194.65 267.2 194.23 267.296 193.846H267.26L262.724 202H261.482L260.384 193.864H260.33C260.282 194.2 260.216 194.614 260.132 195.106C260.048 195.586 259.958 196.054 259.862 196.51L258.746 202H257.36ZM273.888 202.144C273.144 202.144 272.502 201.994 271.962 201.694C271.422 201.394 271.008 200.968 270.72 200.416C270.432 199.852 270.288 199.192 270.288 198.436C270.288 197.848 270.354 197.26 270.486 196.672C270.618 196.072 270.81 195.508 271.062 194.98C271.326 194.452 271.65 193.984 272.034 193.576C272.418 193.156 272.868 192.826 273.384 192.586C273.9 192.346 274.476 192.226 275.112 192.226C275.868 192.226 276.51 192.376 277.038 192.676C277.578 192.976 277.992 193.408 278.28 193.972C278.568 194.524 278.712 195.184 278.712 195.952C278.712 196.54 278.646 197.128 278.514 197.716C278.382 198.304 278.184 198.868 277.92 199.408C277.668 199.936 277.35 200.404 276.966 200.812C276.582 201.22 276.132 201.544 275.616 201.784C275.1 202.024 274.524 202.144 273.888 202.144ZM273.978 200.83C274.326 200.83 274.65 200.758 274.95 200.614C275.262 200.47 275.55 200.26 275.814 199.984C276.078 199.696 276.3 199.348 276.48 198.94C276.672 198.52 276.822 198.046 276.93 197.518C277.038 196.99 277.092 196.408 277.092 195.772C277.092 195.412 277.026 195.064 276.894 194.728C276.774 194.38 276.57 194.098 276.282 193.882C275.994 193.654 275.61 193.54 275.13 193.54C274.734 193.54 274.368 193.624 274.032 193.792C273.696 193.96 273.396 194.2 273.132 194.512C272.868 194.812 272.64 195.172 272.448 195.592C272.268 196 272.13 196.45 272.034 196.942C271.938 197.434 271.89 197.95 271.89 198.49C271.89 199.234 272.07 199.81 272.43 200.218C272.802 200.626 273.318 200.83 273.978 200.83ZM292.688 202.126C292.448 202.054 292.25 201.946 292.094 201.802C291.938 201.658 291.818 201.46 291.734 201.208C291.662 200.944 291.62 200.626 291.608 200.254H291.554C291.35 200.554 291.098 200.854 290.798 201.154C290.498 201.454 290.156 201.7 289.772 201.892C289.388 202.084 288.95 202.18 288.458 202.18C287.798 202.18 287.288 201.988 286.928 201.604C286.568 201.22 286.352 200.698 286.28 200.038H286.208C285.968 200.386 285.686 200.728 285.362 201.064C285.038 201.388 284.672 201.658 284.264 201.874C283.856 202.078 283.4 202.18 282.896 202.18C282.152 202.18 281.576 201.976 281.168 201.568C280.76 201.16 280.556 200.572 280.556 199.804C280.556 199.516 280.574 199.252 280.61 199.012C280.658 198.76 280.706 198.496 280.754 198.22L281.996 192.352H283.598L282.32 198.418C282.272 198.682 282.23 198.91 282.194 199.102C282.158 199.294 282.14 199.48 282.14 199.66C282.14 200.02 282.236 200.308 282.428 200.524C282.632 200.74 282.944 200.848 283.364 200.848C283.748 200.848 284.156 200.71 284.588 200.434C285.032 200.146 285.44 199.696 285.812 199.084C286.196 198.472 286.49 197.68 286.694 196.708L287.63 192.352H289.214L287.918 198.418C287.87 198.682 287.828 198.91 287.792 199.102C287.768 199.294 287.756 199.456 287.756 199.588C287.756 199.996 287.846 200.308 288.026 200.524C288.206 200.74 288.506 200.848 288.926 200.848C289.226 200.848 289.538 200.77 289.862 200.614C290.198 200.458 290.522 200.212 290.834 199.876C291.146 199.528 291.434 199.078 291.698 198.526C291.962 197.974 292.172 197.302 292.328 196.51L293.21 192.352H294.794L293.354 199.156C293.318 199.348 293.288 199.54 293.264 199.732C293.24 199.924 293.228 200.086 293.228 200.218C293.228 200.446 293.288 200.62 293.408 200.74C293.528 200.848 293.69 200.902 293.894 200.902C294.05 200.902 294.182 200.884 294.29 200.848C294.41 200.812 294.512 200.788 294.596 200.776L293.57 205.348H291.986L292.688 202.126ZM299.971 202.18C299.299 202.18 298.717 202.084 298.225 201.892C297.745 201.688 297.379 201.382 297.127 200.974C296.875 200.554 296.749 200.026 296.749 199.39C296.749 199.15 296.767 198.88 296.803 198.58C296.851 198.268 296.899 197.98 296.947 197.716L298.081 192.352H299.683L298.765 196.546C299.077 196.486 299.413 196.438 299.773 196.402C300.133 196.354 300.505 196.33 300.889 196.33C301.621 196.33 302.209 196.438 302.653 196.654C303.097 196.87 303.421 197.17 303.625 197.554C303.829 197.938 303.931 198.382 303.931 198.886C303.931 199.474 303.781 200.02 303.481 200.524C303.193 201.016 302.755 201.418 302.167 201.73C301.591 202.03 300.859 202.18 299.971 202.18ZM300.115 200.884C300.511 200.884 300.847 200.836 301.123 200.74C301.411 200.632 301.645 200.494 301.825 200.326C302.017 200.158 302.155 199.96 302.239 199.732C302.323 199.504 302.365 199.264 302.365 199.012C302.365 198.724 302.305 198.478 302.185 198.274C302.065 198.058 301.867 197.896 301.591 197.788C301.327 197.68 300.967 197.626 300.511 197.626C300.139 197.626 299.785 197.644 299.449 197.68C299.113 197.704 298.801 197.746 298.513 197.806C298.441 198.142 298.387 198.43 298.351 198.67C298.327 198.898 298.315 199.096 298.315 199.264C298.315 199.72 298.441 200.104 298.693 200.416C298.945 200.728 299.419 200.884 300.115 200.884ZM313.695 202.144C312.567 202.144 311.709 201.796 311.121 201.1C310.545 200.404 310.257 199.516 310.257 198.436C310.257 198.28 310.257 198.136 310.257 198.004C310.269 197.86 310.275 197.752 310.275 197.68H308.061L307.143 202H305.559L307.611 192.352H309.177L308.349 196.366H310.491C310.683 195.682 310.923 195.082 311.211 194.566C311.511 194.038 311.847 193.606 312.219 193.27C312.603 192.922 313.017 192.664 313.461 192.496C313.905 192.316 314.379 192.226 314.883 192.226C315.651 192.226 316.287 192.388 316.791 192.712C317.295 193.024 317.673 193.462 317.925 194.026C318.189 194.578 318.321 195.22 318.321 195.952C318.321 196.576 318.255 197.188 318.123 197.788C318.003 198.388 317.817 198.952 317.565 199.48C317.313 199.996 317.001 200.458 316.629 200.866C316.257 201.262 315.825 201.574 315.333 201.802C314.841 202.03 314.295 202.144 313.695 202.144ZM313.803 200.83C314.127 200.83 314.433 200.752 314.721 200.596C315.009 200.44 315.273 200.218 315.513 199.93C315.765 199.642 315.975 199.294 316.143 198.886C316.323 198.466 316.461 197.998 316.557 197.482C316.653 196.954 316.701 196.384 316.701 195.772C316.701 195.1 316.539 194.56 316.215 194.152C315.903 193.744 315.453 193.54 314.865 193.54C314.457 193.54 314.091 193.636 313.767 193.828C313.443 194.02 313.161 194.284 312.921 194.62C312.681 194.944 312.483 195.316 312.327 195.736C312.171 196.156 312.051 196.606 311.967 197.086C311.895 197.554 311.859 198.022 311.859 198.49C311.859 199.186 312.015 199.75 312.327 200.182C312.651 200.614 313.143 200.83 313.803 200.83ZM51.9335 224.18C51.0575 224.18 50.3375 224.018 49.7735 223.694C49.2095 223.358 48.7955 222.896 48.5315 222.308C48.2675 221.708 48.1355 221.006 48.1355 220.202C48.1355 219.53 48.2075 218.894 48.3515 218.294C48.4955 217.682 48.7115 217.13 48.9995 216.638C49.2875 216.134 49.6355 215.702 50.0435 215.342C50.4635 214.97 50.9375 214.688 51.4655 214.496C52.0055 214.292 52.5995 214.19 53.2475 214.19C53.9315 214.19 54.5135 214.28 54.9935 214.46C55.4855 214.64 55.8575 214.916 56.1095 215.288C56.3615 215.648 56.4875 216.098 56.4875 216.638C56.4875 217.106 56.3795 217.508 56.1635 217.844C55.9595 218.18 55.6775 218.45 55.3175 218.654C54.9575 218.858 54.5375 219.014 54.0575 219.122V219.158C54.5855 219.29 55.0175 219.512 55.3535 219.824C55.6895 220.124 55.8575 220.586 55.8575 221.21C55.8575 221.654 55.7315 222.11 55.4795 222.578C55.2395 223.034 54.8315 223.418 54.2555 223.73C53.6795 224.03 52.9055 224.18 51.9335 224.18ZM52.0415 222.884C52.5695 222.884 53.0015 222.806 53.3375 222.65C53.6735 222.494 53.9195 222.29 54.0755 222.038C54.2435 221.774 54.3275 221.492 54.3275 221.192C54.3275 220.88 54.2435 220.628 54.0755 220.436C53.9195 220.232 53.6675 220.082 53.3195 219.986C52.9835 219.878 52.5455 219.824 52.0055 219.824H49.7375C49.7375 219.884 49.7375 219.956 49.7375 220.04C49.7375 220.112 49.7375 220.184 49.7375 220.256C49.7375 221.18 49.9475 221.852 50.3675 222.272C50.7875 222.68 51.3455 222.884 52.0415 222.884ZM51.8795 218.546C52.4075 218.546 52.8995 218.492 53.3555 218.384C53.8235 218.276 54.1955 218.096 54.4715 217.844C54.7595 217.58 54.9035 217.232 54.9035 216.8C54.9035 216.44 54.7775 216.134 54.5255 215.882C54.2735 215.63 53.8535 215.504 53.2655 215.504C52.7015 215.504 52.1915 215.624 51.7355 215.864C51.2915 216.092 50.9135 216.434 50.6015 216.89C50.3015 217.346 50.0735 217.898 49.9175 218.546H51.8795ZM57.5138 224L59.5658 214.352H61.1318L60.3038 218.366H64.8398L65.7038 214.352H67.2878L65.2538 224H63.6518L64.5518 219.68H60.0158L59.0978 224H57.5138ZM72.1763 224.18C71.4323 224.18 70.7963 224.036 70.2683 223.748C69.7523 223.448 69.3563 223.028 69.0803 222.488C68.8163 221.936 68.6843 221.288 68.6843 220.544C68.6843 219.776 68.7923 219.02 69.0083 218.276C69.2363 217.52 69.5603 216.836 69.9803 216.224C70.4003 215.6 70.9043 215.102 71.4923 214.73C72.0923 214.358 72.7643 214.172 73.5083 214.172C74.4203 214.172 75.1043 214.37 75.5603 214.766C76.0283 215.162 76.2623 215.714 76.2623 216.422C76.2623 216.89 76.1543 217.334 75.9383 217.754C75.7223 218.162 75.3863 218.522 74.9303 218.834C74.4743 219.146 73.8923 219.392 73.1843 219.572C72.4763 219.74 71.6243 219.824 70.6283 219.824H70.3223C70.3103 219.932 70.2983 220.046 70.2863 220.166C70.2863 220.286 70.2863 220.394 70.2863 220.49C70.2863 221.222 70.4663 221.804 70.8263 222.236C71.1863 222.656 71.7323 222.866 72.4643 222.866C72.9203 222.866 73.3523 222.8 73.7603 222.668C74.1683 222.536 74.6123 222.356 75.0923 222.128V223.478C74.6363 223.682 74.1863 223.85 73.7423 223.982C73.3103 224.114 72.7883 224.18 72.1763 224.18ZM70.6823 218.546C71.4023 218.546 72.0683 218.486 72.6803 218.366C73.2923 218.234 73.7843 218.024 74.1563 217.736C74.5283 217.436 74.7143 217.04 74.7143 216.548C74.7143 216.236 74.6063 215.984 74.3903 215.792C74.1863 215.588 73.8623 215.486 73.4183 215.486C73.0343 215.486 72.6563 215.606 72.2843 215.846C71.9123 216.086 71.5763 216.434 71.2763 216.89C70.9763 217.346 70.7363 217.898 70.5563 218.546H70.6823ZM80.1327 224.18C79.3887 224.18 78.8127 223.976 78.4047 223.568C77.9967 223.16 77.7927 222.572 77.7927 221.804C77.7927 221.516 77.8107 221.246 77.8467 220.994C77.8947 220.742 77.9427 220.484 77.9907 220.22L79.2327 214.352H80.8347L79.5567 220.4C79.5087 220.664 79.4667 220.898 79.4307 221.102C79.3947 221.294 79.3767 221.48 79.3767 221.66C79.3767 222.02 79.4727 222.308 79.6647 222.524C79.8687 222.74 80.1807 222.848 80.6007 222.848C80.9967 222.848 81.4107 222.704 81.8427 222.416C82.2747 222.128 82.6767 221.678 83.0487 221.066C83.4327 220.454 83.7267 219.668 83.9307 218.708L84.8667 214.352H86.4507L85.1547 220.4C85.1067 220.664 85.0647 220.892 85.0287 221.084C85.0047 221.276 84.9927 221.444 84.9927 221.588C84.9927 221.984 85.0827 222.296 85.2627 222.524C85.4427 222.74 85.7427 222.848 86.1627 222.848C86.4627 222.848 86.7747 222.77 87.0987 222.614C87.4347 222.458 87.7587 222.212 88.0707 221.876C88.3827 221.528 88.6707 221.078 88.9347 220.526C89.1987 219.974 89.4087 219.302 89.5647 218.51L90.4467 214.352H92.0307L89.9787 224H88.6827L88.8807 222.218H88.7907C88.5747 222.506 88.3167 222.806 88.0167 223.118C87.7287 223.418 87.3927 223.67 87.0087 223.874C86.6247 224.078 86.1867 224.18 85.6947 224.18C85.3707 224.18 85.0767 224.132 84.8127 224.036C84.5607 223.94 84.3447 223.802 84.1647 223.622C83.9847 223.43 83.8407 223.202 83.7327 222.938C83.6247 222.674 83.5527 222.374 83.5167 222.038H83.4447C83.2047 222.386 82.9227 222.728 82.5987 223.064C82.2747 223.388 81.9027 223.658 81.4827 223.874C81.0747 224.078 80.6247 224.18 80.1327 224.18ZM93.0567 224L95.1087 214.352H96.6747L95.8467 218.366H100.383L101.247 214.352H102.831L100.797 224H99.1947L100.095 219.68H95.5587L94.6407 224H93.0567ZM107.719 224.18C106.975 224.18 106.339 224.036 105.811 223.748C105.295 223.448 104.899 223.028 104.623 222.488C104.359 221.936 104.227 221.288 104.227 220.544C104.227 219.776 104.335 219.02 104.551 218.276C104.779 217.52 105.103 216.836 105.523 216.224C105.943 215.6 106.447 215.102 107.035 214.73C107.635 214.358 108.307 214.172 109.051 214.172C109.963 214.172 110.647 214.37 111.103 214.766C111.571 215.162 111.805 215.714 111.805 216.422C111.805 216.89 111.697 217.334 111.481 217.754C111.265 218.162 110.929 218.522 110.473 218.834C110.017 219.146 109.435 219.392 108.727 219.572C108.019 219.74 107.167 219.824 106.171 219.824H105.865C105.853 219.932 105.841 220.046 105.829 220.166C105.829 220.286 105.829 220.394 105.829 220.49C105.829 221.222 106.009 221.804 106.369 222.236C106.729 222.656 107.275 222.866 108.007 222.866C108.463 222.866 108.895 222.8 109.303 222.668C109.711 222.536 110.155 222.356 110.635 222.128V223.478C110.179 223.682 109.729 223.85 109.285 223.982C108.853 224.114 108.331 224.18 107.719 224.18ZM106.225 218.546C106.945 218.546 107.611 218.486 108.223 218.366C108.835 218.234 109.327 218.024 109.699 217.736C110.071 217.436 110.257 217.04 110.257 216.548C110.257 216.236 110.149 215.984 109.933 215.792C109.729 215.588 109.405 215.486 108.961 215.486C108.577 215.486 108.199 215.606 107.827 215.846C107.455 216.086 107.119 216.434 106.819 216.89C106.519 217.346 106.279 217.898 106.099 218.546H106.225ZM115.91 224.18C115.358 224.18 114.842 224.096 114.362 223.928C113.894 223.76 113.516 223.496 113.228 223.136C112.94 222.776 112.796 222.308 112.796 221.732C112.796 221.264 112.886 220.856 113.066 220.508C113.258 220.16 113.51 219.866 113.822 219.626C114.134 219.374 114.482 219.164 114.866 218.996C115.25 218.816 115.634 218.654 116.018 218.51C116.498 218.318 116.924 218.138 117.296 217.97C117.668 217.79 117.956 217.586 118.16 217.358C118.376 217.118 118.484 216.836 118.484 216.512C118.484 216.212 118.388 215.972 118.196 215.792C118.004 215.6 117.662 215.504 117.17 215.504C116.702 215.504 116.24 215.57 115.784 215.702C115.328 215.822 114.908 215.966 114.524 216.134L114.092 214.874C114.512 214.718 114.992 214.568 115.532 214.424C116.072 214.268 116.672 214.19 117.332 214.19C117.872 214.19 118.346 214.268 118.754 214.424C119.174 214.568 119.498 214.802 119.726 215.126C119.966 215.45 120.086 215.882 120.086 216.422C120.086 216.842 120.002 217.214 119.834 217.538C119.666 217.85 119.438 218.126 119.15 218.366C118.862 218.594 118.538 218.798 118.178 218.978C117.818 219.146 117.446 219.302 117.062 219.446C116.522 219.65 116.048 219.848 115.64 220.04C115.244 220.22 114.938 220.43 114.722 220.67C114.506 220.91 114.398 221.222 114.398 221.606C114.398 221.99 114.536 222.296 114.812 222.524C115.1 222.752 115.544 222.866 116.144 222.866C116.468 222.866 116.786 222.836 117.098 222.776C117.41 222.704 117.716 222.614 118.016 222.506C118.316 222.386 118.61 222.26 118.898 222.128V223.514C118.478 223.706 118.028 223.868 117.548 224C117.068 224.12 116.522 224.18 115.91 224.18ZM125.071 224.144C124.327 224.144 123.685 223.994 123.145 223.694C122.605 223.394 122.191 222.968 121.903 222.416C121.615 221.852 121.471 221.192 121.471 220.436C121.471 219.848 121.537 219.26 121.669 218.672C121.801 218.072 121.993 217.508 122.245 216.98C122.509 216.452 122.833 215.984 123.217 215.576C123.601 215.156 124.051 214.826 124.567 214.586C125.083 214.346 125.659 214.226 126.295 214.226C127.051 214.226 127.693 214.376 128.221 214.676C128.761 214.976 129.175 215.408 129.463 215.972C129.751 216.524 129.895 217.184 129.895 217.952C129.895 218.54 129.829 219.128 129.697 219.716C129.565 220.304 129.367 220.868 129.103 221.408C128.851 221.936 128.533 222.404 128.149 222.812C127.765 223.22 127.315 223.544 126.799 223.784C126.283 224.024 125.707 224.144 125.071 224.144ZM125.161 222.83C125.509 222.83 125.833 222.758 126.133 222.614C126.445 222.47 126.733 222.26 126.997 221.984C127.261 221.696 127.483 221.348 127.663 220.94C127.855 220.52 128.005 220.046 128.113 219.518C128.221 218.99 128.275 218.408 128.275 217.772C128.275 217.412 128.209 217.064 128.077 216.728C127.957 216.38 127.753 216.098 127.465 215.882C127.177 215.654 126.793 215.54 126.313 215.54C125.917 215.54 125.551 215.624 125.215 215.792C124.879 215.96 124.579 216.2 124.315 216.512C124.051 216.812 123.823 217.172 123.631 217.592C123.451 218 123.313 218.45 123.217 218.942C123.121 219.434 123.073 219.95 123.073 220.49C123.073 221.234 123.253 221.81 123.613 222.218C123.985 222.626 124.501 222.83 125.161 222.83ZM138.741 224L140.811 214.298H142.215L142.017 216.08H142.035C142.263 215.78 142.527 215.48 142.827 215.18C143.139 214.88 143.499 214.628 143.907 214.424C144.315 214.22 144.777 214.118 145.293 214.118C145.809 214.118 146.253 214.214 146.625 214.406C146.997 214.598 147.279 214.874 147.471 215.234C147.675 215.594 147.777 216.032 147.777 216.548C147.777 216.824 147.753 217.106 147.705 217.394C147.669 217.682 147.627 217.934 147.579 218.15L146.301 224H144.609L145.905 217.934C145.965 217.658 146.007 217.43 146.031 217.25C146.067 217.058 146.085 216.878 146.085 216.71C146.085 216.326 145.983 216.038 145.779 215.846C145.575 215.654 145.269 215.558 144.861 215.558C144.465 215.558 144.033 215.696 143.565 215.972C143.109 216.248 142.677 216.698 142.269 217.322C141.873 217.946 141.561 218.786 141.333 219.842L140.433 224H138.741ZM148.336 228.32L151.288 214.352H152.584L152.368 216.152H152.44C152.728 215.792 153.034 215.468 153.358 215.18C153.682 214.88 154.036 214.64 154.42 214.46C154.804 214.28 155.218 214.19 155.662 214.19C156.178 214.19 156.628 214.316 157.012 214.568C157.408 214.808 157.714 215.174 157.93 215.666C158.158 216.146 158.272 216.752 158.272 217.484C158.272 218.192 158.2 218.876 158.056 219.536C157.924 220.196 157.72 220.808 157.444 221.372C157.18 221.924 156.856 222.416 156.472 222.848C156.1 223.268 155.668 223.598 155.176 223.838C154.684 224.066 154.15 224.18 153.574 224.18C153.142 224.18 152.764 224.102 152.44 223.946C152.128 223.79 151.864 223.586 151.648 223.334C151.432 223.082 151.252 222.812 151.108 222.524H151.018C151.006 222.716 150.976 222.986 150.928 223.334C150.88 223.67 150.832 223.946 150.784 224.162L149.902 228.32H148.336ZM153.448 222.866C153.832 222.866 154.186 222.77 154.51 222.578C154.846 222.374 155.146 222.098 155.41 221.75C155.674 221.39 155.896 220.982 156.076 220.526C156.268 220.058 156.412 219.566 156.508 219.05C156.604 218.522 156.652 217.988 156.652 217.448C156.652 216.8 156.52 216.314 156.256 215.99C156.004 215.666 155.626 215.504 155.122 215.504C154.858 215.504 154.588 215.57 154.312 215.702C154.036 215.834 153.766 216.026 153.502 216.278C153.238 216.518 152.992 216.806 152.764 217.142C152.536 217.478 152.332 217.85 152.152 218.258C151.984 218.654 151.852 219.08 151.756 219.536C151.66 219.98 151.612 220.442 151.612 220.922C151.612 221.498 151.762 221.966 152.062 222.326C152.362 222.686 152.824 222.866 153.448 222.866ZM163.512 224.18C162.768 224.18 162.132 224.036 161.604 223.748C161.088 223.448 160.692 223.028 160.416 222.488C160.152 221.936 160.02 221.288 160.02 220.544C160.02 219.776 160.128 219.02 160.344 218.276C160.572 217.52 160.896 216.836 161.316 216.224C161.736 215.6 162.24 215.102 162.828 214.73C163.428 214.358 164.1 214.172 164.844 214.172C165.756 214.172 166.44 214.37 166.896 214.766C167.364 215.162 167.598 215.714 167.598 216.422C167.598 216.89 167.49 217.334 167.274 217.754C167.058 218.162 166.722 218.522 166.266 218.834C165.81 219.146 165.228 219.392 164.52 219.572C163.812 219.74 162.96 219.824 161.964 219.824H161.658C161.646 219.932 161.634 220.046 161.622 220.166C161.622 220.286 161.622 220.394 161.622 220.49C161.622 221.222 161.802 221.804 162.162 222.236C162.522 222.656 163.068 222.866 163.8 222.866C164.256 222.866 164.688 222.8 165.096 222.668C165.504 222.536 165.948 222.356 166.428 222.128V223.478C165.972 223.682 165.522 223.85 165.078 223.982C164.646 224.114 164.124 224.18 163.512 224.18ZM162.018 218.546C162.738 218.546 163.404 218.486 164.016 218.366C164.628 218.234 165.12 218.024 165.492 217.736C165.864 217.436 166.05 217.04 166.05 216.548C166.05 216.236 165.942 215.984 165.726 215.792C165.522 215.588 165.198 215.486 164.754 215.486C164.37 215.486 163.992 215.606 163.62 215.846C163.248 216.086 162.912 216.434 162.612 216.89C162.312 217.346 162.072 217.898 161.892 218.546H162.018ZM172.603 224.144C171.859 224.144 171.217 223.994 170.677 223.694C170.137 223.394 169.723 222.968 169.435 222.416C169.147 221.852 169.003 221.192 169.003 220.436C169.003 219.848 169.069 219.26 169.201 218.672C169.333 218.072 169.525 217.508 169.777 216.98C170.041 216.452 170.365 215.984 170.749 215.576C171.133 215.156 171.583 214.826 172.099 214.586C172.615 214.346 173.191 214.226 173.827 214.226C174.583 214.226 175.225 214.376 175.753 214.676C176.293 214.976 176.707 215.408 176.995 215.972C177.283 216.524 177.427 217.184 177.427 217.952C177.427 218.54 177.361 219.128 177.229 219.716C177.097 220.304 176.899 220.868 176.635 221.408C176.383 221.936 176.065 222.404 175.681 222.812C175.297 223.22 174.847 223.544 174.331 223.784C173.815 224.024 173.239 224.144 172.603 224.144ZM172.693 222.83C173.041 222.83 173.365 222.758 173.665 222.614C173.977 222.47 174.265 222.26 174.529 221.984C174.793 221.696 175.015 221.348 175.195 220.94C175.387 220.52 175.537 220.046 175.645 219.518C175.753 218.99 175.807 218.408 175.807 217.772C175.807 217.412 175.741 217.064 175.609 216.728C175.489 216.38 175.285 216.098 174.997 215.882C174.709 215.654 174.325 215.54 173.845 215.54C173.449 215.54 173.083 215.624 172.747 215.792C172.411 215.96 172.111 216.2 171.847 216.512C171.583 216.812 171.355 217.172 171.163 217.592C170.983 218 170.845 218.45 170.749 218.942C170.653 219.434 170.605 219.95 170.605 220.49C170.605 221.234 170.785 221.81 171.145 222.218C171.517 222.626 172.033 222.83 172.693 222.83ZM182.601 224.18C181.869 224.18 181.245 224.03 180.729 223.73C180.225 223.418 179.835 222.962 179.559 222.362C179.295 221.75 179.163 221 179.163 220.112C179.163 219.656 179.199 219.146 179.271 218.582C179.343 218.018 179.451 217.43 179.595 216.818C179.751 216.206 179.949 215.606 180.189 215.018C180.429 214.418 180.717 213.86 181.053 213.344C181.389 212.828 181.779 212.384 182.223 212.012C182.679 211.628 183.189 211.352 183.753 211.184C183.969 211.112 184.281 211.034 184.689 210.95C185.109 210.854 185.565 210.758 186.057 210.662C186.549 210.554 187.017 210.464 187.461 210.392C187.905 210.32 188.259 210.266 188.523 210.23L188.703 211.526C188.367 211.574 187.935 211.646 187.407 211.742C186.879 211.838 186.345 211.946 185.805 212.066C185.277 212.174 184.827 212.288 184.455 212.408C183.951 212.564 183.489 212.834 183.069 213.218C182.661 213.59 182.301 214.064 181.989 214.64C181.677 215.204 181.419 215.87 181.215 216.638L181.269 216.656C181.593 216.272 182.031 215.906 182.583 215.558C183.135 215.21 183.765 215.036 184.473 215.036C185.385 215.036 186.063 215.324 186.507 215.9C186.963 216.464 187.191 217.256 187.191 218.276C187.191 218.864 187.137 219.446 187.029 220.022C186.921 220.586 186.747 221.12 186.507 221.624C186.279 222.128 185.985 222.572 185.625 222.956C185.265 223.34 184.833 223.64 184.329 223.856C183.837 224.072 183.261 224.18 182.601 224.18ZM182.745 222.866C183.165 222.866 183.531 222.77 183.843 222.578C184.167 222.386 184.437 222.128 184.653 221.804C184.869 221.48 185.043 221.126 185.175 220.742C185.319 220.346 185.421 219.95 185.481 219.554C185.541 219.146 185.571 218.774 185.571 218.438C185.571 217.718 185.445 217.19 185.193 216.854C184.941 216.518 184.563 216.35 184.059 216.35C183.615 216.35 183.189 216.458 182.781 216.674C182.385 216.89 182.031 217.148 181.719 217.448C181.407 217.736 181.155 218.012 180.963 218.276C180.915 218.6 180.867 218.924 180.819 219.248C180.783 219.572 180.765 219.878 180.765 220.166C180.765 220.706 180.831 221.18 180.963 221.588C181.095 221.984 181.305 222.296 181.593 222.524C181.881 222.752 182.265 222.866 182.745 222.866ZM187.694 228.32L190.646 214.352H191.942L191.726 216.152H191.798C192.086 215.792 192.392 215.468 192.716 215.18C193.04 214.88 193.394 214.64 193.778 214.46C194.162 214.28 194.576 214.19 195.02 214.19C195.536 214.19 195.986 214.316 196.37 214.568C196.766 214.808 197.072 215.174 197.288 215.666C197.516 216.146 197.63 216.752 197.63 217.484C197.63 218.192 197.558 218.876 197.414 219.536C197.282 220.196 197.078 220.808 196.802 221.372C196.538 221.924 196.214 222.416 195.83 222.848C195.458 223.268 195.026 223.598 194.534 223.838C194.042 224.066 193.508 224.18 192.932 224.18C192.5 224.18 192.122 224.102 191.798 223.946C191.486 223.79 191.222 223.586 191.006 223.334C190.79 223.082 190.61 222.812 190.466 222.524H190.376C190.364 222.716 190.334 222.986 190.286 223.334C190.238 223.67 190.19 223.946 190.142 224.162L189.26 228.32H187.694ZM192.806 222.866C193.19 222.866 193.544 222.77 193.868 222.578C194.204 222.374 194.504 222.098 194.768 221.75C195.032 221.39 195.254 220.982 195.434 220.526C195.626 220.058 195.77 219.566 195.866 219.05C195.962 218.522 196.01 217.988 196.01 217.448C196.01 216.8 195.878 216.314 195.614 215.99C195.362 215.666 194.984 215.504 194.48 215.504C194.216 215.504 193.946 215.57 193.67 215.702C193.394 215.834 193.124 216.026 192.86 216.278C192.596 216.518 192.35 216.806 192.122 217.142C191.894 217.478 191.69 217.85 191.51 218.258C191.342 218.654 191.21 219.08 191.114 219.536C191.018 219.98 190.97 220.442 190.97 220.922C190.97 221.498 191.12 221.966 191.42 222.326C191.72 222.686 192.182 222.866 192.806 222.866ZM201.988 224.18C201.472 224.18 201.016 224.06 200.62 223.82C200.236 223.568 199.93 223.196 199.702 222.704C199.486 222.212 199.378 221.606 199.378 220.886C199.378 220.166 199.45 219.476 199.594 218.816C199.75 218.144 199.966 217.526 200.242 216.962C200.518 216.398 200.848 215.912 201.232 215.504C201.628 215.084 202.066 214.76 202.546 214.532C203.038 214.292 203.56 214.172 204.112 214.172C204.532 214.172 204.898 214.25 205.21 214.406C205.534 214.562 205.804 214.766 206.02 215.018C206.236 215.27 206.41 215.546 206.542 215.846H206.632L207.208 214.352H208.414L206.362 224H205.102L205.336 222.218H205.264C204.988 222.566 204.682 222.89 204.346 223.19C204.01 223.49 203.644 223.73 203.248 223.91C202.864 224.09 202.444 224.18 201.988 224.18ZM202.51 222.866C202.954 222.866 203.386 222.704 203.806 222.38C204.238 222.056 204.628 221.618 204.976 221.066C205.324 220.514 205.588 219.896 205.768 219.212C205.864 218.864 205.924 218.546 205.948 218.258C205.984 217.958 206.002 217.682 206.002 217.43C206.002 216.866 205.846 216.404 205.534 216.044C205.222 215.684 204.802 215.504 204.274 215.504C203.902 215.504 203.548 215.6 203.212 215.792C202.888 215.984 202.588 216.254 202.312 216.602C202.036 216.938 201.802 217.334 201.61 217.79C201.418 218.246 201.268 218.744 201.16 219.284C201.052 219.812 200.998 220.358 200.998 220.922C200.998 221.57 201.13 222.056 201.394 222.38C201.658 222.704 202.03 222.866 202.51 222.866ZM209.536 224.18C209.368 224.18 209.182 224.168 208.978 224.144C208.786 224.12 208.612 224.084 208.456 224.036L208.69 222.74C208.81 222.776 208.948 222.806 209.104 222.83C209.26 222.854 209.41 222.866 209.554 222.866C209.974 222.866 210.352 222.77 210.688 222.578C211.024 222.374 211.324 222.104 211.588 221.768C211.852 221.432 212.068 221.054 212.236 220.634C212.416 220.202 212.548 219.752 212.632 219.284C212.728 218.816 212.776 218.36 212.776 217.916C212.776 217.22 212.644 216.644 212.38 216.188C212.116 215.732 211.672 215.504 211.048 215.504C210.868 215.504 210.694 215.516 210.526 215.54C210.37 215.564 210.208 215.594 210.04 215.63V214.334C210.208 214.298 210.4 214.262 210.616 214.226C210.832 214.19 211.054 214.172 211.282 214.172C212.314 214.172 213.088 214.502 213.604 215.162C214.12 215.81 214.378 216.716 214.378 217.88C214.378 217.988 214.372 218.102 214.36 218.222C214.36 218.33 214.354 218.432 214.342 218.528H215.818L216.7 214.352H218.158L217.258 218.528H218.68C218.788 218.048 218.956 217.556 219.184 217.052C219.412 216.536 219.706 216.062 220.066 215.63C220.438 215.198 220.882 214.85 221.398 214.586C221.926 214.31 222.532 214.172 223.216 214.172C223.42 214.172 223.624 214.184 223.828 214.208C224.032 214.232 224.242 214.274 224.458 214.334L224.17 215.612C224.038 215.576 223.888 215.552 223.72 215.54C223.552 215.516 223.39 215.504 223.234 215.504C222.814 215.504 222.436 215.606 222.1 215.81C221.764 216.002 221.47 216.266 221.218 216.602C220.966 216.938 220.756 217.322 220.588 217.754C220.42 218.174 220.294 218.618 220.21 219.086C220.126 219.542 220.084 219.992 220.084 220.436C220.084 221.132 220.21 221.714 220.462 222.182C220.714 222.638 221.152 222.866 221.776 222.866C221.98 222.866 222.154 222.854 222.298 222.83C222.454 222.806 222.616 222.77 222.784 222.722V224.036C222.628 224.06 222.442 224.09 222.226 224.126C222.01 224.162 221.788 224.18 221.56 224.18C220.876 224.18 220.306 224.036 219.85 223.748C219.394 223.448 219.046 223.022 218.806 222.47C218.578 221.918 218.464 221.252 218.464 220.472C218.464 220.34 218.464 220.214 218.464 220.094C218.476 219.974 218.488 219.854 218.5 219.734H217.006L216.106 224H214.666L215.584 219.734H214.162C214.042 220.274 213.856 220.808 213.604 221.336C213.364 221.864 213.052 222.344 212.668 222.776C212.296 223.208 211.846 223.55 211.318 223.802C210.802 224.054 210.208 224.18 209.536 224.18ZM228.305 224.18C227.561 224.18 226.925 224.036 226.397 223.748C225.881 223.448 225.485 223.028 225.209 222.488C224.945 221.936 224.813 221.288 224.813 220.544C224.813 219.776 224.921 219.02 225.137 218.276C225.365 217.52 225.689 216.836 226.109 216.224C226.529 215.6 227.033 215.102 227.621 214.73C228.221 214.358 228.893 214.172 229.637 214.172C230.549 214.172 231.233 214.37 231.689 214.766C232.157 215.162 232.391 215.714 232.391 216.422C232.391 216.89 232.283 217.334 232.067 217.754C231.851 218.162 231.515 218.522 231.059 218.834C230.603 219.146 230.021 219.392 229.313 219.572C228.605 219.74 227.753 219.824 226.757 219.824H226.451C226.439 219.932 226.427 220.046 226.415 220.166C226.415 220.286 226.415 220.394 226.415 220.49C226.415 221.222 226.595 221.804 226.955 222.236C227.315 222.656 227.861 222.866 228.593 222.866C229.049 222.866 229.481 222.8 229.889 222.668C230.297 222.536 230.741 222.356 231.221 222.128V223.478C230.765 223.682 230.315 223.85 229.871 223.982C229.439 224.114 228.917 224.18 228.305 224.18ZM226.811 218.546C227.531 218.546 228.197 218.486 228.809 218.366C229.421 218.234 229.913 218.024 230.285 217.736C230.657 217.436 230.843 217.04 230.843 216.548C230.843 216.236 230.735 215.984 230.519 215.792C230.315 215.588 229.991 215.486 229.547 215.486C229.163 215.486 228.785 215.606 228.413 215.846C228.041 216.086 227.705 216.434 227.405 216.89C227.105 217.346 226.865 217.898 226.685 218.546H226.811ZM233.436 224L235.488 214.352H237.054L236.226 218.366H240.762L241.626 214.352H243.21L241.176 224H239.574L240.474 219.68H235.938L235.02 224H233.436ZM247.144 224.18C246.664 224.18 246.238 224.09 245.866 223.91C245.506 223.73 245.224 223.46 245.02 223.1C244.828 222.74 244.732 222.302 244.732 221.786C244.732 221.51 244.75 221.252 244.786 221.012C244.834 220.76 244.882 220.502 244.93 220.238L246.19 214.352H247.792L246.496 220.418C246.448 220.682 246.406 220.91 246.37 221.102C246.346 221.294 246.334 221.468 246.334 221.624C246.334 222.008 246.43 222.314 246.622 222.542C246.826 222.758 247.15 222.866 247.594 222.866C248.002 222.866 248.44 222.722 248.908 222.434C249.388 222.146 249.832 221.684 250.24 221.048C250.648 220.412 250.966 219.566 251.194 218.51L252.076 214.352H253.642L251.59 224H250.294L250.492 222.218H250.402C250.174 222.506 249.904 222.806 249.592 223.118C249.292 223.418 248.938 223.67 248.53 223.874C248.134 224.078 247.672 224.18 247.144 224.18ZM258.522 224.18C257.778 224.18 257.142 224.036 256.614 223.748C256.098 223.448 255.702 223.028 255.426 222.488C255.162 221.936 255.03 221.288 255.03 220.544C255.03 219.776 255.138 219.02 255.354 218.276C255.582 217.52 255.906 216.836 256.326 216.224C256.746 215.6 257.25 215.102 257.838 214.73C258.438 214.358 259.11 214.172 259.854 214.172C260.766 214.172 261.45 214.37 261.906 214.766C262.374 215.162 262.608 215.714 262.608 216.422C262.608 216.89 262.5 217.334 262.284 217.754C262.068 218.162 261.732 218.522 261.276 218.834C260.82 219.146 260.238 219.392 259.53 219.572C258.822 219.74 257.97 219.824 256.974 219.824H256.668C256.656 219.932 256.644 220.046 256.632 220.166C256.632 220.286 256.632 220.394 256.632 220.49C256.632 221.222 256.812 221.804 257.172 222.236C257.532 222.656 258.078 222.866 258.81 222.866C259.266 222.866 259.698 222.8 260.106 222.668C260.514 222.536 260.958 222.356 261.438 222.128V223.478C260.982 223.682 260.532 223.85 260.088 223.982C259.656 224.114 259.134 224.18 258.522 224.18ZM257.028 218.546C257.748 218.546 258.414 218.486 259.026 218.366C259.638 218.234 260.13 218.024 260.502 217.736C260.874 217.436 261.06 217.04 261.06 216.548C261.06 216.236 260.952 215.984 260.736 215.792C260.532 215.588 260.208 215.486 259.764 215.486C259.38 215.486 259.002 215.606 258.63 215.846C258.258 216.086 257.922 216.434 257.622 216.89C257.322 217.346 257.082 217.898 256.902 218.546H257.028ZM270.564 210.392C270.564 209.792 270.378 209.324 270.006 208.988C269.922 208.916 269.85 208.862 269.79 208.826C269.73 208.778 269.7 208.748 269.7 208.736L270.276 208.376C270.624 208.16 270.828 208.052 270.888 208.052C270.948 208.052 271.038 208.124 271.158 208.268C271.278 208.412 271.392 208.622 271.5 208.898C271.62 209.162 271.68 209.432 271.68 209.708C271.68 210.488 271.452 211.31 270.996 212.174C270.54 213.026 269.868 213.836 268.98 214.604C268.62 214.916 268.266 215.174 267.918 215.378C267.582 215.582 267.366 215.684 267.27 215.684C267.186 215.684 267.144 215.672 267.144 215.648C267.144 215.624 267.192 215.594 267.288 215.558C267.384 215.51 267.564 215.39 267.828 215.198C268.104 215.006 268.404 214.748 268.728 214.424C269.952 213.2 270.564 211.856 270.564 210.392ZM273.408 210.392C273.408 209.792 273.222 209.324 272.85 208.988C272.766 208.916 272.694 208.862 272.634 208.826C272.574 208.778 272.544 208.748 272.544 208.736L273.12 208.376C273.468 208.16 273.672 208.052 273.732 208.052C273.792 208.052 273.882 208.124 274.002 208.268C274.122 208.412 274.236 208.622 274.344 208.898C274.464 209.162 274.524 209.432 274.524 209.708C274.524 210.488 274.296 211.31 273.84 212.174C273.384 213.026 272.712 213.836 271.824 214.604C271.464 214.916 271.11 215.174 270.762 215.378C270.426 215.582 270.21 215.684 270.114 215.684C270.03 215.684 269.988 215.672 269.988 215.648C269.988 215.624 270.036 215.594 270.132 215.558C270.228 215.51 270.408 215.39 270.672 215.198C270.948 215.006 271.248 214.748 271.572 214.424C272.796 213.2 273.408 211.856 273.408 210.392Z" fill="white"/>
<defs>
<filter id="filter0_d_1_5" x="52.4961" y="0.300781" width="214.633" height="92.1992" filterUnits="userSpaceOnUse" color-interpolation-filters="sRGB">
<feFlood flood-opacity="0" result="BackgroundImageFix"/>
<feColorMatrix in="SourceAlpha" type="matrix" values="0 0 0 0 0 0 0 0 0 0 0 0 0 0 0 0 0 0 127 0" result="hardAlpha"/>
<feOffset dy="5.5"/>
<feGaussianBlur stdDeviation="2.75"/>
<feComposite in2="hardAlpha" operator="out"/>
<feColorMatrix type="matrix" values="0 0 0 0 0 0 0 0 0 0 0 0 0 0 0 0 0 0 0.25 0"/>
<feBlend mode="normal" in2="BackgroundImageFix" result="effect1_dropShadow_1_5"/>
<feBlend mode="normal" in="SourceGraphic" in2="effect1_dropShadow_1_5" result="shape"/>
</filter>
<filter id="filter1_d_1_5" x="47" y="112.805" width="226.152" height="51.9355" filterUnits="userSpaceOnUse" color-interpolation-filters="sRGB">
<feFlood flood-opacity="0" result="BackgroundImageFix"/>
<feColorMatrix in="SourceAlpha" type="matrix" values="0 0 0 0 0 0 0 0 0 0 0 0 0 0 0 0 0 0 127 0" result="hardAlpha"/>
<feOffset dy="2.75"/>
<feGaussianBlur stdDeviation="1.375"/>
<feComposite in2="hardAlpha" operator="out"/>
<feColorMatrix type="matrix" values="0 0 0 0 0 0 0 0 0 0 0 0 0 0 0 0 0 0 0.25 0"/>
<feBlend mode="normal" in2="BackgroundImageFix" result="effect1_dropShadow_1_5"/>
<feBlend mode="normal" in="SourceGraphic" in2="effect1_dropShadow_1_5" result="shape"/>
</filter>
</defs>
</svg>
