<svg width="423" height="58" viewBox="0 0 423 58" fill="none" xmlns="http://www.w3.org/2000/svg">
<path d="M7.688 7.792C7.688 8.592 7.936 9.216 8.432 9.664C8.544 9.76 8.64 9.84 8.72 9.904C8.8 9.952 8.84 9.984 8.84 10L8.072 10.48C7.608 10.768 7.336 10.912 7.256 10.912C7.176 10.912 7.056 10.816 6.896 10.624C6.736 10.432 6.576 10.16 6.416 9.808C6.272 9.44 6.2 9.072 6.2 8.704C6.2 7.664 6.504 6.576 7.112 5.44C7.72 4.288 8.616 3.2 9.8 2.176C10.28 1.76 10.744 1.416 11.192 1.144C11.656 0.871999 11.944 0.735999 12.056 0.735999C12.184 0.735999 12.248 0.751999 12.248 0.783998C12.248 0.815999 12.184 0.863999 12.056 0.927999C11.928 0.975999 11.68 1.128 11.312 1.384C10.96 1.64 10.568 1.984 10.136 2.416C8.504 4.048 7.688 5.84 7.688 7.792ZM11.48 7.792C11.48 8.592 11.728 9.216 12.224 9.664C12.336 9.76 12.432 9.84 12.512 9.904C12.592 9.952 12.632 9.984 12.632 10L11.864 10.48C11.4 10.768 11.128 10.912 11.048 10.912C10.968 10.912 10.848 10.816 10.688 10.624C10.528 10.432 10.368 10.16 10.208 9.808C10.064 9.44 9.992 9.072 9.992 8.704C9.992 7.664 10.296 6.576 10.904 5.44C11.512 4.288 12.408 3.2 13.592 2.176C14.072 1.76 14.536 1.416 14.984 1.144C15.448 0.871999 15.736 0.735999 15.848 0.735999C15.976 0.735999 16.04 0.751999 16.04 0.783998C16.04 0.815999 15.976 0.863999 15.848 0.927999C15.72 0.975999 15.472 1.128 15.104 1.384C14.752 1.64 14.36 1.984 13.928 2.416C12.296 4.048 11.48 5.84 11.48 7.792ZM11.9371 22L15.5611 4.864H19.4251C20.6571 4.864 21.6491 5.056 22.4011 5.44C23.1531 5.808 23.6971 6.328 24.0331 7C24.3851 7.656 24.5611 8.432 24.5611 9.328C24.5611 10.288 24.4011 11.144 24.0811 11.896C23.7611 12.632 23.2811 13.256 22.6411 13.768C22.0011 14.28 21.2091 14.664 20.2651 14.92C19.3371 15.176 18.2571 15.304 17.0251 15.304H15.4891L14.0731 22H11.9371ZM17.3611 13.504C18.3851 13.504 19.2731 13.36 20.0251 13.072C20.7771 12.784 21.3531 12.336 21.7531 11.728C22.1691 11.12 22.3771 10.344 22.3771 9.4C22.3771 8.456 22.1051 7.776 21.5611 7.36C21.0331 6.928 20.2251 6.712 19.1371 6.712H17.3131L15.8731 13.504H17.3611ZM30.3783 22.24C29.3863 22.24 28.5383 22.048 27.8343 21.664C27.1463 21.264 26.6183 20.704 26.2503 19.984C25.8983 19.248 25.7223 18.384 25.7223 17.392C25.7223 16.368 25.8663 15.36 26.1543 14.368C26.4583 13.36 26.8903 12.448 27.4503 11.632C28.0103 10.8 28.6823 10.136 29.4663 9.64C30.2663 9.144 31.1623 8.896 32.1543 8.896C33.3703 8.896 34.2823 9.16 34.8903 9.688C35.5143 10.216 35.8263 10.952 35.8263 11.896C35.8263 12.52 35.6823 13.112 35.3943 13.672C35.1063 14.216 34.6583 14.696 34.0503 15.112C33.4423 15.528 32.6663 15.856 31.7223 16.096C30.7783 16.32 29.6423 16.432 28.3143 16.432H27.9063C27.8903 16.576 27.8743 16.728 27.8583 16.888C27.8583 17.048 27.8583 17.192 27.8583 17.32C27.8583 18.296 28.0983 19.072 28.5783 19.648C29.0583 20.208 29.7863 20.488 30.7623 20.488C31.3703 20.488 31.9463 20.4 32.4903 20.224C33.0343 20.048 33.6263 19.808 34.2663 19.504V21.304C33.6583 21.576 33.0583 21.8 32.4663 21.976C31.8903 22.152 31.1943 22.24 30.3783 22.24ZM28.3863 14.728C29.3463 14.728 30.2343 14.648 31.0503 14.488C31.8663 14.312 32.5223 14.032 33.0183 13.648C33.5143 13.248 33.7623 12.72 33.7623 12.064C33.7623 11.648 33.6183 11.312 33.3303 11.056C33.0583 10.784 32.6263 10.648 32.0343 10.648C31.5223 10.648 31.0183 10.808 30.5223 11.128C30.0263 11.448 29.5783 11.912 29.1783 12.52C28.7783 13.128 28.4583 13.864 28.2183 14.728H28.3863ZM41.1789 22.24C40.4909 22.24 39.8829 22.08 39.3549 21.76C38.8429 21.424 38.4349 20.928 38.1309 20.272C37.8429 19.616 37.6989 18.808 37.6989 17.848C37.6989 16.888 37.7949 15.968 37.9869 15.088C38.1949 14.192 38.4829 13.368 38.8509 12.616C39.2189 11.864 39.6589 11.216 40.1709 10.672C40.6989 10.112 41.2829 9.68 41.9229 9.376C42.5789 9.056 43.2749 8.896 44.0109 8.896C44.5709 8.896 45.0589 9 45.4749 9.208C45.9069 9.416 46.2669 9.688 46.5549 10.024C46.8429 10.36 47.0749 10.728 47.2509 11.128H47.3709L48.1389 9.136H49.7469L47.0109 22H45.3309L45.6429 19.624H45.5469C45.1789 20.088 44.7709 20.52 44.3229 20.92C43.8749 21.32 43.3869 21.64 42.8589 21.88C42.3469 22.12 41.7869 22.24 41.1789 22.24ZM41.8749 20.488C42.4669 20.488 43.0429 20.272 43.6029 19.84C44.1789 19.408 44.6989 18.824 45.1629 18.088C45.6269 17.352 45.9789 16.528 46.2189 15.616C46.3469 15.152 46.4269 14.728 46.4589 14.344C46.5069 13.944 46.5309 13.576 46.5309 13.24C46.5309 12.488 46.3229 11.872 45.9069 11.392C45.4909 10.912 44.9309 10.672 44.2269 10.672C43.7309 10.672 43.2589 10.8 42.8109 11.056C42.3789 11.312 41.9789 11.672 41.6109 12.136C41.2429 12.584 40.9309 13.112 40.6749 13.72C40.4189 14.328 40.2189 14.992 40.0749 15.712C39.9309 16.416 39.8589 17.144 39.8589 17.896C39.8589 18.76 40.0349 19.408 40.3869 19.84C40.7389 20.272 41.2349 20.488 41.8749 20.488ZM50.1155 22.168C49.9075 22.168 49.7155 22.144 49.5395 22.096C49.3635 22.064 49.2275 22.032 49.1315 22V20.176C49.2435 20.224 49.3635 20.264 49.4915 20.296C49.6195 20.312 49.7635 20.32 49.9235 20.32C50.3075 20.32 50.6435 20.232 50.9315 20.056C51.2355 19.864 51.5155 19.568 51.7715 19.168C52.0275 18.768 52.2835 18.248 52.5395 17.608C52.8115 16.968 53.0995 16.2 53.4035 15.304C53.7715 14.232 54.1235 13.304 54.4595 12.52C54.7955 11.736 55.1715 11.088 55.5875 10.576C56.0195 10.048 56.5475 9.656 57.1715 9.4C57.7955 9.144 58.5715 9.016 59.4995 9.016C60.0435 9.016 60.5715 9.056 61.0835 9.136C61.5955 9.2 62.0595 9.296 62.4755 9.424L59.7875 22H57.6515L60.0755 10.888C59.9635 10.856 59.8275 10.832 59.6675 10.816C59.5075 10.8 59.3395 10.792 59.1635 10.792C58.5075 10.792 57.9715 10.952 57.5555 11.272C57.1555 11.576 56.7875 12.104 56.4515 12.856C56.1155 13.608 55.7155 14.664 55.2515 16.024C54.8995 17.016 54.5635 17.896 54.2435 18.664C53.9235 19.416 53.5795 20.056 53.2115 20.584C52.8435 21.096 52.4115 21.488 51.9155 21.76C51.4195 22.032 50.8195 22.168 50.1155 22.168ZM67.7782 22.24C67.1382 22.24 66.5702 22.12 66.0742 21.88C65.5942 21.64 65.2182 21.28 64.9462 20.8C64.6902 20.32 64.5622 19.736 64.5622 19.048C64.5622 18.68 64.5862 18.336 64.6342 18.016C64.6982 17.68 64.7622 17.336 64.8262 16.984L66.5062 9.136H68.6422L66.9142 17.224C66.8502 17.576 66.7942 17.88 66.7462 18.136C66.7142 18.392 66.6982 18.624 66.6982 18.832C66.6982 19.344 66.8262 19.752 67.0822 20.056C67.3542 20.344 67.7862 20.488 68.3782 20.488C68.9222 20.488 69.5062 20.296 70.1302 19.912C70.7702 19.528 71.3622 18.912 71.9062 18.064C72.4502 17.216 72.8742 16.088 73.1782 14.68L74.3542 9.136H76.4422L73.7062 22H71.9782L72.2422 19.624H72.1222C71.8182 20.008 71.4582 20.408 71.0422 20.824C70.6422 21.224 70.1702 21.56 69.6262 21.832C69.0982 22.104 68.4822 22.24 67.7782 22.24ZM80.8126 22.24C80.1246 22.24 79.4446 22.16 78.7726 22C78.1166 21.856 77.5646 21.664 77.1166 21.424V19.48C77.5326 19.704 78.0686 19.936 78.7246 20.176C79.3806 20.4 80.1326 20.512 80.9806 20.512C81.6526 20.512 82.2366 20.416 82.7326 20.224C83.2286 20.016 83.6126 19.736 83.8846 19.384C84.1566 19.016 84.2926 18.592 84.2926 18.112C84.2926 17.552 84.1246 17.096 83.7886 16.744C83.4686 16.392 82.8286 16.216 81.8686 16.216H80.0926L80.5006 14.44H81.6766C82.2046 14.44 82.7246 14.384 83.2366 14.272C83.7646 14.16 84.1966 13.944 84.5326 13.624C84.8686 13.304 85.0366 12.84 85.0366 12.232C85.0366 11.752 84.8686 11.376 84.5326 11.104C84.2126 10.816 83.7166 10.672 83.0446 10.672C82.6766 10.672 82.3166 10.704 81.9646 10.768C81.6126 10.816 81.2526 10.904 80.8846 11.032C80.5326 11.144 80.1486 11.296 79.7326 11.488L79.1086 9.88C79.7646 9.56 80.4206 9.32 81.0766 9.16C81.7486 8.984 82.5006 8.896 83.3326 8.896C84.1326 8.896 84.8126 9.016 85.3726 9.256C85.9486 9.496 86.3886 9.84 86.6926 10.288C86.9966 10.736 87.1486 11.28 87.1486 11.92C87.1486 12.496 87.0286 13.008 86.7886 13.456C86.5646 13.904 86.2286 14.28 85.7806 14.584C85.3326 14.888 84.7806 15.112 84.1246 15.256V15.304C84.8126 15.48 85.3486 15.792 85.7326 16.24C86.1166 16.688 86.3086 17.288 86.3086 18.04C86.3086 18.824 86.1086 19.536 85.7086 20.176C85.3086 20.816 84.7006 21.32 83.8846 21.688C83.0686 22.056 82.0446 22.24 80.8126 22.24ZM87.2047 27.76C86.8207 27.76 86.5087 27.736 86.2687 27.688C86.0127 27.64 85.7727 27.584 85.5487 27.52V25.816C85.7727 25.88 86.0127 25.928 86.2687 25.96C86.5247 26.008 86.7967 26.032 87.0847 26.032C87.7407 26.032 88.2927 25.832 88.7407 25.432C89.2047 25.032 89.6447 24.448 90.0607 23.68L90.9007 22.192L88.9567 9.136H91.0687L91.9087 15.496C91.9887 16.008 92.0447 16.576 92.0767 17.2C92.1247 17.808 92.1567 18.392 92.1727 18.952C92.2047 19.496 92.2207 19.936 92.2207 20.272H92.2927C92.4047 20.016 92.5647 19.632 92.7727 19.12C92.9967 18.608 93.2367 18.08 93.4927 17.536C93.7487 16.992 93.9727 16.544 94.1647 16.192L97.9087 9.136H100.165L92.0047 24.16C91.5727 24.96 91.1327 25.624 90.6847 26.152C90.2367 26.696 89.7327 27.096 89.1727 27.352C88.6127 27.624 87.9567 27.76 87.2047 27.76ZM110.528 22.192C109.024 22.192 107.88 21.728 107.096 20.8C106.328 19.872 105.944 18.688 105.944 17.248C105.944 17.04 105.944 16.848 105.944 16.672C105.96 16.48 105.968 16.336 105.968 16.24H103.016L101.792 22H99.6798L102.416 9.136H104.504L103.4 14.488H106.256C106.512 13.576 106.832 12.776 107.216 12.088C107.616 11.384 108.064 10.808 108.56 10.36C109.072 9.896 109.624 9.552 110.216 9.328C110.808 9.088 111.44 8.968 112.112 8.968C113.136 8.968 113.984 9.184 114.656 9.616C115.328 10.032 115.832 10.616 116.168 11.368C116.52 12.104 116.696 12.96 116.696 13.936C116.696 14.768 116.608 15.584 116.432 16.384C116.272 17.184 116.024 17.936 115.688 18.64C115.352 19.328 114.936 19.944 114.44 20.488C113.944 21.016 113.368 21.432 112.712 21.736C112.056 22.04 111.328 22.192 110.528 22.192ZM110.672 20.44C111.104 20.44 111.512 20.336 111.896 20.128C112.28 19.92 112.632 19.624 112.952 19.24C113.288 18.856 113.568 18.392 113.792 17.848C114.032 17.288 114.216 16.664 114.344 15.976C114.472 15.272 114.536 14.512 114.536 13.696C114.536 12.8 114.32 12.08 113.888 11.536C113.472 10.992 112.872 10.72 112.088 10.72C111.544 10.72 111.056 10.848 110.624 11.104C110.192 11.36 109.816 11.712 109.496 12.16C109.176 12.592 108.912 13.088 108.704 13.648C108.496 14.208 108.336 14.808 108.224 15.448C108.128 16.072 108.08 16.696 108.08 17.32C108.08 18.248 108.288 19 108.704 19.576C109.136 20.152 109.792 20.44 110.672 20.44ZM128.937 22L132.561 4.864H137.001C138.057 4.864 138.961 5.008 139.713 5.296C140.481 5.568 141.065 5.992 141.465 6.568C141.881 7.144 142.089 7.888 142.089 8.8C142.089 9.584 141.929 10.272 141.609 10.864C141.289 11.44 140.841 11.92 140.265 12.304C139.689 12.672 139.009 12.928 138.225 13.072V13.192C139.009 13.4 139.665 13.792 140.193 14.368C140.721 14.944 140.985 15.712 140.985 16.672C140.985 17.84 140.697 18.824 140.121 19.624C139.561 20.408 138.785 21 137.793 21.4C136.817 21.8 135.689 22 134.409 22H128.937ZM134.481 20.176C135.393 20.176 136.161 20.04 136.785 19.768C137.425 19.496 137.905 19.096 138.225 18.568C138.561 18.04 138.729 17.408 138.729 16.672C138.729 15.904 138.481 15.256 137.985 14.728C137.489 14.2 136.649 13.936 135.465 13.936H132.777L131.457 20.176H134.481ZM135.969 12.16C136.689 12.16 137.337 12.048 137.913 11.824C138.505 11.6 138.977 11.264 139.329 10.816C139.681 10.352 139.857 9.768 139.857 9.064C139.857 8.312 139.617 7.736 139.137 7.336C138.657 6.92 137.857 6.712 136.737 6.712H134.313L133.161 12.16H135.969ZM146.976 22.24C146.288 22.24 145.68 22.08 145.152 21.76C144.64 21.424 144.232 20.928 143.928 20.272C143.64 19.616 143.496 18.808 143.496 17.848C143.496 16.888 143.592 15.968 143.784 15.088C143.992 14.192 144.28 13.368 144.648 12.616C145.016 11.864 145.456 11.216 145.968 10.672C146.496 10.112 147.08 9.68 147.72 9.376C148.376 9.056 149.072 8.896 149.808 8.896C150.368 8.896 150.856 9 151.272 9.208C151.704 9.416 152.064 9.688 152.352 10.024C152.64 10.36 152.872 10.728 153.048 11.128H153.168L153.936 9.136H155.544L152.808 22H151.128L151.44 19.624H151.344C150.976 20.088 150.568 20.52 150.12 20.92C149.672 21.32 149.184 21.64 148.656 21.88C148.144 22.12 147.584 22.24 146.976 22.24ZM147.672 20.488C148.264 20.488 148.84 20.272 149.4 19.84C149.976 19.408 150.496 18.824 150.96 18.088C151.424 17.352 151.776 16.528 152.016 15.616C152.144 15.152 152.224 14.728 152.256 14.344C152.304 13.944 152.328 13.576 152.328 13.24C152.328 12.488 152.12 11.872 151.704 11.392C151.288 10.912 150.728 10.672 150.024 10.672C149.528 10.672 149.056 10.8 148.608 11.056C148.176 11.312 147.776 11.672 147.408 12.136C147.04 12.584 146.728 13.112 146.472 13.72C146.216 14.328 146.016 14.992 145.872 15.712C145.728 16.416 145.656 17.144 145.656 17.896C145.656 18.76 145.832 19.408 146.184 19.84C146.536 20.272 147.032 20.488 147.672 20.488ZM160.424 22.24C159.432 22.24 158.664 21.968 158.12 21.424C157.576 20.88 157.304 20.096 157.304 19.072C157.304 18.688 157.328 18.328 157.376 17.992C157.44 17.656 157.504 17.312 157.568 16.96L159.224 9.136H161.36L159.656 17.2C159.592 17.552 159.536 17.864 159.488 18.136C159.44 18.392 159.416 18.64 159.416 18.88C159.416 19.36 159.544 19.744 159.8 20.032C160.072 20.32 160.488 20.464 161.048 20.464C161.576 20.464 162.128 20.272 162.704 19.888C163.28 19.504 163.816 18.904 164.312 18.088C164.824 17.272 165.216 16.224 165.488 14.944L166.736 9.136H168.848L167.12 17.2C167.056 17.552 167 17.856 166.952 18.112C166.92 18.368 166.904 18.592 166.904 18.784C166.904 19.312 167.024 19.728 167.264 20.032C167.504 20.32 167.904 20.464 168.464 20.464C168.864 20.464 169.28 20.36 169.712 20.152C170.16 19.944 170.592 19.616 171.008 19.168C171.424 18.704 171.808 18.104 172.16 17.368C172.512 16.632 172.792 15.736 173 14.68L174.176 9.136H176.288L173.552 22H171.824L172.088 19.624H171.968C171.68 20.008 171.336 20.408 170.936 20.824C170.552 21.224 170.104 21.56 169.592 21.832C169.08 22.104 168.496 22.24 167.84 22.24C167.408 22.24 167.016 22.176 166.664 22.048C166.328 21.92 166.04 21.736 165.8 21.496C165.56 21.24 165.368 20.936 165.224 20.584C165.08 20.232 164.984 19.832 164.936 19.384H164.84C164.52 19.848 164.144 20.304 163.712 20.752C163.28 21.184 162.784 21.544 162.224 21.832C161.68 22.104 161.08 22.24 160.424 22.24ZM181.52 22.24C180.88 22.24 180.312 22.12 179.816 21.88C179.336 21.64 178.96 21.28 178.688 20.8C178.432 20.32 178.304 19.736 178.304 19.048C178.304 18.68 178.328 18.336 178.376 18.016C178.44 17.68 178.504 17.336 178.568 16.984L180.248 9.136H182.384L180.656 17.224C180.592 17.576 180.536 17.88 180.488 18.136C180.456 18.392 180.44 18.624 180.44 18.832C180.44 19.344 180.568 19.752 180.824 20.056C181.096 20.344 181.528 20.488 182.12 20.488C182.664 20.488 183.248 20.296 183.872 19.912C184.512 19.528 185.104 18.912 185.648 18.064C186.192 17.216 186.616 16.088 186.92 14.68L188.096 9.136H190.184L187.448 22H185.72L185.984 19.624H185.864C185.56 20.008 185.2 20.408 184.784 20.824C184.384 21.224 183.912 21.56 183.368 21.832C182.84 22.104 182.224 22.24 181.52 22.24ZM201.657 22L204.369 9.16H207.105L208.449 19.36H208.497L214.137 9.16H217.089L214.401 22H212.481L214.041 14.632C214.185 14.024 214.329 13.416 214.473 12.808C214.633 12.2 214.777 11.64 214.905 11.128H214.857L208.809 22H207.153L205.689 11.152H205.617C205.553 11.6 205.465 12.152 205.353 12.808C205.241 13.448 205.121 14.072 204.993 14.68L203.505 22H201.657ZM223.55 22.24C222.558 22.24 221.71 22.048 221.006 21.664C220.318 21.264 219.79 20.704 219.422 19.984C219.07 19.248 218.894 18.384 218.894 17.392C218.894 16.368 219.038 15.36 219.326 14.368C219.63 13.36 220.062 12.448 220.622 11.632C221.182 10.8 221.854 10.136 222.638 9.64C223.438 9.144 224.334 8.896 225.326 8.896C226.542 8.896 227.454 9.16 228.062 9.688C228.686 10.216 228.998 10.952 228.998 11.896C228.998 12.52 228.854 13.112 228.566 13.672C228.278 14.216 227.83 14.696 227.222 15.112C226.614 15.528 225.838 15.856 224.894 16.096C223.95 16.32 222.814 16.432 221.486 16.432H221.078C221.062 16.576 221.046 16.728 221.03 16.888C221.03 17.048 221.03 17.192 221.03 17.32C221.03 18.296 221.27 19.072 221.75 19.648C222.23 20.208 222.958 20.488 223.934 20.488C224.542 20.488 225.118 20.4 225.662 20.224C226.206 20.048 226.798 19.808 227.438 19.504V21.304C226.83 21.576 226.23 21.8 225.638 21.976C225.062 22.152 224.366 22.24 223.55 22.24ZM221.558 14.728C222.518 14.728 223.406 14.648 224.222 14.488C225.038 14.312 225.694 14.032 226.19 13.648C226.686 13.248 226.934 12.72 226.934 12.064C226.934 11.648 226.79 11.312 226.502 11.056C226.23 10.784 225.798 10.648 225.206 10.648C224.694 10.648 224.19 10.808 223.694 11.128C223.198 11.448 222.75 11.912 222.35 12.52C221.95 13.128 221.63 13.864 221.39 14.728H221.558ZM238.311 18.376C238.423 17.816 238.551 17.272 238.695 16.744C238.855 16.216 238.991 15.752 239.103 15.352H239.007C238.687 15.784 238.319 16.168 237.903 16.504C237.487 16.824 237.023 17.08 236.511 17.272C236.015 17.464 235.463 17.56 234.855 17.56C234.135 17.56 233.527 17.44 233.031 17.2C232.551 16.944 232.183 16.568 231.927 16.072C231.687 15.576 231.567 14.976 231.567 14.272C231.567 13.968 231.599 13.624 231.663 13.24C231.727 12.856 231.791 12.472 231.855 12.088L232.479 9.136H234.615L233.967 12.256C233.871 12.672 233.799 13.024 233.751 13.312C233.719 13.584 233.703 13.84 233.703 14.08C233.703 14.72 233.855 15.168 234.159 15.424C234.479 15.664 234.911 15.784 235.455 15.784C236.015 15.784 236.583 15.632 237.159 15.328C237.751 15.024 238.303 14.488 238.815 13.72C239.327 12.952 239.735 11.872 240.039 10.48L240.327 9.136H242.439L239.703 22H237.543L238.311 18.376ZM243.797 22L246.533 9.136H248.261L247.997 11.512H248.117C248.405 11.112 248.741 10.712 249.125 10.312C249.525 9.912 249.981 9.576 250.493 9.304C251.021 9.032 251.613 8.896 252.269 8.896C253.149 8.896 253.821 9.152 254.285 9.664C254.765 10.16 255.053 10.856 255.149 11.752H255.245C255.565 11.272 255.941 10.816 256.373 10.384C256.821 9.952 257.317 9.6 257.861 9.328C258.405 9.04 259.005 8.896 259.661 8.896C260.653 8.896 261.421 9.168 261.965 9.712C262.509 10.256 262.781 11.04 262.781 12.064C262.781 12.448 262.757 12.808 262.709 13.144C262.661 13.464 262.597 13.808 262.517 14.176L260.861 22H258.725L260.453 13.936C260.533 13.568 260.589 13.256 260.621 13C260.653 12.744 260.669 12.496 260.669 12.256C260.669 11.776 260.533 11.392 260.261 11.104C260.005 10.816 259.597 10.672 259.037 10.672C258.653 10.672 258.245 10.784 257.813 11.008C257.381 11.216 256.957 11.544 256.541 11.992C256.125 12.44 255.749 13.016 255.413 13.72C255.077 14.408 254.805 15.232 254.597 16.192L253.373 22H251.261L252.965 13.936C253.045 13.568 253.101 13.264 253.133 13.024C253.165 12.768 253.181 12.544 253.181 12.352C253.181 11.824 253.061 11.416 252.821 11.128C252.581 10.824 252.181 10.672 251.621 10.672C251.237 10.672 250.821 10.776 250.373 10.984C249.941 11.192 249.517 11.528 249.101 11.992C248.685 12.44 248.301 13.032 247.949 13.768C247.597 14.504 247.309 15.4 247.085 16.456L245.909 22H243.797ZM269.789 22.24C268.941 22.24 268.197 22.112 267.557 21.856C266.933 21.584 266.453 21.176 266.117 20.632C265.781 20.072 265.613 19.376 265.613 18.544C265.613 18.224 265.637 17.856 265.685 17.44C265.749 17.024 265.813 16.64 265.877 16.288L267.389 9.136H269.525L268.325 14.728C268.709 14.648 269.117 14.584 269.549 14.536C269.997 14.472 270.445 14.44 270.893 14.44C271.757 14.44 272.477 14.576 273.053 14.848C273.645 15.104 274.085 15.488 274.373 16C274.661 16.496 274.805 17.104 274.805 17.824C274.805 18.624 274.621 19.36 274.253 20.032C273.901 20.704 273.357 21.24 272.621 21.64C271.885 22.04 270.941 22.24 269.789 22.24ZM269.909 20.512C270.405 20.512 270.829 20.448 271.181 20.32C271.533 20.176 271.821 19.992 272.045 19.768C272.269 19.528 272.437 19.264 272.549 18.976C272.661 18.672 272.717 18.352 272.717 18.016C272.717 17.552 272.621 17.184 272.429 16.912C272.253 16.64 271.981 16.448 271.613 16.336C271.261 16.224 270.821 16.168 270.293 16.168C269.893 16.168 269.493 16.192 269.093 16.24C268.709 16.272 268.333 16.328 267.965 16.408C267.869 16.872 267.797 17.256 267.749 17.56C267.717 17.848 267.701 18.112 267.701 18.352C267.701 19.04 267.869 19.576 268.205 19.96C268.557 20.328 269.125 20.512 269.909 20.512ZM276.077 22L278.789 9.136H280.901L278.165 22H276.077ZM297.88 13.048C297.096 13.928 296.44 14.96 295.912 16.144C295.384 17.312 295.12 18.328 295.12 19.192C295.12 20.04 295.304 20.712 295.672 21.208C296.056 21.704 296.752 21.952 297.76 21.952C298.768 21.952 299.896 21.616 301.144 20.944C302.408 20.272 303.56 19.48 304.6 18.568C305.656 17.64 306.432 16.8 306.928 16.048C306.992 15.952 307.056 15.904 307.12 15.904C307.184 15.904 307.216 15.928 307.216 15.976C307.216 16.024 307.2 16.08 307.168 16.144C306.48 17.056 305.68 17.92 304.768 18.736C301.952 21.264 299.312 22.528 296.848 22.528C295.824 22.528 294.976 22.304 294.304 21.856C293.632 21.408 293.296 20.704 293.296 19.744C293.296 18.752 293.608 17.68 294.232 16.528C294.84 15.392 295.568 14.416 296.416 13.6C297.28 12.768 298.168 12.088 299.08 11.56C300.008 11.032 300.728 10.768 301.24 10.768C301.768 10.768 302.144 10.896 302.368 11.152C302.592 11.408 302.704 11.72 302.704 12.088C302.704 12.44 302.656 12.688 302.56 12.832C302.464 12.96 302.232 13.12 301.864 13.312C301.496 13.504 301.264 13.6 301.168 13.6C301.072 13.6 301.024 13.584 301.024 13.552C301.024 13.52 301.032 13.488 301.048 13.456C301.096 13.328 301.12 13.12 301.12 12.832C301.12 12.544 301 12.288 300.76 12.064C300.52 11.84 300.272 11.728 300.016 11.728C299.376 11.728 298.664 12.168 297.88 13.048ZM313.545 22L316.305 9.064H318.177L317.913 11.44H317.937C318.241 11.04 318.593 10.64 318.993 10.24C319.409 9.84 319.889 9.504 320.433 9.232C320.977 8.96 321.593 8.824 322.281 8.824C322.969 8.824 323.561 8.952 324.057 9.208C324.553 9.464 324.929 9.832 325.185 10.312C325.457 10.792 325.593 11.376 325.593 12.064C325.593 12.432 325.561 12.808 325.497 13.192C325.449 13.576 325.393 13.912 325.329 14.2L323.625 22H321.369L323.097 13.912C323.177 13.544 323.233 13.24 323.265 13C323.313 12.744 323.337 12.504 323.337 12.28C323.337 11.768 323.201 11.384 322.929 11.128C322.657 10.872 322.249 10.744 321.705 10.744C321.177 10.744 320.601 10.928 319.977 11.296C319.369 11.664 318.793 12.264 318.249 13.096C317.721 13.928 317.305 15.048 317.001 16.456L315.801 22H313.545ZM332.819 22.192C331.827 22.192 330.971 21.992 330.251 21.592C329.531 21.192 328.979 20.624 328.595 19.888C328.211 19.136 328.019 18.256 328.019 17.248C328.019 16.464 328.107 15.68 328.283 14.896C328.459 14.096 328.715 13.344 329.051 12.64C329.403 11.936 329.835 11.312 330.347 10.768C330.859 10.208 331.459 9.768 332.147 9.448C332.835 9.128 333.603 8.968 334.451 8.968C335.459 8.968 336.315 9.168 337.019 9.568C337.739 9.968 338.291 10.544 338.675 11.296C339.059 12.032 339.251 12.912 339.251 13.936C339.251 14.72 339.163 15.504 338.987 16.288C338.811 17.072 338.547 17.824 338.195 18.544C337.859 19.248 337.435 19.872 336.923 20.416C336.411 20.96 335.811 21.392 335.123 21.712C334.435 22.032 333.667 22.192 332.819 22.192ZM332.939 20.44C333.403 20.44 333.835 20.344 334.235 20.152C334.651 19.96 335.035 19.68 335.387 19.312C335.739 18.928 336.035 18.464 336.275 17.92C336.531 17.36 336.731 16.728 336.875 16.024C337.019 15.32 337.091 14.544 337.091 13.696C337.091 13.216 337.003 12.752 336.827 12.304C336.667 11.84 336.395 11.464 336.011 11.176C335.627 10.872 335.115 10.72 334.475 10.72C333.947 10.72 333.459 10.832 333.011 11.056C332.563 11.28 332.163 11.6 331.811 12.016C331.459 12.416 331.155 12.896 330.899 13.456C330.659 14 330.475 14.6 330.347 15.256C330.219 15.912 330.155 16.6 330.155 17.32C330.155 18.312 330.395 19.08 330.875 19.624C331.371 20.168 332.059 20.44 332.939 20.44ZM341.087 22L343.799 9.16H346.535L347.879 19.36H347.927L353.567 9.16H356.519L353.831 22H351.911L353.471 14.632C353.615 14.024 353.759 13.416 353.903 12.808C354.063 12.2 354.207 11.64 354.335 11.128H354.287L348.239 22H346.583L345.119 11.152H345.047C344.983 11.6 344.895 12.152 344.783 12.808C344.671 13.448 344.551 14.072 344.423 14.68L342.935 22H341.087ZM363.124 22.192C362.132 22.192 361.276 21.992 360.556 21.592C359.836 21.192 359.284 20.624 358.9 19.888C358.516 19.136 358.324 18.256 358.324 17.248C358.324 16.464 358.412 15.68 358.588 14.896C358.764 14.096 359.02 13.344 359.356 12.64C359.708 11.936 360.14 11.312 360.652 10.768C361.164 10.208 361.764 9.768 362.452 9.448C363.14 9.128 363.908 8.968 364.756 8.968C365.764 8.968 366.62 9.168 367.324 9.568C368.044 9.968 368.596 10.544 368.98 11.296C369.364 12.032 369.556 12.912 369.556 13.936C369.556 14.72 369.468 15.504 369.292 16.288C369.116 17.072 368.852 17.824 368.5 18.544C368.164 19.248 367.74 19.872 367.228 20.416C366.716 20.96 366.116 21.392 365.428 21.712C364.74 22.032 363.972 22.192 363.124 22.192ZM363.244 20.44C363.708 20.44 364.14 20.344 364.54 20.152C364.956 19.96 365.34 19.68 365.692 19.312C366.044 18.928 366.34 18.464 366.58 17.92C366.836 17.36 367.036 16.728 367.18 16.024C367.324 15.32 367.396 14.544 367.396 13.696C367.396 13.216 367.308 12.752 367.132 12.304C366.972 11.84 366.7 11.464 366.316 11.176C365.932 10.872 365.42 10.72 364.78 10.72C364.252 10.72 363.764 10.832 363.316 11.056C362.868 11.28 362.468 11.6 362.116 12.016C361.764 12.416 361.46 12.896 361.204 13.456C360.964 14 360.78 14.6 360.652 15.256C360.524 15.912 360.46 16.6 360.46 17.32C360.46 18.312 360.7 19.08 361.18 19.624C361.676 20.168 362.364 20.44 363.244 20.44ZM388.191 22.168C387.871 22.072 387.607 21.928 387.399 21.736C387.191 21.544 387.031 21.28 386.919 20.944C386.823 20.592 386.767 20.168 386.751 19.672H386.679C386.407 20.072 386.071 20.472 385.671 20.872C385.271 21.272 384.815 21.6 384.303 21.856C383.791 22.112 383.207 22.24 382.551 22.24C381.671 22.24 380.991 21.984 380.511 21.472C380.031 20.96 379.743 20.264 379.647 19.384H379.551C379.231 19.848 378.855 20.304 378.423 20.752C377.991 21.184 377.503 21.544 376.959 21.832C376.415 22.104 375.807 22.24 375.135 22.24C374.143 22.24 373.375 21.968 372.831 21.424C372.287 20.88 372.015 20.096 372.015 19.072C372.015 18.688 372.039 18.336 372.087 18.016C372.151 17.68 372.215 17.328 372.279 16.96L373.935 9.136H376.071L374.367 17.224C374.303 17.576 374.247 17.88 374.199 18.136C374.151 18.392 374.127 18.64 374.127 18.88C374.127 19.36 374.255 19.744 374.511 20.032C374.783 20.32 375.199 20.464 375.759 20.464C376.271 20.464 376.815 20.28 377.391 19.912C377.983 19.528 378.527 18.928 379.023 18.112C379.535 17.296 379.927 16.24 380.199 14.944L381.447 9.136H383.559L381.831 17.224C381.767 17.576 381.711 17.88 381.663 18.136C381.631 18.392 381.615 18.608 381.615 18.784C381.615 19.328 381.735 19.744 381.975 20.032C382.215 20.32 382.615 20.464 383.175 20.464C383.575 20.464 383.991 20.36 384.423 20.152C384.871 19.944 385.303 19.616 385.719 19.168C386.135 18.704 386.519 18.104 386.871 17.368C387.223 16.632 387.503 15.736 387.711 14.68L388.887 9.136H390.999L389.079 18.208C389.031 18.464 388.991 18.72 388.959 18.976C388.927 19.232 388.911 19.448 388.911 19.624C388.911 19.928 388.991 20.16 389.151 20.32C389.311 20.464 389.527 20.536 389.799 20.536C390.007 20.536 390.183 20.512 390.327 20.464C390.487 20.416 390.623 20.384 390.735 20.368L389.367 26.464H387.255L388.191 22.168ZM397.901 22.24C397.005 22.24 396.229 22.112 395.573 21.856C394.933 21.584 394.445 21.176 394.109 20.632C393.773 20.072 393.605 19.368 393.605 18.52C393.605 18.2 393.629 17.84 393.677 17.44C393.741 17.024 393.805 16.64 393.869 16.288L395.381 9.136H397.517L396.293 14.728C396.709 14.648 397.157 14.584 397.637 14.536C398.117 14.472 398.613 14.44 399.125 14.44C400.101 14.44 400.885 14.584 401.477 14.872C402.069 15.16 402.501 15.56 402.773 16.072C403.045 16.584 403.181 17.176 403.181 17.848C403.181 18.632 402.981 19.36 402.581 20.032C402.197 20.688 401.613 21.224 400.829 21.64C400.061 22.04 399.085 22.24 397.901 22.24ZM398.093 20.512C398.621 20.512 399.069 20.448 399.437 20.32C399.821 20.176 400.133 19.992 400.373 19.768C400.629 19.544 400.813 19.28 400.925 18.976C401.037 18.672 401.093 18.352 401.093 18.016C401.093 17.632 401.013 17.304 400.853 17.032C400.693 16.744 400.429 16.528 400.061 16.384C399.709 16.24 399.229 16.168 398.621 16.168C398.125 16.168 397.653 16.192 397.205 16.24C396.757 16.272 396.341 16.328 395.957 16.408C395.861 16.856 395.789 17.24 395.741 17.56C395.709 17.864 395.693 18.128 395.693 18.352C395.693 18.96 395.861 19.472 396.197 19.888C396.533 20.304 397.165 20.512 398.093 20.512ZM416.2 22.192C414.696 22.192 413.552 21.728 412.768 20.8C412 19.872 411.616 18.688 411.616 17.248C411.616 17.04 411.616 16.848 411.616 16.672C411.632 16.48 411.64 16.336 411.64 16.24H408.688L407.464 22H405.352L408.088 9.136H410.176L409.072 14.488H411.928C412.184 13.576 412.504 12.776 412.888 12.088C413.288 11.384 413.736 10.808 414.232 10.36C414.744 9.896 415.296 9.552 415.888 9.328C416.48 9.088 417.112 8.968 417.784 8.968C418.808 8.968 419.656 9.184 420.328 9.616C421 10.032 421.504 10.616 421.84 11.368C422.192 12.104 422.368 12.96 422.368 13.936C422.368 14.768 422.28 15.584 422.104 16.384C421.944 17.184 421.696 17.936 421.36 18.64C421.024 19.328 420.608 19.944 420.112 20.488C419.616 21.016 419.04 21.432 418.384 21.736C417.728 22.04 417 22.192 416.2 22.192ZM416.344 20.44C416.776 20.44 417.184 20.336 417.568 20.128C417.952 19.92 418.304 19.624 418.624 19.24C418.96 18.856 419.24 18.392 419.464 17.848C419.704 17.288 419.888 16.664 420.016 15.976C420.144 15.272 420.208 14.512 420.208 13.696C420.208 12.8 419.992 12.08 419.56 11.536C419.144 10.992 418.544 10.72 417.76 10.72C417.216 10.72 416.728 10.848 416.296 11.104C415.864 11.36 415.488 11.712 415.168 12.16C414.848 12.592 414.584 13.088 414.376 13.648C414.168 14.208 414.008 14.808 413.896 15.448C413.8 16.072 413.752 16.696 413.752 17.32C413.752 18.248 413.96 19 414.376 19.576C414.808 20.152 415.464 20.44 416.344 20.44ZM5.216 52.24C4.048 52.24 3.088 52.024 2.336 51.592C1.584 51.144 1.032 50.528 0.68 49.744C0.328 48.944 0.152 48.008 0.152 46.936C0.152 46.04 0.248 45.192 0.44 44.392C0.632 43.576 0.92 42.84 1.304 42.184C1.688 41.512 2.152 40.936 2.696 40.456C3.256 39.96 3.888 39.584 4.592 39.328C5.312 39.056 6.104 38.92 6.968 38.92C7.88 38.92 8.656 39.04 9.296 39.28C9.952 39.52 10.448 39.888 10.784 40.384C11.12 40.864 11.288 41.464 11.288 42.184C11.288 42.808 11.144 43.344 10.856 43.792C10.584 44.24 10.208 44.6 9.728 44.872C9.248 45.144 8.688 45.352 8.048 45.496V45.544C8.752 45.72 9.328 46.016 9.776 46.432C10.224 46.832 10.448 47.448 10.448 48.28C10.448 48.872 10.28 49.48 9.944 50.104C9.624 50.712 9.08 51.224 8.312 51.64C7.544 52.04 6.512 52.24 5.216 52.24ZM5.36 50.512C6.064 50.512 6.64 50.408 7.088 50.2C7.536 49.992 7.864 49.72 8.072 49.384C8.296 49.032 8.408 48.656 8.408 48.256C8.408 47.84 8.296 47.504 8.072 47.248C7.864 46.976 7.528 46.776 7.064 46.648C6.616 46.504 6.032 46.432 5.312 46.432H2.288C2.288 46.512 2.288 46.608 2.288 46.72C2.288 46.816 2.288 46.912 2.288 47.008C2.288 48.24 2.568 49.136 3.128 49.696C3.688 50.24 4.432 50.512 5.36 50.512ZM5.144 44.728C5.848 44.728 6.504 44.656 7.112 44.512C7.736 44.368 8.232 44.128 8.6 43.792C8.984 43.44 9.176 42.976 9.176 42.4C9.176 41.92 9.008 41.512 8.672 41.176C8.336 40.84 7.776 40.672 6.992 40.672C6.24 40.672 5.56 40.832 4.952 41.152C4.36 41.456 3.856 41.912 3.44 42.52C3.04 43.128 2.736 43.864 2.528 44.728H5.144ZM12.6564 52L15.3924 39.136H17.4804L16.3764 44.488H22.4244L23.5764 39.136H25.6884L22.9764 52H20.8404L22.0404 46.24H15.9924L14.7684 52H12.6564ZM32.2064 52.24C31.2144 52.24 30.3664 52.048 29.6624 51.664C28.9744 51.264 28.4464 50.704 28.0784 49.984C27.7264 49.248 27.5504 48.384 27.5504 47.392C27.5504 46.368 27.6944 45.36 27.9824 44.368C28.2864 43.36 28.7184 42.448 29.2784 41.632C29.8384 40.8 30.5104 40.136 31.2944 39.64C32.0944 39.144 32.9904 38.896 33.9824 38.896C35.1984 38.896 36.1104 39.16 36.7184 39.688C37.3424 40.216 37.6544 40.952 37.6544 41.896C37.6544 42.52 37.5104 43.112 37.2224 43.672C36.9344 44.216 36.4864 44.696 35.8784 45.112C35.2704 45.528 34.4944 45.856 33.5504 46.096C32.6064 46.32 31.4704 46.432 30.1424 46.432H29.7344C29.7184 46.576 29.7024 46.728 29.6864 46.888C29.6864 47.048 29.6864 47.192 29.6864 47.32C29.6864 48.296 29.9264 49.072 30.4064 49.648C30.8864 50.208 31.6144 50.488 32.5904 50.488C33.1984 50.488 33.7744 50.4 34.3184 50.224C34.8624 50.048 35.4544 49.808 36.0944 49.504V51.304C35.4864 51.576 34.8864 51.8 34.2944 51.976C33.7184 52.152 33.0224 52.24 32.2064 52.24ZM30.2144 44.728C31.1744 44.728 32.0624 44.648 32.8784 44.488C33.6944 44.312 34.3504 44.032 34.8464 43.648C35.3424 43.248 35.5904 42.72 35.5904 42.064C35.5904 41.648 35.4464 41.312 35.1584 41.056C34.8864 40.784 34.4544 40.648 33.8624 40.648C33.3504 40.648 32.8464 40.808 32.3504 41.128C31.8544 41.448 31.4064 41.912 31.0064 42.52C30.6064 43.128 30.2864 43.864 30.0464 44.728H30.2144ZM42.815 52.24C41.823 52.24 41.055 51.968 40.511 51.424C39.967 50.88 39.695 50.096 39.695 49.072C39.695 48.688 39.719 48.328 39.767 47.992C39.831 47.656 39.895 47.312 39.959 46.96L41.615 39.136H43.751L42.047 47.2C41.983 47.552 41.927 47.864 41.879 48.136C41.831 48.392 41.807 48.64 41.807 48.88C41.807 49.36 41.935 49.744 42.191 50.032C42.463 50.32 42.879 50.464 43.439 50.464C43.967 50.464 44.519 50.272 45.095 49.888C45.671 49.504 46.207 48.904 46.703 48.088C47.215 47.272 47.607 46.224 47.879 44.944L49.127 39.136H51.239L49.511 47.2C49.447 47.552 49.391 47.856 49.343 48.112C49.311 48.368 49.295 48.592 49.295 48.784C49.295 49.312 49.415 49.728 49.655 50.032C49.895 50.32 50.295 50.464 50.855 50.464C51.255 50.464 51.671 50.36 52.103 50.152C52.551 49.944 52.983 49.616 53.399 49.168C53.815 48.704 54.199 48.104 54.551 47.368C54.903 46.632 55.183 45.736 55.391 44.68L56.567 39.136H58.679L55.943 52H54.215L54.479 49.624H54.359C54.071 50.008 53.727 50.408 53.327 50.824C52.943 51.224 52.495 51.56 51.983 51.832C51.471 52.104 50.887 52.24 50.231 52.24C49.799 52.24 49.407 52.176 49.055 52.048C48.719 51.92 48.431 51.736 48.191 51.496C47.951 51.24 47.759 50.936 47.615 50.584C47.471 50.232 47.375 49.832 47.327 49.384H47.231C46.911 49.848 46.535 50.304 46.103 50.752C45.671 51.184 45.175 51.544 44.615 51.832C44.071 52.104 43.471 52.24 42.815 52.24ZM60.047 52L62.783 39.136H64.871L63.767 44.488H69.815L70.967 39.136H73.079L70.367 52H68.231L69.431 46.24H63.383L62.159 52H60.047ZM79.5971 52.24C78.6051 52.24 77.7571 52.048 77.0531 51.664C76.3651 51.264 75.8371 50.704 75.4691 49.984C75.1171 49.248 74.9411 48.384 74.9411 47.392C74.9411 46.368 75.0851 45.36 75.3731 44.368C75.6771 43.36 76.1091 42.448 76.6691 41.632C77.2291 40.8 77.9011 40.136 78.6851 39.64C79.4851 39.144 80.3811 38.896 81.3731 38.896C82.5891 38.896 83.5011 39.16 84.1091 39.688C84.7331 40.216 85.0451 40.952 85.0451 41.896C85.0451 42.52 84.9011 43.112 84.6131 43.672C84.3251 44.216 83.8771 44.696 83.2691 45.112C82.6611 45.528 81.8851 45.856 80.9411 46.096C79.9971 46.32 78.8611 46.432 77.5331 46.432H77.1251C77.1091 46.576 77.0931 46.728 77.0771 46.888C77.0771 47.048 77.0771 47.192 77.0771 47.32C77.0771 48.296 77.3171 49.072 77.7971 49.648C78.2771 50.208 79.0051 50.488 79.9811 50.488C80.5891 50.488 81.1651 50.4 81.7091 50.224C82.2531 50.048 82.8451 49.808 83.4851 49.504V51.304C82.8771 51.576 82.2771 51.8 81.6851 51.976C81.1091 52.152 80.4131 52.24 79.5971 52.24ZM77.6051 44.728C78.5651 44.728 79.4531 44.648 80.2691 44.488C81.0851 44.312 81.7411 44.032 82.2371 43.648C82.7331 43.248 82.9811 42.72 82.9811 42.064C82.9811 41.648 82.8371 41.312 82.5491 41.056C82.2771 40.784 81.8451 40.648 81.2531 40.648C80.7411 40.648 80.2371 40.808 79.7411 41.128C79.2451 41.448 78.7971 41.912 78.3971 42.52C77.9971 43.128 77.6771 43.864 77.4371 44.728H77.6051ZM90.5176 52.24C89.7816 52.24 89.0936 52.128 88.4536 51.904C87.8296 51.68 87.3256 51.328 86.9416 50.848C86.5576 50.368 86.3656 49.744 86.3656 48.976C86.3656 48.352 86.4856 47.808 86.7256 47.344C86.9816 46.88 87.3176 46.488 87.7336 46.168C88.1496 45.832 88.6136 45.552 89.1256 45.328C89.6376 45.088 90.1496 44.872 90.6616 44.68C91.3016 44.424 91.8696 44.184 92.3656 43.96C92.8616 43.72 93.2456 43.448 93.5176 43.144C93.8056 42.824 93.9496 42.448 93.9496 42.016C93.9496 41.616 93.8216 41.296 93.5656 41.056C93.3096 40.8 92.8536 40.672 92.1976 40.672C91.5736 40.672 90.9576 40.76 90.3496 40.936C89.7416 41.096 89.1816 41.288 88.6696 41.512L88.0936 39.832C88.6536 39.624 89.2936 39.424 90.0136 39.232C90.7336 39.024 91.5336 38.92 92.4136 38.92C93.1336 38.92 93.7656 39.024 94.3096 39.232C94.8696 39.424 95.3016 39.736 95.6056 40.168C95.9256 40.6 96.0856 41.176 96.0856 41.896C96.0856 42.456 95.9736 42.952 95.7496 43.384C95.5256 43.8 95.2216 44.168 94.8376 44.488C94.4536 44.792 94.0216 45.064 93.5416 45.304C93.0616 45.528 92.5656 45.736 92.0536 45.928C91.3336 46.2 90.7016 46.464 90.1576 46.72C89.6296 46.96 89.2216 47.24 88.9336 47.56C88.6456 47.88 88.5016 48.296 88.5016 48.808C88.5016 49.32 88.6856 49.728 89.0536 50.032C89.4376 50.336 90.0296 50.488 90.8296 50.488C91.2616 50.488 91.6856 50.448 92.1016 50.368C92.5176 50.272 92.9256 50.152 93.3256 50.008C93.7256 49.848 94.1176 49.68 94.5016 49.504V51.352C93.9416 51.608 93.3416 51.824 92.7016 52C92.0616 52.16 91.3336 52.24 90.5176 52.24ZM102.733 52.192C101.741 52.192 100.885 51.992 100.165 51.592C99.4453 51.192 98.8933 50.624 98.5093 49.888C98.1253 49.136 97.9333 48.256 97.9333 47.248C97.9333 46.464 98.0213 45.68 98.1973 44.896C98.3733 44.096 98.6293 43.344 98.9653 42.64C99.3173 41.936 99.7493 41.312 100.261 40.768C100.773 40.208 101.373 39.768 102.061 39.448C102.749 39.128 103.517 38.968 104.365 38.968C105.373 38.968 106.229 39.168 106.933 39.568C107.653 39.968 108.205 40.544 108.589 41.296C108.973 42.032 109.165 42.912 109.165 43.936C109.165 44.72 109.077 45.504 108.901 46.288C108.725 47.072 108.461 47.824 108.109 48.544C107.773 49.248 107.349 49.872 106.837 50.416C106.325 50.96 105.725 51.392 105.037 51.712C104.349 52.032 103.581 52.192 102.733 52.192ZM102.853 50.44C103.317 50.44 103.749 50.344 104.149 50.152C104.565 49.96 104.949 49.68 105.301 49.312C105.653 48.928 105.949 48.464 106.189 47.92C106.445 47.36 106.645 46.728 106.789 46.024C106.933 45.32 107.005 44.544 107.005 43.696C107.005 43.216 106.917 42.752 106.741 42.304C106.581 41.84 106.309 41.464 105.925 41.176C105.541 40.872 105.029 40.72 104.389 40.72C103.861 40.72 103.373 40.832 102.925 41.056C102.477 41.28 102.077 41.6 101.725 42.016C101.373 42.416 101.069 42.896 100.813 43.456C100.573 44 100.389 44.6 100.261 45.256C100.133 45.912 100.069 46.6 100.069 47.32C100.069 48.312 100.309 49.08 100.789 49.624C101.285 50.168 101.973 50.44 102.853 50.44ZM120.959 52L123.719 39.064H125.591L125.327 41.44H125.351C125.655 41.04 126.007 40.64 126.407 40.24C126.823 39.84 127.303 39.504 127.847 39.232C128.391 38.96 129.007 38.824 129.695 38.824C130.383 38.824 130.975 38.952 131.471 39.208C131.967 39.464 132.343 39.832 132.599 40.312C132.871 40.792 133.007 41.376 133.007 42.064C133.007 42.432 132.975 42.808 132.911 43.192C132.863 43.576 132.807 43.912 132.743 44.2L131.039 52H128.783L130.511 43.912C130.591 43.544 130.647 43.24 130.679 43C130.727 42.744 130.751 42.504 130.751 42.28C130.751 41.768 130.615 41.384 130.343 41.128C130.071 40.872 129.663 40.744 129.119 40.744C128.591 40.744 128.015 40.928 127.391 41.296C126.783 41.664 126.207 42.264 125.663 43.096C125.135 43.928 124.719 45.048 124.415 46.456L123.215 52H120.959ZM133.753 57.76L137.689 39.136H139.417L139.129 41.536H139.225C139.609 41.056 140.017 40.624 140.449 40.24C140.881 39.84 141.353 39.52 141.865 39.28C142.377 39.04 142.929 38.92 143.521 38.92C144.209 38.92 144.809 39.088 145.321 39.424C145.849 39.744 146.257 40.232 146.545 40.888C146.849 41.528 147.001 42.336 147.001 43.312C147.001 44.256 146.905 45.168 146.713 46.048C146.537 46.928 146.265 47.744 145.897 48.496C145.545 49.232 145.113 49.888 144.601 50.464C144.105 51.024 143.529 51.464 142.873 51.784C142.217 52.088 141.505 52.24 140.737 52.24C140.161 52.24 139.657 52.136 139.225 51.928C138.809 51.72 138.457 51.448 138.169 51.112C137.881 50.776 137.641 50.416 137.449 50.032H137.329C137.313 50.288 137.273 50.648 137.209 51.112C137.145 51.56 137.081 51.928 137.017 52.216L135.841 57.76H133.753ZM140.569 50.488C141.081 50.488 141.553 50.36 141.985 50.104C142.433 49.832 142.833 49.464 143.185 49C143.537 48.52 143.833 47.976 144.073 47.368C144.329 46.744 144.521 46.088 144.649 45.4C144.777 44.696 144.841 43.984 144.841 43.264C144.841 42.4 144.665 41.752 144.313 41.32C143.977 40.888 143.473 40.672 142.801 40.672C142.449 40.672 142.089 40.76 141.721 40.936C141.353 41.112 140.993 41.368 140.641 41.704C140.289 42.024 139.961 42.408 139.657 42.856C139.353 43.304 139.081 43.8 138.841 44.344C138.617 44.872 138.441 45.44 138.313 46.048C138.185 46.64 138.121 47.256 138.121 47.896C138.121 48.664 138.321 49.288 138.721 49.768C139.121 50.248 139.737 50.488 140.569 50.488ZM153.988 52.24C152.996 52.24 152.148 52.048 151.444 51.664C150.756 51.264 150.228 50.704 149.86 49.984C149.508 49.248 149.332 48.384 149.332 47.392C149.332 46.368 149.476 45.36 149.764 44.368C150.068 43.36 150.5 42.448 151.06 41.632C151.62 40.8 152.292 40.136 153.076 39.64C153.876 39.144 154.772 38.896 155.764 38.896C156.98 38.896 157.892 39.16 158.5 39.688C159.124 40.216 159.436 40.952 159.436 41.896C159.436 42.52 159.292 43.112 159.004 43.672C158.716 44.216 158.268 44.696 157.66 45.112C157.052 45.528 156.276 45.856 155.332 46.096C154.388 46.32 153.252 46.432 151.924 46.432H151.516C151.5 46.576 151.484 46.728 151.468 46.888C151.468 47.048 151.468 47.192 151.468 47.32C151.468 48.296 151.708 49.072 152.188 49.648C152.668 50.208 153.396 50.488 154.372 50.488C154.98 50.488 155.556 50.4 156.1 50.224C156.644 50.048 157.236 49.808 157.876 49.504V51.304C157.268 51.576 156.668 51.8 156.076 51.976C155.5 52.152 154.804 52.24 153.988 52.24ZM151.996 44.728C152.956 44.728 153.844 44.648 154.66 44.488C155.476 44.312 156.132 44.032 156.628 43.648C157.124 43.248 157.372 42.72 157.372 42.064C157.372 41.648 157.228 41.312 156.94 41.056C156.668 40.784 156.236 40.648 155.644 40.648C155.132 40.648 154.628 40.808 154.132 41.128C153.636 41.448 153.188 41.912 152.788 42.52C152.388 43.128 152.068 43.864 151.828 44.728H151.996ZM166.108 52.192C165.116 52.192 164.26 51.992 163.54 51.592C162.82 51.192 162.268 50.624 161.884 49.888C161.5 49.136 161.308 48.256 161.308 47.248C161.308 46.464 161.396 45.68 161.572 44.896C161.748 44.096 162.004 43.344 162.34 42.64C162.692 41.936 163.124 41.312 163.636 40.768C164.148 40.208 164.748 39.768 165.436 39.448C166.124 39.128 166.892 38.968 167.74 38.968C168.748 38.968 169.604 39.168 170.308 39.568C171.028 39.968 171.58 40.544 171.964 41.296C172.348 42.032 172.54 42.912 172.54 43.936C172.54 44.72 172.452 45.504 172.276 46.288C172.1 47.072 171.836 47.824 171.484 48.544C171.148 49.248 170.724 49.872 170.212 50.416C169.7 50.96 169.1 51.392 168.412 51.712C167.724 52.032 166.956 52.192 166.108 52.192ZM166.228 50.44C166.692 50.44 167.124 50.344 167.524 50.152C167.94 49.96 168.324 49.68 168.676 49.312C169.028 48.928 169.324 48.464 169.564 47.92C169.82 47.36 170.02 46.728 170.164 46.024C170.308 45.32 170.38 44.544 170.38 43.696C170.38 43.216 170.292 42.752 170.116 42.304C169.956 41.84 169.684 41.464 169.3 41.176C168.916 40.872 168.404 40.72 167.764 40.72C167.236 40.72 166.748 40.832 166.3 41.056C165.852 41.28 165.452 41.6 165.1 42.016C164.748 42.416 164.444 42.896 164.188 43.456C163.948 44 163.764 44.6 163.636 45.256C163.508 45.912 163.444 46.6 163.444 47.32C163.444 48.312 163.684 49.08 164.164 49.624C164.66 50.168 165.348 50.44 166.228 50.44ZM179.44 52.24C178.464 52.24 177.632 52.04 176.944 51.64C176.272 51.224 175.752 50.616 175.384 49.816C175.032 49 174.856 48 174.856 46.816C174.856 46.208 174.904 45.528 175 44.776C175.096 44.024 175.24 43.24 175.432 42.424C175.64 41.608 175.904 40.808 176.224 40.024C176.544 39.224 176.928 38.48 177.376 37.792C177.824 37.104 178.344 36.512 178.936 36.016C179.544 35.504 180.224 35.136 180.976 34.912C181.264 34.816 181.68 34.712 182.224 34.6C182.784 34.472 183.392 34.344 184.048 34.216C184.704 34.072 185.328 33.952 185.92 33.856C186.512 33.76 186.984 33.688 187.336 33.64L187.576 35.368C187.128 35.432 186.552 35.528 185.848 35.656C185.144 35.784 184.432 35.928 183.712 36.088C183.008 36.232 182.408 36.384 181.912 36.544C181.24 36.752 180.624 37.112 180.064 37.624C179.52 38.12 179.04 38.752 178.624 39.52C178.208 40.272 177.864 41.16 177.592 42.184L177.664 42.208C178.096 41.696 178.68 41.208 179.416 40.744C180.152 40.28 180.992 40.048 181.936 40.048C183.152 40.048 184.056 40.432 184.648 41.2C185.256 41.952 185.56 43.008 185.56 44.368C185.56 45.152 185.488 45.928 185.344 46.696C185.2 47.448 184.968 48.16 184.648 48.832C184.344 49.504 183.952 50.096 183.472 50.608C182.992 51.12 182.416 51.52 181.744 51.808C181.088 52.096 180.32 52.24 179.44 52.24ZM179.632 50.488C180.192 50.488 180.68 50.36 181.096 50.104C181.528 49.848 181.888 49.504 182.176 49.072C182.464 48.64 182.696 48.168 182.872 47.656C183.064 47.128 183.2 46.6 183.28 46.072C183.36 45.528 183.4 45.032 183.4 44.584C183.4 43.624 183.232 42.92 182.896 42.472C182.56 42.024 182.056 41.8 181.384 41.8C180.792 41.8 180.224 41.944 179.68 42.232C179.152 42.52 178.68 42.864 178.264 43.264C177.848 43.648 177.512 44.016 177.256 44.368C177.192 44.8 177.128 45.232 177.064 45.664C177.016 46.096 176.992 46.504 176.992 46.888C176.992 47.608 177.08 48.24 177.256 48.784C177.432 49.312 177.712 49.728 178.096 50.032C178.48 50.336 178.992 50.488 179.632 50.488ZM186.23 57.76L190.166 39.136H191.894L191.606 41.536H191.702C192.086 41.056 192.494 40.624 192.926 40.24C193.358 39.84 193.83 39.52 194.342 39.28C194.854 39.04 195.406 38.92 195.998 38.92C196.686 38.92 197.286 39.088 197.798 39.424C198.326 39.744 198.734 40.232 199.022 40.888C199.326 41.528 199.478 42.336 199.478 43.312C199.478 44.256 199.382 45.168 199.19 46.048C199.014 46.928 198.742 47.744 198.374 48.496C198.022 49.232 197.59 49.888 197.078 50.464C196.582 51.024 196.006 51.464 195.35 51.784C194.694 52.088 193.982 52.24 193.214 52.24C192.638 52.24 192.134 52.136 191.702 51.928C191.286 51.72 190.934 51.448 190.646 51.112C190.358 50.776 190.118 50.416 189.926 50.032H189.806C189.79 50.288 189.75 50.648 189.686 51.112C189.622 51.56 189.558 51.928 189.494 52.216L188.318 57.76H186.23ZM193.046 50.488C193.558 50.488 194.03 50.36 194.462 50.104C194.91 49.832 195.31 49.464 195.662 49C196.014 48.52 196.31 47.976 196.55 47.368C196.806 46.744 196.998 46.088 197.126 45.4C197.254 44.696 197.318 43.984 197.318 43.264C197.318 42.4 197.142 41.752 196.79 41.32C196.454 40.888 195.95 40.672 195.278 40.672C194.926 40.672 194.566 40.76 194.198 40.936C193.83 41.112 193.47 41.368 193.118 41.704C192.766 42.024 192.438 42.408 192.134 42.856C191.83 43.304 191.558 43.8 191.318 44.344C191.094 44.872 190.918 45.44 190.79 46.048C190.662 46.64 190.598 47.256 190.598 47.896C190.598 48.664 190.798 49.288 191.198 49.768C191.598 50.248 192.214 50.488 193.046 50.488ZM205.288 52.24C204.6 52.24 203.992 52.08 203.464 51.76C202.952 51.424 202.544 50.928 202.24 50.272C201.952 49.616 201.808 48.808 201.808 47.848C201.808 46.888 201.904 45.968 202.096 45.088C202.304 44.192 202.592 43.368 202.96 42.616C203.328 41.864 203.768 41.216 204.28 40.672C204.808 40.112 205.392 39.68 206.032 39.376C206.688 39.056 207.384 38.896 208.12 38.896C208.68 38.896 209.168 39 209.584 39.208C210.016 39.416 210.376 39.688 210.664 40.024C210.952 40.36 211.184 40.728 211.36 41.128H211.48L212.248 39.136H213.856L211.12 52H209.44L209.752 49.624H209.656C209.288 50.088 208.88 50.52 208.432 50.92C207.984 51.32 207.496 51.64 206.968 51.88C206.456 52.12 205.896 52.24 205.288 52.24ZM205.984 50.488C206.576 50.488 207.152 50.272 207.712 49.84C208.288 49.408 208.808 48.824 209.272 48.088C209.736 47.352 210.088 46.528 210.328 45.616C210.456 45.152 210.536 44.728 210.568 44.344C210.616 43.944 210.64 43.576 210.64 43.24C210.64 42.488 210.432 41.872 210.016 41.392C209.6 40.912 209.04 40.672 208.336 40.672C207.84 40.672 207.368 40.8 206.92 41.056C206.488 41.312 206.088 41.672 205.72 42.136C205.352 42.584 205.04 43.112 204.784 43.72C204.528 44.328 204.328 44.992 204.184 45.712C204.04 46.416 203.968 47.144 203.968 47.896C203.968 48.76 204.144 49.408 204.496 49.84C204.848 50.272 205.344 50.488 205.984 50.488ZM215.353 52.24C215.129 52.24 214.881 52.224 214.609 52.192C214.353 52.16 214.121 52.112 213.913 52.048L214.225 50.32C214.385 50.368 214.569 50.408 214.777 50.44C214.985 50.472 215.185 50.488 215.377 50.488C215.937 50.488 216.441 50.36 216.889 50.104C217.337 49.832 217.737 49.472 218.089 49.024C218.441 48.576 218.729 48.072 218.953 47.512C219.193 46.936 219.369 46.336 219.481 45.712C219.609 45.088 219.673 44.48 219.673 43.888C219.673 42.96 219.497 42.192 219.145 41.584C218.793 40.976 218.201 40.672 217.369 40.672C217.129 40.672 216.897 40.688 216.673 40.72C216.465 40.752 216.249 40.792 216.025 40.84V39.112C216.249 39.064 216.505 39.016 216.793 38.968C217.081 38.92 217.377 38.896 217.681 38.896C219.057 38.896 220.089 39.336 220.777 40.216C221.465 41.08 221.809 42.288 221.809 43.84C221.809 43.984 221.801 44.136 221.785 44.296C221.785 44.44 221.777 44.576 221.761 44.704H223.729L224.905 39.136H226.849L225.649 44.704H227.545C227.689 44.064 227.913 43.408 228.217 42.736C228.521 42.048 228.913 41.416 229.393 40.84C229.889 40.264 230.481 39.8 231.169 39.448C231.873 39.08 232.681 38.896 233.593 38.896C233.865 38.896 234.137 38.912 234.409 38.944C234.681 38.976 234.961 39.032 235.249 39.112L234.865 40.816C234.689 40.768 234.489 40.736 234.265 40.72C234.041 40.688 233.825 40.672 233.617 40.672C233.057 40.672 232.553 40.808 232.105 41.08C231.657 41.336 231.265 41.688 230.929 42.136C230.593 42.584 230.313 43.096 230.089 43.672C229.865 44.232 229.697 44.824 229.585 45.448C229.473 46.056 229.417 46.656 229.417 47.248C229.417 48.176 229.585 48.952 229.921 49.576C230.257 50.184 230.841 50.488 231.673 50.488C231.945 50.488 232.177 50.472 232.369 50.44C232.577 50.408 232.793 50.36 233.017 50.296V52.048C232.809 52.08 232.561 52.12 232.273 52.168C231.985 52.216 231.689 52.24 231.385 52.24C230.473 52.24 229.713 52.048 229.105 51.664C228.497 51.264 228.033 50.696 227.713 49.96C227.409 49.224 227.257 48.336 227.257 47.296C227.257 47.12 227.257 46.952 227.257 46.792C227.273 46.632 227.289 46.472 227.305 46.312H225.313L224.113 52H222.193L223.417 46.312H221.521C221.361 47.032 221.113 47.744 220.777 48.448C220.457 49.152 220.041 49.792 219.529 50.368C219.033 50.944 218.433 51.4 217.729 51.736C217.041 52.072 216.249 52.24 215.353 52.24ZM240.378 52.24C239.386 52.24 238.538 52.048 237.834 51.664C237.146 51.264 236.618 50.704 236.25 49.984C235.898 49.248 235.722 48.384 235.722 47.392C235.722 46.368 235.866 45.36 236.154 44.368C236.458 43.36 236.89 42.448 237.45 41.632C238.01 40.8 238.682 40.136 239.466 39.64C240.266 39.144 241.162 38.896 242.154 38.896C243.37 38.896 244.282 39.16 244.89 39.688C245.514 40.216 245.826 40.952 245.826 41.896C245.826 42.52 245.682 43.112 245.394 43.672C245.106 44.216 244.658 44.696 244.05 45.112C243.442 45.528 242.666 45.856 241.722 46.096C240.778 46.32 239.642 46.432 238.314 46.432H237.906C237.89 46.576 237.874 46.728 237.858 46.888C237.858 47.048 237.858 47.192 237.858 47.32C237.858 48.296 238.098 49.072 238.578 49.648C239.058 50.208 239.786 50.488 240.762 50.488C241.37 50.488 241.946 50.4 242.49 50.224C243.034 50.048 243.626 49.808 244.266 49.504V51.304C243.658 51.576 243.058 51.8 242.466 51.976C241.89 52.152 241.194 52.24 240.378 52.24ZM238.386 44.728C239.346 44.728 240.234 44.648 241.05 44.488C241.866 44.312 242.522 44.032 243.018 43.648C243.514 43.248 243.762 42.72 243.762 42.064C243.762 41.648 243.618 41.312 243.33 41.056C243.058 40.784 242.626 40.648 242.034 40.648C241.522 40.648 241.018 40.808 240.522 41.128C240.026 41.448 239.578 41.912 239.178 42.52C238.778 43.128 238.458 43.864 238.218 44.728H238.386ZM247.219 52L249.955 39.136H252.043L250.939 44.488H256.987L258.139 39.136H260.251L257.539 52H255.403L256.603 46.24H250.555L249.331 52H247.219ZM265.497 52.24C264.857 52.24 264.289 52.12 263.793 51.88C263.313 51.64 262.937 51.28 262.665 50.8C262.409 50.32 262.281 49.736 262.281 49.048C262.281 48.68 262.305 48.336 262.353 48.016C262.417 47.68 262.481 47.336 262.545 46.984L264.225 39.136H266.361L264.633 47.224C264.569 47.576 264.513 47.88 264.465 48.136C264.433 48.392 264.417 48.624 264.417 48.832C264.417 49.344 264.545 49.752 264.801 50.056C265.073 50.344 265.505 50.488 266.097 50.488C266.641 50.488 267.225 50.296 267.849 49.912C268.489 49.528 269.081 48.912 269.625 48.064C270.169 47.216 270.593 46.088 270.897 44.68L272.073 39.136H274.161L271.425 52H269.697L269.961 49.624H269.841C269.537 50.008 269.177 50.408 268.761 50.824C268.361 51.224 267.889 51.56 267.345 51.832C266.817 52.104 266.201 52.24 265.497 52.24ZM280.667 52.24C279.675 52.24 278.827 52.048 278.123 51.664C277.435 51.264 276.907 50.704 276.539 49.984C276.187 49.248 276.011 48.384 276.011 47.392C276.011 46.368 276.155 45.36 276.443 44.368C276.747 43.36 277.179 42.448 277.739 41.632C278.299 40.8 278.971 40.136 279.755 39.64C280.555 39.144 281.451 38.896 282.443 38.896C283.659 38.896 284.571 39.16 285.179 39.688C285.803 40.216 286.115 40.952 286.115 41.896C286.115 42.52 285.971 43.112 285.683 43.672C285.395 44.216 284.947 44.696 284.339 45.112C283.731 45.528 282.955 45.856 282.011 46.096C281.067 46.32 279.931 46.432 278.603 46.432H278.195C278.179 46.576 278.163 46.728 278.147 46.888C278.147 47.048 278.147 47.192 278.147 47.32C278.147 48.296 278.387 49.072 278.867 49.648C279.347 50.208 280.075 50.488 281.051 50.488C281.659 50.488 282.235 50.4 282.779 50.224C283.323 50.048 283.915 49.808 284.555 49.504V51.304C283.947 51.576 283.347 51.8 282.755 51.976C282.179 52.152 281.483 52.24 280.667 52.24ZM278.675 44.728C279.635 44.728 280.523 44.648 281.339 44.488C282.155 44.312 282.811 44.032 283.307 43.648C283.803 43.248 284.051 42.72 284.051 42.064C284.051 41.648 283.907 41.312 283.619 41.056C283.347 40.784 282.915 40.648 282.323 40.648C281.811 40.648 281.307 40.808 280.811 41.128C280.315 41.448 279.867 41.912 279.467 42.52C279.067 43.128 278.747 43.864 278.507 44.728H278.675ZM296.724 33.856C296.724 33.056 296.476 32.432 295.98 31.984C295.868 31.888 295.772 31.816 295.692 31.768C295.612 31.704 295.572 31.664 295.572 31.648L296.34 31.168C296.804 30.88 297.076 30.736 297.156 30.736C297.236 30.736 297.356 30.832 297.516 31.024C297.676 31.216 297.828 31.496 297.972 31.864C298.132 32.216 298.212 32.576 298.212 32.944C298.212 33.984 297.908 35.08 297.3 36.232C296.692 37.368 295.796 38.448 294.612 39.472C294.132 39.888 293.66 40.232 293.196 40.504C292.748 40.776 292.46 40.912 292.332 40.912C292.22 40.912 292.164 40.896 292.164 40.864C292.164 40.832 292.228 40.792 292.356 40.744C292.484 40.68 292.724 40.52 293.076 40.264C293.444 40.008 293.844 39.664 294.276 39.232C295.908 37.6 296.724 35.808 296.724 33.856ZM300.516 33.856C300.516 33.056 300.268 32.432 299.772 31.984C299.66 31.888 299.564 31.816 299.484 31.768C299.404 31.704 299.364 31.664 299.364 31.648L300.132 31.168C300.596 30.88 300.868 30.736 300.948 30.736C301.028 30.736 301.148 30.832 301.308 31.024C301.468 31.216 301.62 31.496 301.764 31.864C301.924 32.216 302.004 32.576 302.004 32.944C302.004 33.984 301.7 35.08 301.092 36.232C300.484 37.368 299.588 38.448 298.404 39.472C297.924 39.888 297.452 40.232 296.988 40.504C296.54 40.776 296.252 40.912 296.124 40.912C296.012 40.912 295.956 40.896 295.956 40.864C295.956 40.832 296.02 40.792 296.148 40.744C296.276 40.68 296.516 40.52 296.868 40.264C297.236 40.008 297.636 39.664 298.068 39.232C299.7 37.6 300.516 35.808 300.516 33.856Z" fill="white"/>
</svg>
