<svg width="590" height="128" viewBox="0 0 590 128" fill="#FFFFFF" xmlns="http://www.w3.org/2000/svg">
<g filter="url(#filter0_d_2548_6531)">
<path d="M38.8067 66L68.2947 11.736H75.4387L82.1267 66H75.4387L73.3867 49.128H55.0707L46.2547 66H38.8067ZM58.3387 43.048H72.7027L71.4867 31.648C71.284 29.7227 71.0813 27.5947 70.8787 25.264C70.7267 22.9333 70.6253 20.8813 70.5747 19.108H70.3467C69.536 21.0333 68.5987 23.1107 67.5347 25.34C66.4707 27.5187 65.356 29.7227 64.1907 31.952L58.3387 43.048ZM85.5865 66.532C84.9278 66.532 84.3198 66.456 83.7625 66.304C83.2051 66.2027 82.7745 66.1013 82.4705 66V60.224C82.8251 60.376 83.2051 60.5027 83.6105 60.604C84.0158 60.6547 84.4718 60.68 84.9785 60.68C86.1945 60.68 87.2585 60.4013 88.1705 59.844C89.1331 59.236 90.0198 58.2987 90.8305 57.032C91.6411 55.7653 92.4518 54.1187 93.2625 52.092C94.1238 50.0653 95.0358 47.6333 95.9985 44.796C97.1638 41.4013 98.2785 38.4627 99.3425 35.98C100.406 33.4973 101.597 31.4453 102.914 29.824C104.282 28.152 105.954 26.9107 107.93 26.1C109.906 25.2893 112.364 24.884 115.302 24.884C117.025 24.884 118.697 25.0107 120.318 25.264C121.94 25.4667 123.409 25.7707 124.726 26.176L116.214 66H109.45L117.126 30.812C116.772 30.7107 116.341 30.6347 115.834 30.584C115.328 30.5333 114.796 30.508 114.238 30.508C112.161 30.508 110.464 31.0147 109.146 32.028C107.88 32.9907 106.714 34.6627 105.65 37.044C104.586 39.4253 103.32 42.7693 101.85 47.076C100.736 50.2173 99.6718 53.004 98.6585 55.436C97.6451 57.8173 96.5558 59.844 95.3905 61.516C94.2251 63.1373 92.8571 64.3787 91.2865 65.24C89.7158 66.1013 87.8158 66.532 85.5865 66.532ZM126.926 66.532C126.268 66.532 125.66 66.456 125.102 66.304C124.545 66.2027 124.114 66.1013 123.81 66V60.224C124.165 60.376 124.545 60.5027 124.95 60.604C125.356 60.6547 125.812 60.68 126.318 60.68C127.534 60.68 128.598 60.4013 129.51 59.844C130.473 59.236 131.36 58.2987 132.17 57.032C132.981 55.7653 133.792 54.1187 134.602 52.092C135.464 50.0653 136.376 47.6333 137.338 44.796C138.504 41.4013 139.618 38.4627 140.682 35.98C141.746 33.4973 142.937 31.4453 144.254 29.824C145.622 28.152 147.294 26.9107 149.27 26.1C151.246 25.2893 153.704 24.884 156.642 24.884C158.365 24.884 160.037 25.0107 161.658 25.264C163.28 25.4667 164.749 25.7707 166.066 26.176L157.554 66H150.79L158.466 30.812C158.112 30.7107 157.681 30.6347 157.174 30.584C156.668 30.5333 156.136 30.508 155.578 30.508C153.501 30.508 151.804 31.0147 150.486 32.028C149.22 32.9907 148.054 34.6627 146.99 37.044C145.926 39.4253 144.66 42.7693 143.19 47.076C142.076 50.2173 141.012 53.004 139.998 55.436C138.985 57.8173 137.896 59.844 136.73 61.516C135.565 63.1373 134.197 64.3787 132.626 65.24C131.056 66.1013 129.156 66.532 126.926 66.532ZM183.162 66.76C180.983 66.76 179.058 66.2533 177.386 65.24C175.765 64.176 174.473 62.6053 173.51 60.528C172.598 58.4507 172.142 55.892 172.142 52.852C172.142 49.812 172.446 46.8987 173.054 44.112C173.713 41.2747 174.625 38.6653 175.79 36.284C176.955 33.9027 178.349 31.8507 179.97 30.128C181.642 28.3547 183.491 26.9867 185.518 26.024C187.595 25.0107 189.799 24.504 192.13 24.504C193.903 24.504 195.449 24.8333 196.766 25.492C198.134 26.1507 199.274 27.012 200.186 28.076C201.098 29.14 201.833 30.3053 202.39 31.572H202.77L205.202 25.264H210.294L201.63 66H196.31L197.298 58.476H196.994C195.829 59.9453 194.537 61.3133 193.118 62.58C191.699 63.8467 190.154 64.86 188.482 65.62C186.861 66.38 185.087 66.76 183.162 66.76ZM185.366 61.212C187.241 61.212 189.065 60.528 190.838 59.16C192.662 57.792 194.309 55.9427 195.778 53.612C197.247 51.2813 198.362 48.672 199.122 45.784C199.527 44.3147 199.781 42.972 199.882 41.756C200.034 40.4893 200.11 39.324 200.11 38.26C200.11 35.8787 199.451 33.928 198.134 32.408C196.817 30.888 195.043 30.128 192.814 30.128C191.243 30.128 189.749 30.5333 188.33 31.344C186.962 32.1547 185.695 33.2947 184.53 34.764C183.365 36.1827 182.377 37.8547 181.566 39.78C180.755 41.7053 180.122 43.808 179.666 46.088C179.21 48.3173 178.982 50.6227 178.982 53.004C178.982 55.74 179.539 57.792 180.654 59.16C181.769 60.528 183.339 61.212 185.366 61.212ZM233.729 66L245.205 11.736H254.781L260.025 56.044H260.329L284.421 11.736H294.833L283.585 66H276.745L283.585 33.776C284.092 31.5467 284.548 29.4693 284.953 27.544C285.409 25.6187 285.815 23.8707 286.169 22.3C286.575 20.7293 286.929 19.412 287.233 18.348H287.081L260.937 66H255.541L249.765 18.424H249.461C249.36 19.4373 249.183 20.8053 248.929 22.528C248.676 24.2 248.372 25.9987 248.017 27.924C247.713 29.7987 247.384 31.6227 247.029 33.396L240.113 66H233.729ZM312.984 66.76C309.842 66.76 307.157 66.152 304.928 64.936C302.749 63.6693 301.077 61.896 299.912 59.616C298.797 57.2853 298.24 54.5493 298.24 51.408C298.24 48.1653 298.696 44.9733 299.608 41.832C300.57 38.64 301.938 35.752 303.712 33.168C305.485 30.5333 307.613 28.4307 310.096 26.86C312.629 25.2893 315.466 24.504 318.608 24.504C322.458 24.504 325.346 25.34 327.272 27.012C329.248 28.684 330.236 31.0147 330.236 34.004C330.236 35.98 329.78 37.8547 328.868 39.628C327.956 41.3507 326.537 42.8707 324.612 44.188C322.686 45.5053 320.229 46.544 317.24 47.304C314.25 48.0133 310.653 48.368 306.448 48.368H305.156C305.105 48.824 305.054 49.3053 305.004 49.812C305.004 50.3187 305.004 50.7747 305.004 51.18C305.004 54.2707 305.764 56.728 307.284 58.552C308.804 60.3253 311.109 61.212 314.2 61.212C316.125 61.212 317.949 60.9333 319.672 60.376C321.394 59.8187 323.269 59.0587 325.296 58.096V63.796C323.37 64.6573 321.47 65.3667 319.596 65.924C317.772 66.4813 315.568 66.76 312.984 66.76ZM306.676 42.972C309.716 42.972 312.528 42.7187 315.112 42.212C317.696 41.6547 319.773 40.768 321.344 39.552C322.914 38.2853 323.7 36.6133 323.7 34.536C323.7 33.2187 323.244 32.1547 322.332 31.344C321.47 30.4827 320.102 30.052 318.228 30.052C316.606 30.052 315.01 30.5587 313.44 31.572C311.869 32.5853 310.45 34.0547 309.184 35.98C307.917 37.9053 306.904 40.236 306.144 42.972H306.676ZM332.29 66.532C331.631 66.532 331.023 66.456 330.466 66.304C329.908 66.2027 329.478 66.1013 329.174 66V60.224C329.528 60.376 329.908 60.5027 330.314 60.604C330.719 60.6547 331.175 60.68 331.682 60.68C332.898 60.68 333.962 60.4013 334.874 59.844C335.836 59.236 336.723 58.2987 337.534 57.032C338.344 55.7653 339.155 54.1187 339.966 52.092C340.827 50.0653 341.739 47.6333 342.702 44.796C343.867 41.4013 344.982 38.4627 346.046 35.98C347.11 33.4973 348.3 31.4453 349.618 29.824C350.986 28.152 352.658 26.9107 354.634 26.1C356.61 25.2893 359.067 24.884 362.006 24.884C363.728 24.884 365.4 25.0107 367.022 25.264C368.643 25.4667 370.112 25.7707 371.43 26.176L362.918 66H356.154L363.83 30.812C363.475 30.7107 363.044 30.6347 362.538 30.584C362.031 30.5333 361.499 30.508 360.942 30.508C358.864 30.508 357.167 31.0147 355.85 32.028C354.583 32.9907 353.418 34.6627 352.354 37.044C351.29 39.4253 350.023 42.7693 348.554 47.076C347.439 50.2173 346.375 53.004 345.362 55.436C344.348 57.8173 343.259 59.844 342.094 61.516C340.928 63.1373 339.56 64.3787 337.99 65.24C336.419 66.1013 334.519 66.532 332.29 66.532ZM373.629 66.532C372.971 66.532 372.363 66.456 371.805 66.304C371.248 66.2027 370.817 66.1013 370.513 66V60.224C370.868 60.376 371.248 60.5027 371.653 60.604C372.059 60.6547 372.515 60.68 373.021 60.68C374.237 60.68 375.301 60.4013 376.213 59.844C377.176 59.236 378.063 58.2987 378.873 57.032C379.684 55.7653 380.495 54.1187 381.305 52.092C382.167 50.0653 383.079 47.6333 384.041 44.796C385.207 41.4013 386.321 38.4627 387.385 35.98C388.449 33.4973 389.64 31.4453 390.957 29.824C392.325 28.152 393.997 26.9107 395.973 26.1C397.949 25.2893 400.407 24.884 403.345 24.884C405.068 24.884 406.74 25.0107 408.361 25.264C409.983 25.4667 411.452 25.7707 412.769 26.176L404.257 66H397.493L405.169 30.812C404.815 30.7107 404.384 30.6347 403.877 30.584C403.371 30.5333 402.839 30.508 402.281 30.508C400.204 30.508 398.507 31.0147 397.189 32.028C395.923 32.9907 394.757 34.6627 393.693 37.044C392.629 39.4253 391.363 42.7693 389.893 47.076C388.779 50.2173 387.715 53.004 386.701 55.436C385.688 57.8173 384.599 59.844 383.433 61.516C382.268 63.1373 380.9 64.3787 379.329 65.24C377.759 66.1013 375.859 66.532 373.629 66.532ZM429.865 66.76C427.687 66.76 425.761 66.2533 424.089 65.24C422.468 64.176 421.176 62.6053 420.213 60.528C419.301 58.4507 418.845 55.892 418.845 52.852C418.845 49.812 419.149 46.8987 419.757 44.112C420.416 41.2747 421.328 38.6653 422.493 36.284C423.659 33.9027 425.052 31.8507 426.673 30.128C428.345 28.3547 430.195 26.9867 432.221 26.024C434.299 25.0107 436.503 24.504 438.833 24.504C440.607 24.504 442.152 24.8333 443.469 25.492C444.837 26.1507 445.977 27.012 446.889 28.076C447.801 29.14 448.536 30.3053 449.093 31.572H449.473L451.905 25.264H456.997L448.333 66H443.013L444.001 58.476H443.697C442.532 59.9453 441.24 61.3133 439.821 62.58C438.403 63.8467 436.857 64.86 435.185 65.62C433.564 66.38 431.791 66.76 429.865 66.76ZM432.069 61.212C433.944 61.212 435.768 60.528 437.541 59.16C439.365 57.792 441.012 55.9427 442.481 53.612C443.951 51.2813 445.065 48.672 445.825 45.784C446.231 44.3147 446.484 42.972 446.585 41.756C446.737 40.4893 446.813 39.324 446.813 38.26C446.813 35.8787 446.155 33.928 444.837 32.408C443.52 30.888 441.747 30.128 439.517 30.128C437.947 30.128 436.452 30.5333 435.033 31.344C433.665 32.1547 432.399 33.2947 431.233 34.764C430.068 36.1827 429.08 37.8547 428.269 39.78C427.459 41.7053 426.825 43.808 426.369 46.088C425.913 48.3173 425.685 50.6227 425.685 53.004C425.685 55.74 426.243 57.792 427.357 59.16C428.472 60.528 430.043 61.212 432.069 61.212ZM460.521 66L469.185 25.264H475.797L472.301 42.212H491.453L495.101 25.264H501.789L493.201 66H486.437L490.237 47.76H471.085L467.209 66H460.521ZM522.885 66.608C519.744 66.608 517.033 65.9747 514.753 64.708C512.473 63.4413 510.725 61.6427 509.509 59.312C508.293 56.9307 507.685 54.144 507.685 50.952C507.685 48.4693 507.964 45.9867 508.521 43.504C509.078 40.9707 509.889 38.5893 510.953 36.36C512.068 34.1307 513.436 32.1547 515.057 30.432C516.678 28.6587 518.578 27.2653 520.757 26.252C522.936 25.2387 525.368 24.732 528.053 24.732C531.245 24.732 533.956 25.3653 536.185 26.632C538.465 27.8987 540.213 29.7227 541.429 32.104C542.645 34.4347 543.253 37.2213 543.253 40.464C543.253 42.9467 542.974 45.4293 542.417 47.912C541.86 50.3947 541.024 52.776 539.909 55.056C538.845 57.2853 537.502 59.2613 535.881 60.984C534.26 62.7067 532.36 64.0747 530.181 65.088C528.002 66.1013 525.57 66.608 522.885 66.608ZM523.265 61.06C524.734 61.06 526.102 60.756 527.369 60.148C528.686 59.54 529.902 58.6533 531.017 57.488C532.132 56.272 533.069 54.8027 533.829 53.08C534.64 51.3067 535.273 49.3053 535.729 47.076C536.185 44.8467 536.413 42.3893 536.413 39.704C536.413 38.184 536.134 36.7147 535.577 35.296C535.07 33.8267 534.209 32.636 532.993 31.724C531.777 30.7613 530.156 30.28 528.129 30.28C526.457 30.28 524.912 30.6347 523.493 31.344C522.074 32.0533 520.808 33.0667 519.693 34.384C518.578 35.6507 517.616 37.1707 516.805 38.944C516.045 40.6667 515.462 42.5667 515.057 44.644C514.652 46.7213 514.449 48.9 514.449 51.18C514.449 54.3213 515.209 56.7533 516.729 58.476C518.3 60.1987 520.478 61.06 523.265 61.06Z" fill="white"/>
</g>
<g filter="url(#filter1_d_2548_6531)">
<path d="M48.3113 114.34C46.974 114.34 45.7953 114.091 44.7753 113.592C43.7553 113.093 42.962 112.345 42.3953 111.348C41.8286 110.328 41.5453 109.059 41.5453 107.54C41.5453 106.225 41.6813 104.979 41.9533 103.8C42.248 102.599 42.6673 101.488 43.2113 100.468C43.7553 99.448 44.4126 98.564 45.1833 97.816C45.954 97.068 46.8266 96.49 47.8013 96.082C48.7986 95.6513 49.8866 95.436 51.0653 95.436C51.8586 95.436 52.652 95.5153 53.4453 95.674C54.2386 95.8327 54.9526 96.048 55.5873 96.32L54.7373 98.802C54.284 98.598 53.74 98.4053 53.1053 98.224C52.4933 98.0427 51.8246 97.952 51.0993 97.952C50.3286 97.952 49.6033 98.122 48.9233 98.462C48.266 98.7793 47.6653 99.2327 47.1213 99.822C46.6 100.411 46.1466 101.114 45.7613 101.93C45.3986 102.723 45.1153 103.596 44.9113 104.548C44.7073 105.477 44.6053 106.463 44.6053 107.506C44.6053 108.413 44.764 109.195 45.0813 109.852C45.3986 110.509 45.852 111.008 46.4413 111.348C47.0533 111.688 47.7786 111.858 48.6173 111.858C49.4106 111.858 50.1586 111.745 50.8613 111.518C51.5866 111.291 52.3006 111.031 53.0033 110.736V113.252C52.3686 113.569 51.6546 113.83 50.8613 114.034C50.0906 114.238 49.2406 114.34 48.3113 114.34ZM63.0715 114L66.9475 95.776H69.3955L69.0215 99.142H69.1915C69.5995 98.5753 70.0755 98.0087 70.6195 97.442C71.1862 96.8753 71.8322 96.3993 72.5575 96.014C73.3055 95.6287 74.1442 95.436 75.0735 95.436C76.3202 95.436 77.2722 95.7987 77.9295 96.524C78.6095 97.2267 79.0175 98.2127 79.1535 99.482H79.2895C79.7429 98.802 80.2755 98.156 80.8875 97.544C81.5222 96.932 82.2249 96.4333 82.9955 96.048C83.7662 95.64 84.6162 95.436 85.5455 95.436C86.9509 95.436 88.0389 95.8213 88.8095 96.592C89.5802 97.3627 89.9655 98.4733 89.9655 99.924C89.9655 100.468 89.9315 100.978 89.8635 101.454C89.7955 101.907 89.7049 102.395 89.5915 102.916L87.2455 114H84.2195L86.6675 102.576C86.7809 102.055 86.8602 101.613 86.9055 101.25C86.9509 100.887 86.9735 100.536 86.9735 100.196C86.9735 99.516 86.7809 98.972 86.3955 98.564C86.0329 98.156 85.4549 97.952 84.6615 97.952C84.1175 97.952 83.5395 98.1107 82.9275 98.428C82.3155 98.7227 81.7149 99.1873 81.1255 99.822C80.5362 100.457 80.0035 101.273 79.5275 102.27C79.0515 103.245 78.6662 104.412 78.3715 105.772L76.6375 114H73.6455L76.0595 102.576C76.1729 102.055 76.2522 101.624 76.2975 101.284C76.3429 100.921 76.3655 100.604 76.3655 100.332C76.3655 99.584 76.1955 99.006 75.8555 98.598C75.5155 98.1673 74.9489 97.952 74.1555 97.952C73.6115 97.952 73.0222 98.0993 72.3875 98.394C71.7755 98.6887 71.1749 99.1647 70.5855 99.822C69.9962 100.457 69.4522 101.295 68.9535 102.338C68.4549 103.381 68.0469 104.65 67.7295 106.146L66.0635 114H63.0715ZM105.096 114.34C104.189 114.34 103.384 114.17 102.682 113.83C102.002 113.49 101.469 112.98 101.084 112.3C100.721 111.62 100.54 110.793 100.54 109.818C100.54 109.297 100.574 108.809 100.642 108.356C100.732 107.88 100.823 107.393 100.914 106.894L103.294 95.776H106.32L103.872 107.234C103.781 107.733 103.702 108.163 103.634 108.526C103.588 108.889 103.566 109.217 103.566 109.512C103.566 110.237 103.747 110.815 104.11 111.246C104.495 111.654 105.107 111.858 105.946 111.858C106.716 111.858 107.544 111.586 108.428 111.042C109.334 110.498 110.173 109.625 110.944 108.424C111.714 107.223 112.315 105.625 112.746 103.63L114.412 95.776H117.37L113.494 114H111.046L111.42 110.634H111.25C110.819 111.178 110.309 111.745 109.72 112.334C109.153 112.901 108.484 113.377 107.714 113.762C106.966 114.147 106.093 114.34 105.096 114.34ZM125.057 114.238C124.762 114.238 124.49 114.204 124.241 114.136C123.992 114.091 123.799 114.045 123.663 114V111.416C123.822 111.484 123.992 111.541 124.173 111.586C124.354 111.609 124.558 111.62 124.785 111.62C125.329 111.62 125.805 111.495 126.213 111.246C126.644 110.974 127.04 110.555 127.403 109.988C127.766 109.421 128.128 108.685 128.491 107.778C128.876 106.871 129.284 105.783 129.715 104.514C130.236 102.995 130.735 101.681 131.211 100.57C131.687 99.4593 132.22 98.5413 132.809 97.816C133.421 97.068 134.169 96.5127 135.053 96.15C135.937 95.7873 137.036 95.606 138.351 95.606C139.122 95.606 139.87 95.6627 140.595 95.776C141.32 95.8667 141.978 96.0027 142.567 96.184L138.759 114H135.733L139.167 98.258C139.008 98.2127 138.816 98.1787 138.589 98.156C138.362 98.1333 138.124 98.122 137.875 98.122C136.946 98.122 136.186 98.3487 135.597 98.802C135.03 99.2327 134.509 99.9807 134.033 101.046C133.557 102.111 132.99 103.607 132.333 105.534C131.834 106.939 131.358 108.186 130.905 109.274C130.452 110.339 129.964 111.246 129.443 111.994C128.922 112.719 128.31 113.275 127.607 113.66C126.904 114.045 126.054 114.238 125.057 114.238ZM156.879 114.34C155.972 114.34 155.168 114.17 154.465 113.83C153.785 113.49 153.252 112.98 152.867 112.3C152.504 111.62 152.323 110.793 152.323 109.818C152.323 109.297 152.357 108.809 152.425 108.356C152.516 107.88 152.606 107.393 152.697 106.894L155.077 95.776H158.103L155.655 107.234C155.564 107.733 155.485 108.163 155.417 108.526C155.372 108.889 155.349 109.217 155.349 109.512C155.349 110.237 155.53 110.815 155.893 111.246C156.278 111.654 156.89 111.858 157.729 111.858C158.5 111.858 159.327 111.586 160.211 111.042C161.118 110.498 161.956 109.625 162.727 108.424C163.498 107.223 164.098 105.625 164.529 103.63L166.195 95.776H169.153L165.277 114H162.829L163.203 110.634H163.033C162.602 111.178 162.092 111.745 161.503 112.334C160.936 112.901 160.268 113.377 159.497 113.762C158.749 114.147 157.876 114.34 156.879 114.34ZM185.341 114.34C184.003 114.34 182.825 114.091 181.805 113.592C180.785 113.093 179.991 112.345 179.425 111.348C178.858 110.328 178.575 109.059 178.575 107.54C178.575 106.225 178.711 104.979 178.983 103.8C179.277 102.599 179.697 101.488 180.241 100.468C180.785 99.448 181.442 98.564 182.213 97.816C182.983 97.068 183.856 96.49 184.831 96.082C185.828 95.6513 186.916 95.436 188.095 95.436C188.888 95.436 189.681 95.5153 190.475 95.674C191.268 95.8327 191.982 96.048 192.617 96.32L191.767 98.802C191.313 98.598 190.769 98.4053 190.135 98.224C189.523 98.0427 188.854 97.952 188.129 97.952C187.358 97.952 186.633 98.122 185.953 98.462C185.295 98.7793 184.695 99.2327 184.151 99.822C183.629 100.411 183.176 101.114 182.791 101.93C182.428 102.723 182.145 103.596 181.941 104.548C181.737 105.477 181.635 106.463 181.635 107.506C181.635 108.413 181.793 109.195 182.111 109.852C182.428 110.509 182.881 111.008 183.471 111.348C184.083 111.688 184.808 111.858 185.647 111.858C186.44 111.858 187.188 111.745 187.891 111.518C188.616 111.291 189.33 111.031 190.033 110.736V113.252C189.398 113.569 188.684 113.83 187.891 114.034C187.12 114.238 186.27 114.34 185.341 114.34ZM200.101 114L203.977 95.776H206.425L206.051 99.142H206.221C206.629 98.5753 207.105 98.0087 207.649 97.442C208.216 96.8753 208.862 96.3993 209.587 96.014C210.335 95.6287 211.174 95.436 212.103 95.436C213.35 95.436 214.302 95.7987 214.959 96.524C215.639 97.2267 216.047 98.2127 216.183 99.482H216.319C216.772 98.802 217.305 98.156 217.917 97.544C218.552 96.932 219.254 96.4333 220.025 96.048C220.796 95.64 221.646 95.436 222.575 95.436C223.98 95.436 225.068 95.8213 225.839 96.592C226.61 97.3627 226.995 98.4733 226.995 99.924C226.995 100.468 226.961 100.978 226.893 101.454C226.825 101.907 226.734 102.395 226.621 102.916L224.275 114H221.249L223.697 102.576C223.81 102.055 223.89 101.613 223.935 101.25C223.98 100.887 224.003 100.536 224.003 100.196C224.003 99.516 223.81 98.972 223.425 98.564C223.062 98.156 222.484 97.952 221.691 97.952C221.147 97.952 220.569 98.1107 219.957 98.428C219.345 98.7227 218.744 99.1873 218.155 99.822C217.566 100.457 217.033 101.273 216.557 102.27C216.081 103.245 215.696 104.412 215.401 105.772L213.667 114H210.675L213.089 102.576C213.202 102.055 213.282 101.624 213.327 101.284C213.372 100.921 213.395 100.604 213.395 100.332C213.395 99.584 213.225 99.006 212.885 98.598C212.545 98.1673 211.978 97.952 211.185 97.952C210.641 97.952 210.052 98.0993 209.417 98.394C208.805 98.6887 208.204 99.1647 207.615 99.822C207.026 100.457 206.482 101.295 205.983 102.338C205.484 103.381 205.076 104.65 204.759 106.146L203.093 114H200.101ZM257.425 114.34C256.518 114.34 255.713 114.17 255.011 113.83C254.331 113.49 253.798 112.98 253.413 112.3C253.05 111.62 252.869 110.793 252.869 109.818C252.869 109.297 252.903 108.809 252.971 108.356C253.061 107.88 253.152 107.393 253.243 106.894L255.623 95.776H258.649L256.201 107.234C256.11 107.733 256.031 108.163 255.963 108.526C255.917 108.889 255.895 109.217 255.895 109.512C255.895 110.237 256.076 110.815 256.439 111.246C256.824 111.654 257.436 111.858 258.275 111.858C259.045 111.858 259.873 111.586 260.757 111.042C261.663 110.498 262.502 109.625 263.273 108.424C264.043 107.223 264.644 105.625 265.075 103.63L266.741 95.776H269.699L265.823 114H263.375L263.749 110.634H263.579C263.148 111.178 262.638 111.745 262.049 112.334C261.482 112.901 260.813 113.377 260.043 113.762C259.295 114.147 258.422 114.34 257.425 114.34ZM278.474 114L282.316 95.81H286.192L288.096 110.26H288.164L296.154 95.81H300.336L296.528 114H293.808L296.018 103.562C296.222 102.701 296.426 101.839 296.63 100.978C296.857 100.117 297.061 99.3233 297.242 98.598H297.174L288.606 114H286.26L284.186 98.632H284.084C283.994 99.2667 283.869 100.049 283.71 100.978C283.552 101.885 283.382 102.769 283.2 103.63L281.092 114H278.474ZM314.488 114.34C313.581 114.34 312.776 114.17 312.074 113.83C311.394 113.49 310.861 112.98 310.476 112.3C310.113 111.62 309.932 110.793 309.932 109.818C309.932 109.297 309.966 108.809 310.034 108.356C310.124 107.88 310.215 107.393 310.306 106.894L312.686 95.776H315.712L313.264 107.234C313.173 107.733 313.094 108.163 313.026 108.526C312.98 108.889 312.958 109.217 312.958 109.512C312.958 110.237 313.139 110.815 313.502 111.246C313.887 111.654 314.499 111.858 315.338 111.858C316.108 111.858 316.936 111.586 317.82 111.042C318.726 110.498 319.565 109.625 320.336 108.424C321.106 107.223 321.707 105.625 322.138 103.63L323.804 95.776H326.762L322.886 114H320.438L320.812 110.634H320.642C320.211 111.178 319.701 111.745 319.112 112.334C318.545 112.901 317.876 113.377 317.106 113.762C316.358 114.147 315.485 114.34 314.488 114.34ZM342.201 114.34C340.886 114.34 339.776 114.068 338.869 113.524C337.985 112.957 337.316 112.175 336.863 111.178C336.41 110.181 336.183 109.025 336.183 107.71C336.183 106.667 336.296 105.625 336.523 104.582C336.75 103.517 337.09 102.508 337.543 101.556C338.019 100.581 338.597 99.72 339.277 98.972C339.957 98.224 340.739 97.6347 341.623 97.204C342.53 96.7733 343.538 96.558 344.649 96.558C345.556 96.558 346.315 96.694 346.927 96.966C347.539 97.2153 348.038 97.5667 348.423 98.02C348.831 98.4507 349.16 98.9267 349.409 99.448H349.511C349.534 99.2667 349.545 99.0967 349.545 98.938C349.545 98.7567 349.545 98.6093 349.545 98.496C349.545 95.708 349.171 93.6453 348.423 92.308C347.675 90.9707 346.53 90.302 344.989 90.302C344.422 90.302 343.81 90.37 343.153 90.506C342.518 90.642 341.94 90.8233 341.419 91.05L340.671 88.84C341.215 88.568 341.929 88.33 342.813 88.126C343.697 87.922 344.547 87.82 345.363 87.82C347.04 87.82 348.4 88.228 349.443 89.044C350.508 89.8373 351.29 91.016 351.789 92.58C352.31 94.1213 352.571 96.0253 352.571 98.292C352.571 99.4253 352.48 100.615 352.299 101.862C352.118 103.086 351.846 104.299 351.483 105.5C351.12 106.701 350.656 107.835 350.089 108.9C349.545 109.965 348.888 110.906 348.117 111.722C347.346 112.538 346.474 113.184 345.499 113.66C344.524 114.113 343.425 114.34 342.201 114.34ZM342.507 111.824C343.187 111.824 343.81 111.665 344.377 111.348C344.966 111.008 345.499 110.555 345.975 109.988C346.474 109.399 346.916 108.719 347.301 107.948C347.686 107.177 348.015 106.35 348.287 105.466C348.582 104.582 348.82 103.664 349.001 102.712C348.797 101.987 348.502 101.341 348.117 100.774C347.754 100.185 347.301 99.72 346.757 99.38C346.236 99.04 345.624 98.87 344.921 98.87C344.309 98.87 343.72 99.0173 343.153 99.312C342.586 99.6067 342.065 100.026 341.589 100.57C341.113 101.114 340.694 101.749 340.331 102.474C339.968 103.199 339.685 104.004 339.481 104.888C339.3 105.772 339.209 106.701 339.209 107.676C339.209 108.855 339.458 109.841 339.957 110.634C340.478 111.427 341.328 111.824 342.507 111.824ZM362.105 114.34C361.788 114.34 361.436 114.317 361.051 114.272C360.688 114.227 360.36 114.159 360.065 114.068L360.507 111.62C360.734 111.688 360.994 111.745 361.289 111.79C361.584 111.835 361.867 111.858 362.139 111.858C362.932 111.858 363.646 111.677 364.281 111.314C364.916 110.929 365.482 110.419 365.981 109.784C366.48 109.149 366.888 108.435 367.205 107.642C367.545 106.826 367.794 105.976 367.953 105.092C368.134 104.208 368.225 103.347 368.225 102.508C368.225 101.193 367.976 100.105 367.477 99.244C366.978 98.3827 366.14 97.952 364.961 97.952C364.621 97.952 364.292 97.9747 363.975 98.02C363.68 98.0653 363.374 98.122 363.057 98.19V95.742C363.374 95.674 363.737 95.606 364.145 95.538C364.553 95.47 364.972 95.436 365.403 95.436C367.352 95.436 368.814 96.0593 369.789 97.306C370.764 98.53 371.251 100.241 371.251 102.44C371.251 102.644 371.24 102.859 371.217 103.086C371.217 103.29 371.206 103.483 371.183 103.664H373.971L375.637 95.776H378.391L376.691 103.664H379.377C379.581 102.757 379.898 101.828 380.329 100.876C380.76 99.9013 381.315 99.006 381.995 98.19C382.698 97.374 383.536 96.7167 384.511 96.218C385.508 95.6967 386.653 95.436 387.945 95.436C388.33 95.436 388.716 95.4587 389.101 95.504C389.486 95.5493 389.883 95.6287 390.291 95.742L389.747 98.156C389.498 98.088 389.214 98.0427 388.897 98.02C388.58 97.9747 388.274 97.952 387.979 97.952C387.186 97.952 386.472 98.1447 385.837 98.53C385.202 98.8927 384.647 99.3913 384.171 100.026C383.695 100.661 383.298 101.386 382.981 102.202C382.664 102.995 382.426 103.834 382.267 104.718C382.108 105.579 382.029 106.429 382.029 107.268C382.029 108.583 382.267 109.682 382.743 110.566C383.219 111.427 384.046 111.858 385.225 111.858C385.61 111.858 385.939 111.835 386.211 111.79C386.506 111.745 386.812 111.677 387.129 111.586V114.068C386.834 114.113 386.483 114.17 386.075 114.238C385.667 114.306 385.248 114.34 384.817 114.34C383.525 114.34 382.448 114.068 381.587 113.524C380.726 112.957 380.068 112.153 379.615 111.11C379.184 110.067 378.969 108.809 378.969 107.336C378.969 107.087 378.969 106.849 378.969 106.622C378.992 106.395 379.014 106.169 379.037 105.942H376.215L374.515 114H371.795L373.529 105.942H370.843C370.616 106.962 370.265 107.971 369.789 108.968C369.336 109.965 368.746 110.872 368.021 111.688C367.318 112.504 366.468 113.15 365.471 113.626C364.496 114.102 363.374 114.34 362.105 114.34ZM397.116 114L400.958 95.81H404.834L406.738 110.26H406.806L414.796 95.81H418.978L415.17 114H412.45L414.66 103.562C414.864 102.701 415.068 101.839 415.272 100.978C415.498 100.117 415.702 99.3233 415.884 98.598H415.816L407.248 114H404.902L402.828 98.632H402.726C402.635 99.2667 402.51 100.049 402.352 100.978C402.193 101.885 402.023 102.769 401.842 103.63L399.734 114H397.116ZM434.931 114.34C433.526 114.34 432.324 114.068 431.327 113.524C430.352 112.957 429.604 112.164 429.083 111.144C428.584 110.101 428.335 108.877 428.335 107.472C428.335 106.021 428.539 104.593 428.947 103.188C429.378 101.76 429.99 100.468 430.783 99.312C431.576 98.1333 432.528 97.1927 433.639 96.49C434.772 95.7873 436.042 95.436 437.447 95.436C439.17 95.436 440.462 95.81 441.323 96.558C442.207 97.306 442.649 98.3487 442.649 99.686C442.649 100.57 442.445 101.409 442.037 102.202C441.629 102.973 440.994 103.653 440.133 104.242C439.272 104.831 438.172 105.296 436.835 105.636C435.498 105.953 433.888 106.112 432.007 106.112H431.429C431.406 106.316 431.384 106.531 431.361 106.758C431.361 106.985 431.361 107.189 431.361 107.37C431.361 108.753 431.701 109.852 432.381 110.668C433.061 111.461 434.092 111.858 435.475 111.858C436.336 111.858 437.152 111.733 437.923 111.484C438.694 111.235 439.532 110.895 440.439 110.464V113.014C439.578 113.399 438.728 113.717 437.889 113.966C437.073 114.215 436.087 114.34 434.931 114.34ZM432.109 103.698C433.469 103.698 434.727 103.585 435.883 103.358C437.039 103.109 437.968 102.712 438.671 102.168C439.374 101.601 439.725 100.853 439.725 99.924C439.725 99.3347 439.521 98.8587 439.113 98.496C438.728 98.1107 438.116 97.918 437.277 97.918C436.552 97.918 435.838 98.1447 435.135 98.598C434.432 99.0513 433.798 99.7087 433.231 100.57C432.664 101.431 432.211 102.474 431.871 103.698H432.109ZM462.71 93.396C461.441 93.396 460.409 93.226 459.616 92.886C458.823 92.5233 458.245 92.036 457.882 91.424C457.519 90.812 457.338 90.098 457.338 89.282C457.338 89.078 457.349 88.874 457.372 88.67C457.417 88.4433 457.451 88.2733 457.474 88.16H460.092C460.069 88.3413 460.047 88.5113 460.024 88.67C460.001 88.806 459.99 88.9533 459.99 89.112C459.99 89.7467 460.205 90.268 460.636 90.676C461.089 91.0613 461.837 91.254 462.88 91.254C463.945 91.254 464.818 91.05 465.498 90.642C466.201 90.2113 466.665 89.384 466.892 88.16H469.748C469.544 89.2253 469.17 90.1547 468.626 90.948C468.082 91.7187 467.323 92.3193 466.348 92.75C465.396 93.1807 464.183 93.396 462.71 93.396ZM456.896 114.34C455.989 114.34 455.185 114.17 454.482 113.83C453.802 113.49 453.269 112.98 452.884 112.3C452.521 111.62 452.34 110.793 452.34 109.818C452.34 109.297 452.374 108.809 452.442 108.356C452.533 107.88 452.623 107.393 452.714 106.894L455.094 95.776H458.12L455.672 107.234C455.581 107.733 455.502 108.163 455.434 108.526C455.389 108.889 455.366 109.217 455.366 109.512C455.366 110.237 455.547 110.815 455.91 111.246C456.295 111.654 456.907 111.858 457.746 111.858C458.517 111.858 459.344 111.586 460.228 111.042C461.135 110.498 461.973 109.625 462.744 108.424C463.515 107.223 464.115 105.625 464.546 103.63L466.212 95.776H469.17L465.294 114H462.846L463.22 110.634H463.05C462.619 111.178 462.109 111.745 461.52 112.334C460.953 112.901 460.285 113.377 459.514 113.762C458.766 114.147 457.893 114.34 456.896 114.34ZM477.911 114L481.753 95.776H484.711L482.841 104.548L491.341 95.776H495.081L486.071 104.786L492.157 114H488.587L482.807 104.922L480.903 114H477.911ZM507.858 114.34C506.453 114.34 505.252 114.068 504.254 113.524C503.28 112.957 502.532 112.164 502.01 111.144C501.512 110.101 501.262 108.877 501.262 107.472C501.262 106.021 501.466 104.593 501.874 103.188C502.305 101.76 502.917 100.468 503.71 99.312C504.504 98.1333 505.456 97.1927 506.566 96.49C507.7 95.7873 508.969 95.436 510.374 95.436C512.097 95.436 513.389 95.81 514.25 96.558C515.134 97.306 515.576 98.3487 515.576 99.686C515.576 100.57 515.372 101.409 514.964 102.202C514.556 102.973 513.922 103.653 513.06 104.242C512.199 104.831 511.1 105.296 509.762 105.636C508.425 105.953 506.816 106.112 504.934 106.112H504.356C504.334 106.316 504.311 106.531 504.288 106.758C504.288 106.985 504.288 107.189 504.288 107.37C504.288 108.753 504.628 109.852 505.308 110.668C505.988 111.461 507.02 111.858 508.402 111.858C509.264 111.858 510.08 111.733 510.85 111.484C511.621 111.235 512.46 110.895 513.366 110.464V113.014C512.505 113.399 511.655 113.717 510.816 113.966C510 114.215 509.014 114.34 507.858 114.34ZM505.036 103.698C506.396 103.698 507.654 103.585 508.81 103.358C509.966 103.109 510.896 102.712 511.598 102.168C512.301 101.601 512.652 100.853 512.652 99.924C512.652 99.3347 512.448 98.8587 512.04 98.496C511.655 98.1107 511.043 97.918 510.204 97.918C509.479 97.918 508.765 98.1447 508.062 98.598C507.36 99.0513 506.725 99.7087 506.158 100.57C505.592 101.431 505.138 102.474 504.798 103.698H505.036ZM522.649 122.16L528.225 95.776H530.673L530.265 99.176H530.401C530.945 98.496 531.523 97.884 532.135 97.34C532.747 96.7733 533.416 96.32 534.141 95.98C534.867 95.64 535.649 95.47 536.487 95.47C537.462 95.47 538.312 95.708 539.037 96.184C539.785 96.6373 540.363 97.3287 540.771 98.258C541.202 99.1647 541.417 100.309 541.417 101.692C541.417 103.029 541.281 104.321 541.009 105.568C540.76 106.815 540.375 107.971 539.853 109.036C539.355 110.079 538.743 111.008 538.017 111.824C537.315 112.617 536.499 113.241 535.569 113.694C534.64 114.125 533.631 114.34 532.543 114.34C531.727 114.34 531.013 114.193 530.401 113.898C529.812 113.603 529.313 113.218 528.905 112.742C528.497 112.266 528.157 111.756 527.885 111.212H527.715C527.693 111.575 527.636 112.085 527.545 112.742C527.455 113.377 527.364 113.898 527.273 114.306L525.607 122.16H522.649ZM532.305 111.858C533.031 111.858 533.699 111.677 534.311 111.314C534.946 110.929 535.513 110.407 536.011 109.75C536.51 109.07 536.929 108.299 537.269 107.438C537.632 106.554 537.904 105.625 538.085 104.65C538.267 103.653 538.357 102.644 538.357 101.624C538.357 100.4 538.108 99.482 537.609 98.87C537.133 98.258 536.419 97.952 535.467 97.952C534.969 97.952 534.459 98.0767 533.937 98.326C533.416 98.5753 532.906 98.938 532.407 99.414C531.909 99.8673 531.444 100.411 531.013 101.046C530.583 101.681 530.197 102.383 529.857 103.154C529.54 103.902 529.291 104.707 529.109 105.568C528.928 106.407 528.837 107.279 528.837 108.186C528.837 109.274 529.121 110.158 529.687 110.838C530.254 111.518 531.127 111.858 532.305 111.858Z" fill="white"/>
</g>
<defs>
<filter id="filter0_d_2548_6531" x="33.3086" y="11.7363" width="515.445" height="66.0234" filterUnits="userSpaceOnUse" color-interpolation-filters="sRGB">
<feFlood flood-opacity="0" result="BackgroundImageFix"/>
<feColorMatrix in="SourceAlpha" type="matrix" values="0 0 0 0 0 0 0 0 0 0 0 0 0 0 0 0 0 0 127 0" result="hardAlpha"/>
<feOffset dy="5.5"/>
<feGaussianBlur stdDeviation="2.75"/>
<feComposite in2="hardAlpha" operator="out"/>
<feColorMatrix type="matrix" values="0 0 0 0 0 0 0 0 0 0 0 0 0 0 0 0 0 0 0.25 0"/>
<feBlend mode="normal" in2="BackgroundImageFix" result="effect1_dropShadow_2548_6531"/>
<feBlend mode="normal" in="SourceGraphic" in2="effect1_dropShadow_2548_6531" result="shape"/>
</filter>
<filter id="filter1_d_2548_6531" x="38.7969" y="87.8203" width="505.371" height="39.8398" filterUnits="userSpaceOnUse" color-interpolation-filters="sRGB">
<feFlood flood-opacity="0" result="BackgroundImageFix"/>
<feColorMatrix in="SourceAlpha" type="matrix" values="0 0 0 0 0 0 0 0 0 0 0 0 0 0 0 0 0 0 127 0" result="hardAlpha"/>
<feOffset dy="2.75"/>
<feGaussianBlur stdDeviation="1.375"/>
<feComposite in2="hardAlpha" operator="out"/>
<feColorMatrix type="matrix" values="0 0 0 0 0 0 0 0 0 0 0 0 0 0 0 0 0 0 0.25 0"/>
<feBlend mode="normal" in2="BackgroundImageFix" result="effect1_dropShadow_2548_6531"/>
<feBlend mode="normal" in="SourceGraphic" in2="effect1_dropShadow_2548_6531" result="shape"/>
</filter>
</defs>
</svg>
