<svg width="68" height="68" viewBox="0 0 68 68" fill="none" xmlns="http://www.w3.org/2000/svg">
<path d="M34.0002 0.9H34C27.4533 0.9 21.0536 2.85746 15.6103 6.52475C10.167 10.192 5.92465 15.4044 3.41949 21.5026C0.914335 27.6008 0.258885 34.311 1.53599 40.7848C2.8131 47.2586 5.96543 53.2052 10.5945 57.8727C15.2235 62.5402 21.1214 65.7189 27.5424 67.0067C33.9633 68.2945 40.6188 67.6336 46.6671 65.1075C52.7154 62.5814 57.8849 58.3036 61.5219 52.8153C65.1588 47.327 67.1 40.8746 67.1 34.274V34.2739C67.0867 25.427 63.5953 16.9461 57.3909 10.6901C51.1864 4.43409 42.775 0.913418 34.0002 0.9ZM33.9999 65.9693C27.7831 65.9693 21.706 64.1105 16.5368 60.6279C11.3676 57.1453 7.3386 52.1952 4.95938 46.4036C2.58015 40.6119 1.95762 34.2389 3.17055 28.0904C4.38348 21.942 7.37736 16.2944 11.7735 11.8617C16.1696 7.42914 21.7705 4.41059 27.8678 3.18768C33.9651 1.96478 40.2852 2.59241 46.0288 4.99125C51.7724 7.39009 56.6817 11.4524 60.1358 16.6647C63.5898 21.877 65.4334 28.005 65.4335 34.2739C65.4216 42.6766 62.1059 50.7317 56.2134 56.6731C50.321 62.6144 42.3327 65.9574 33.9999 65.9693Z" fill="white" stroke="white" stroke-width="0.2"/>
<path d="M48.1828 43.228L37.6753 24.2574L37.5144 22.6054L41.2135 15.2516C41.2671 15.1451 41.2671 14.9852 41.2135 14.8786C41.1599 14.772 40.9991 14.7188 40.8918 14.7188H26.4172C26.3099 14.7188 26.1491 14.772 26.0955 14.8786C26.0419 14.9852 25.9883 15.0918 26.0419 15.2516L29.741 22.6054L25.9883 52.3403C25.9883 52.4469 26.0419 52.5535 26.0955 52.6601L33.0648 59.0547C33.2256 59.1612 33.4401 59.1612 33.5473 59.0547L40.5166 52.6601C40.6238 52.5535 40.6238 52.4469 40.6238 52.3403L39.1763 38.6985L43.3579 46.1056C43.4115 46.2122 43.4651 46.2655 43.5723 46.2655L46.8962 47.3845C47.0034 47.4378 47.1106 47.3845 47.2178 47.3312C47.325 47.2779 47.3787 47.1714 47.3787 47.0648L48.1292 43.4412C48.2364 43.3879 48.1828 43.3346 48.1828 43.228ZM27.0069 15.4115H40.2485L36.8711 22.1258H30.3843L27.0069 15.4115ZM33.3865 58.2553L26.7924 52.2337L30.4915 22.9252H36.8175L38.265 36.94L39.9269 52.1805L33.3865 58.2553ZM46.7889 46.5319L44.0012 45.626L39.0155 36.7801L37.8897 26.1757L47.4323 43.4412L46.7889 46.5319Z" fill="white" stroke="white" stroke-miterlimit="10"/>
</svg>
