<svg width="68" height="68" viewBox="0 0 68 68" fill="none" xmlns="http://www.w3.org/2000/svg">
<path d="M48.7367 19.414L48.7367 19.4139L48.7343 19.4116C48.338 19.0378 47.8154 18.8297 47.2724 18.8297C46.7294 18.8297 46.2068 19.0378 45.8105 19.4116L45.8105 19.4116L45.8082 19.4139L29.0122 36.348L22.1902 29.4694L22.1902 29.4693L22.1878 29.467C21.7915 29.0932 21.2689 28.8851 20.7259 28.8851C20.1829 28.8851 19.6603 29.0932 19.264 29.467L19.264 29.467L19.2616 29.4694L15.0824 33.6833C14.882 33.8723 14.7222 34.1007 14.6129 34.3543C14.5034 34.6085 14.4469 34.8827 14.4469 35.1598C14.4469 35.4368 14.5034 35.711 14.6129 35.9652C14.7222 36.2188 14.882 36.4472 15.0824 36.6362L27.5465 49.2038C27.5466 49.2039 27.5467 49.204 27.5469 49.2042C27.7375 49.4007 27.9652 49.557 28.2166 49.6637C28.4682 49.7705 28.7385 49.8255 29.0115 49.8255C29.2846 49.8255 29.5548 49.7705 29.8064 49.6637C30.0579 49.557 30.2856 49.4007 30.4762 49.2042C30.4763 49.204 30.4765 49.2039 30.4766 49.2038L52.915 26.5791C52.9151 26.579 52.9152 26.5788 52.9154 26.5787C53.1103 26.3865 53.2652 26.1569 53.3709 25.9036C53.4767 25.6502 53.5312 25.378 53.5312 25.103C53.5312 24.8281 53.4767 24.5559 53.3709 24.3024C53.2652 24.0491 53.1103 23.8196 52.9154 23.6273C52.9152 23.6272 52.9151 23.6271 52.915 23.627L48.7367 19.414ZM28.8699 38.5582L28.9409 38.6298L29.0119 38.5582L46.9032 20.5157L46.9033 20.5159L46.9076 20.511C46.9441 20.4691 46.989 20.4356 47.0393 20.4126C47.0895 20.3897 47.144 20.3778 47.1992 20.3778C47.2543 20.3778 47.3088 20.3897 47.359 20.4126L47.4006 20.3217L47.359 20.4126C47.4093 20.4356 47.4542 20.4691 47.4907 20.511L47.4906 20.5111L47.4951 20.5157L51.6739 24.7292C51.7485 24.8123 51.791 24.92 51.7931 25.0324L51.7934 25.049L51.7991 25.0647C51.8201 25.1224 51.8258 25.1848 51.8157 25.2455C51.8058 25.3047 51.7813 25.3602 51.7444 25.4071L29.3088 48.029C29.3087 48.0291 29.3086 48.0292 29.3085 48.0292C29.2196 48.1172 29.1001 48.1663 28.9759 48.1663C28.8517 48.1663 28.7322 48.1172 28.6433 48.0292C28.6432 48.0292 28.6431 48.0291 28.643 48.029L16.1782 35.4607C16.1781 35.4606 16.178 35.4605 16.1779 35.4604C16.0907 35.3706 16.0417 35.2498 16.0417 35.1238C16.0417 34.9978 16.0907 34.877 16.1779 34.7873C16.178 34.7872 16.1781 34.7871 16.1782 34.787L20.3568 30.5737C20.357 30.5735 20.3572 30.5733 20.3574 30.5731C20.4372 30.4956 20.5435 30.4525 20.654 30.4525C20.7644 30.4525 20.8708 30.4956 20.9506 30.5731C20.9507 30.5733 20.9509 30.5735 20.9511 30.5737L28.8699 38.5582Z" fill="white" stroke="white" stroke-width="0.2"/>
<path d="M34.0002 0.9H34C27.4533 0.9 21.0536 2.85746 15.6103 6.52475C10.167 10.192 5.92465 15.4044 3.41949 21.5026C0.914335 27.6008 0.258885 34.311 1.53599 40.7848C2.8131 47.2586 5.96543 53.2052 10.5945 57.8727C15.2235 62.5402 21.1214 65.7189 27.5424 67.0067C33.9633 68.2945 40.6188 67.6336 46.6671 65.1075C52.7154 62.5814 57.8849 58.3036 61.5219 52.8153C65.1588 47.327 67.1 40.8746 67.1 34.274V34.2739C67.0867 25.427 63.5953 16.9461 57.3909 10.6901C51.1864 4.43409 42.775 0.913418 34.0002 0.9ZM33.9999 65.9693C27.7831 65.9693 21.706 64.1105 16.5368 60.6279C11.3676 57.1453 7.3386 52.1952 4.95938 46.4036C2.58015 40.6119 1.95762 34.2389 3.17055 28.0904C4.38348 21.942 7.37736 16.2944 11.7735 11.8617C16.1696 7.42914 21.7705 4.41059 27.8678 3.18768C33.9651 1.96478 40.2852 2.59241 46.0288 4.99125C51.7724 7.39009 56.6817 11.4524 60.1358 16.6647C63.5898 21.877 65.4334 28.005 65.4335 34.2739C65.4216 42.6766 62.1059 50.7317 56.2134 56.6731C50.321 62.6144 42.3327 65.9574 33.9999 65.9693Z" fill="white" stroke="white" stroke-width="0.2"/>
</svg>
