<svg width="67" height="66" viewBox="0 0 67 66" fill="none" xmlns="http://www.w3.org/2000/svg">
<path d="M21.1371 38.6298C19.3852 37.0009 18.2127 34.8446 17.7978 32.4886C17.5647 30.2347 18.4196 27.9031 21.1398 25.4938C21.9915 24.8467 22.661 23.9898 23.0828 23.0068C23.2556 22.3344 23.2825 21.6329 23.1619 20.9492C23.0413 20.2656 22.7758 19.6157 22.3833 19.0431C19.8963 15.7788 17.3315 12.4369 15.0776 9.55989C14.5458 8.98316 13.8667 8.56255 13.1134 8.34341C12.3601 8.12427 11.5613 8.11492 10.803 8.31636C9.51212 8.8449 8.34695 9.63934 7.38336 10.648C1.47664 16.5547 -0.777233 22.1519 0.233127 27.9031C1.24349 33.6544 5.36265 39.407 11.737 45.7801L19.4313 53.4744C25.8821 59.9251 31.557 63.9679 37.3082 64.9783C43.0595 65.9886 48.7344 63.7347 54.5634 57.828C55.572 56.8644 56.3665 55.6993 56.895 54.4083C57.1147 53.6513 57.1144 52.8473 56.8942 52.0904C56.674 51.3335 56.243 50.6548 55.6515 50.1337C52.7759 47.8799 49.3535 45.3097 46.1683 42.8281C45.5875 42.4534 44.9377 42.1985 44.257 42.0784C43.5764 41.9583 42.8786 41.9754 42.2046 42.1286C41.2216 42.5504 40.3647 43.2198 39.7176 44.0716C37.3056 46.7918 34.8936 47.569 32.7228 47.4135C30.3386 47.0809 28.1566 45.8932 26.5829 44.0716L21.1371 38.6298ZM13.9869 10.6493C16.3185 13.6804 18.6501 16.7892 21.0594 19.8216C21.3433 20.2077 21.5391 20.6514 21.6331 21.1214C21.7271 21.5913 21.717 22.0762 21.6034 22.5418C21.2359 23.275 20.7039 23.9134 20.0491 24.4071C18.7973 25.3892 17.7985 26.6565 17.136 28.1031C16.4736 29.5497 16.1666 31.1338 16.2408 32.7231C16.5956 35.4693 17.9517 37.9878 20.0491 39.7956L25.5698 45.3138C27.4224 47.3548 29.9187 48.6989 32.6424 49.122C34.2317 49.1962 35.8158 48.8893 37.2624 48.2268C38.709 47.5643 39.9762 46.5655 40.9584 45.3138C41.4521 44.6589 42.0905 44.1269 42.8237 43.7594C43.4455 43.5262 44.1449 43.6039 45.5439 44.3034C48.575 46.635 51.6838 48.9666 54.7162 51.3759C55.1165 51.6901 55.4124 52.1181 55.565 52.6036C55.7176 53.0891 55.7197 53.6094 55.5711 54.0961C55.1141 55.1477 54.4538 56.0985 53.6281 56.894C47.9545 62.5676 42.9791 64.5106 37.7719 63.578C32.5647 62.6453 26.9675 58.837 20.6722 52.4627L12.9739 44.7697C6.67586 38.4717 2.78984 32.8772 1.85854 27.67C0.927244 22.4627 2.86891 17.486 8.54247 11.8138C9.33798 10.9881 10.2888 10.3278 11.3404 9.87076C12.1953 9.48216 12.9725 9.55988 13.9829 10.648L13.9869 10.6493Z" fill="white"/>
<path d="M31.1643 0.855666C31.2105 1.04979 31.3192 1.22336 31.4737 1.34972C31.6281 1.47608 31.8198 1.54825 32.0192 1.55515C36.4105 1.54773 40.76 2.40721 44.8184 4.0843C48.8768 5.76138 52.5643 8.22309 55.6693 11.3283C58.7744 14.4334 61.2359 18.121 62.9128 22.1795C64.5898 26.2379 65.4491 30.5875 65.4415 34.9788C65.4415 35.1849 65.5234 35.3826 65.6691 35.5284C65.8149 35.6741 66.0126 35.756 66.2187 35.756C66.4248 35.756 66.6225 35.6741 66.7683 35.5284C66.914 35.3826 66.9959 35.1849 66.9959 34.9788C66.9814 25.7076 63.2919 16.8202 56.7362 10.2645C50.1804 3.70871 41.2931 0.0192949 32.0219 0.0047651C31.9067 -0.00805713 31.7901 0.00507745 31.6807 0.0432051C31.5713 0.0813327 31.4718 0.143485 31.3896 0.225097C31.3073 0.306709 31.2444 0.405708 31.2054 0.514826C31.1664 0.623943 31.1524 0.740408 31.1643 0.855666Z" fill="white"/>
<path d="M33.646 24.9223H33.846V24.7223V24.5959H33.846L33.8459 24.5906L33.8299 23.9903L33.8247 23.7957H33.63H28.3716L30.805 21.3046C31.5711 20.5695 32.2384 19.7379 32.79 18.8307L32.7902 18.8308L32.7945 18.823C33.1525 18.1704 33.3429 17.4392 33.3487 16.6949C33.369 16.2914 33.3036 15.8882 33.1567 15.5119C33.0092 15.1341 32.783 14.792 32.4932 14.5084L32.4934 14.5082L32.4845 14.5004C31.8428 13.9427 31.0092 13.6569 30.1604 13.7033C29.0279 13.7095 27.9356 14.1241 27.0842 14.8711L26.9405 14.9971L27.0599 15.1463L27.4589 15.645L27.5877 15.8061L27.7448 15.6724C28.4228 15.095 29.2811 14.7725 30.1716 14.7606L30.1716 14.7606L30.1768 14.7604C30.4468 14.7498 30.7162 14.7926 30.9696 14.8861C31.2223 14.9794 31.4542 15.1215 31.6521 15.3041C31.8387 15.4862 31.9856 15.7051 32.0833 15.9469C32.1814 16.1895 32.2278 16.4498 32.2197 16.7113L32.2196 16.7113L32.2196 16.7174C32.2195 17.1229 32.1456 17.5249 32.0015 17.9039C31.8277 18.3357 31.5975 18.7426 31.3167 19.1139C30.8018 19.7691 30.2487 20.3933 29.6603 20.9834L29.6603 20.9833L29.6577 20.986L26.8245 23.9354L26.7687 23.9934V24.0739V24.7223V24.9223H26.9688H33.646Z" fill="white" stroke="white" stroke-width="0.4"/>
<path d="M41.9624 22.2058H42.1624V22.0058V21.6393V21.3755V21.1755H41.9624H40.3231V14.0195V13.8195H40.1231H39.2454H39.1415L39.0817 13.9046L33.8129 21.4102L33.7766 21.4619V21.5251V22.0058V22.2058H33.9766H39.2439V24.7233V24.9233H39.4439H40.1231H40.3231V24.7233V22.2058H41.9624ZM39.2444 21.1919H35.2067L38.7469 16.1386L38.747 16.1386L38.7497 16.1346C38.7892 16.0751 38.8275 16.0175 38.8647 15.9617C39.0388 15.6998 39.1866 15.4777 39.3069 15.2946C39.265 16.1664 39.2444 17.1883 39.2444 18.3438V21.1919Z" fill="white" stroke="white" stroke-width="0.4"/>
<path d="M48.4886 34.1773L48.3647 34.458H48.6716H49.5543H49.6855L49.7377 34.3377L54.1264 24.2309L54.1429 24.1928V24.1512V23.6211V23.4211H53.9429H47.0508H46.8508V23.6211V24.3168V24.5168H47.0508H52.7533L48.4886 34.1773Z" fill="white" stroke="white" stroke-width="0.4"/>
<path d="M49.579 15.1404L49.7145 14.8547H49.3983H48.7355H48.61L48.5554 14.9677L39.2769 34.1874L39.1384 34.4744H39.457H40.2854H40.4119L40.4661 34.3601L49.579 15.1404Z" fill="white" stroke="white" stroke-width="0.4"/>
</svg>
