<svg width="88" height="64" viewBox="0 0 88 64" fill="none" xmlns="http://www.w3.org/2000/svg">
<path d="M79.2488 7.54471C78.6654 6.96128 77.7902 6.96128 77.2068 7.44747C76.6234 8.03091 76.6234 8.90607 77.1096 9.4895C81.9714 14.7404 84.6941 21.45 85.083 28.4512H82.0687C81.2908 28.4512 80.6101 29.1319 80.6101 29.9098C80.6101 30.6877 81.2908 31.3684 82.0687 31.3684H85.083C84.3051 46.9267 71.8588 59.3733 56.3981 60.054V57.0396C56.3981 56.2617 55.7174 55.581 54.9395 55.581C54.1616 55.581 53.481 56.2617 53.481 57.0396V60.054C38.0203 59.2761 25.5739 46.8294 24.796 31.3684H27.8104C28.5883 31.3684 29.2689 30.6877 29.2689 29.9098C29.2689 29.1319 28.5883 28.4512 27.8104 28.4512H24.796C25.3794 17.4631 31.9916 7.54471 42.007 2.77998C42.6877 2.39102 43.0766 1.61311 42.6877 0.835193C42.2987 0.154517 41.4236 -0.234441 40.7429 0.154517C29.2689 5.59992 21.8789 17.2687 21.8789 30.007C21.8789 48.1908 36.7562 63.0684 54.9395 63.0684C73.1229 63.0684 88.0001 48.1908 88.0001 30.007C88.0001 21.6444 84.8886 13.6708 79.2488 7.54471Z" fill="white"/>
<path d="M53.7746 25.6313L37.9249 9.78133C37.3414 9.19789 36.4663 9.19789 35.8829 9.78133C35.2995 10.3648 35.2995 11.2399 35.8829 11.8234L51.3436 27.2844C50.7602 28.0623 50.4685 28.9375 50.4685 30.0071C50.4685 32.5353 52.5105 34.4801 54.9414 34.4801C57.3723 34.4801 59.4143 32.4381 59.4143 30.0071C59.4143 29.3264 59.2198 28.6458 58.9281 28.0623L71.7635 15.2267C72.3469 14.6433 72.3469 13.7681 71.7635 13.1847C71.18 12.6013 70.3049 12.6013 69.7215 13.1847L56.8862 25.9231C56.3027 25.6313 55.6221 25.4369 54.9414 25.4369C54.5525 25.4369 54.1635 25.5341 53.7746 25.6313Z" fill="white"/>
<path d="M18.475 28.5469H1.45856C0.68066 28.5469 0 29.1303 0 30.0055C0 30.8806 0.68066 31.4641 1.45856 31.4641H18.475C19.2529 31.4641 19.9336 30.7834 19.9336 30.0055C19.9336 29.2276 19.2529 28.5469 18.475 28.5469Z" fill="white"/>
<path d="M16.0456 40.7031H6.32184C5.54394 40.7031 4.86328 41.3838 4.86328 42.1617C4.86328 42.9396 5.54394 43.6203 6.32184 43.6203H16.0456C16.8235 43.6203 17.5041 42.9396 17.5041 42.1617C17.5041 41.3838 16.8235 40.7031 16.0456 40.7031Z" fill="white"/>
</svg>
