<svg width="28" height="27" viewBox="0 0 28 27" fill="none" xmlns="http://www.w3.org/2000/svg">
<path d="M21.7458 26.2571C20.6718 26.2571 19.3747 25.9938 17.9491 25.4679C14.821 24.3133 11.4194 22.0331 8.36853 19.0478C5.31768 16.0625 2.98743 12.7331 1.80754 9.67128C0.733576 6.88899 0.730972 4.60538 1.79886 3.56043C1.9534 3.40921 2.11054 3.2478 2.27203 3.08213C3.24702 2.07966 4.37481 0.940407 5.80821 1.00242C6.81532 1.0432 7.79031 1.65488 8.79048 2.86974C11.7389 6.45911 10.4097 7.73854 8.87122 9.22186L8.59861 9.48522C8.34683 9.73159 7.87019 10.8717 12.2971 15.2027C13.7436 16.6172 14.9747 17.652 15.9583 18.2781C16.5791 18.6723 17.6869 19.267 18.141 18.8227L18.4145 18.5525C19.9286 17.0488 21.2361 15.7524 24.9034 18.6366C26.1458 19.6136 26.77 20.5677 26.8117 21.554C26.8716 22.9829 25.7082 24.0636 24.682 25.0168C24.5136 25.1739 24.3486 25.326 24.1958 25.4755C23.6628 25.9963 22.8154 26.2571 21.7458 26.2571ZM5.70489 1.84858C4.66826 1.84858 3.73061 2.81367 2.90147 3.66663C2.73391 3.83824 2.57156 4.0056 2.41268 4.16107C1.6174 4.93841 1.69902 6.98414 2.61931 9.37223C3.75665 12.3227 6.01658 15.5459 8.98235 18.448C11.9481 21.3501 15.2412 23.5606 18.2556 24.6736C20.6961 25.5749 22.7867 25.6531 23.582 24.874C23.7409 24.7194 23.9102 24.5614 24.0838 24.4C24.9763 23.57 25.9878 22.6304 25.9444 21.5871C25.914 20.8709 25.3809 20.1004 24.3591 19.2976C21.303 16.895 20.4495 17.7446 19.0326 19.1481L18.7548 19.4225C18.0802 20.086 16.9802 19.9407 15.4852 18.9892C14.452 18.3316 13.1723 17.2586 11.6833 15.8025C8.00997 12.208 6.83442 10.0094 7.98479 8.88289L8.26175 8.61443C9.70122 7.22796 10.5694 6.39115 8.11328 3.40072C7.29197 2.40249 6.50451 1.88086 5.77261 1.85028C5.75004 1.84943 5.7266 1.84858 5.70489 1.84858Z" fill="white"/>
<path d="M21.8974 11.4391C21.8427 11.4391 21.788 11.4289 21.7342 11.4076C21.5119 11.3193 21.4043 11.0721 21.4954 10.8554C22.0476 9.52333 21.7316 8.00518 20.6932 6.98827C19.6262 5.94416 17.9862 5.65446 16.6101 6.25935C16.3939 6.35535 16.1343 6.2619 16.0362 6.04781C15.9372 5.83372 16.0336 5.58225 16.2524 5.48625C17.9549 4.73185 19.9856 5.09461 21.307 6.38848C22.5928 7.64667 22.9826 9.52503 22.2994 11.1749C22.2317 11.338 22.0684 11.4391 21.8974 11.4391Z" fill="white"/>
<path d="M25.7736 12.9787C25.7189 12.9787 25.6642 12.9685 25.6104 12.9472C25.3873 12.8589 25.2805 12.6116 25.3716 12.395C26.5567 9.53456 25.8821 6.27652 23.6517 4.09401C21.3614 1.85289 17.8391 1.22422 14.8873 2.52998C14.6685 2.62343 14.4115 2.53168 14.3125 2.31759C14.2144 2.10266 14.3108 1.85119 14.5296 1.75434C17.8087 0.305 21.7209 1.00248 24.2656 3.49253C26.7434 5.91716 27.4935 9.53626 26.1756 12.7136C26.1079 12.8784 25.9447 12.9787 25.7736 12.9787Z" fill="white"/>
<path d="M21.7458 26.2571C20.6718 26.2571 19.3747 25.9938 17.9491 25.4679C14.821 24.3133 11.4194 22.0331 8.36853 19.0478C5.31768 16.0625 2.98743 12.7331 1.80754 9.67128C0.733576 6.88899 0.730972 4.60538 1.79886 3.56043C1.9534 3.40921 2.11054 3.2478 2.27203 3.08213C3.24702 2.07966 4.37481 0.940407 5.80821 1.00242C6.81532 1.0432 7.79031 1.65488 8.79048 2.86974C11.7389 6.45911 10.4097 7.73854 8.87122 9.22186L8.59861 9.48522C8.34683 9.73159 7.87019 10.8717 12.2971 15.2027C13.7436 16.6172 14.9747 17.652 15.9583 18.2781C16.5791 18.6723 17.6869 19.267 18.141 18.8227L18.4145 18.5525C19.9286 17.0488 21.2361 15.7524 24.9034 18.6366C26.1458 19.6136 26.77 20.5677 26.8117 21.554C26.8716 22.9829 25.7082 24.0636 24.682 25.0168C24.5136 25.1739 24.3486 25.326 24.1958 25.4755C23.6628 25.9963 22.8154 26.2571 21.7458 26.2571ZM5.70489 1.84858C4.66826 1.84858 3.73061 2.81367 2.90147 3.66663C2.73391 3.83824 2.57156 4.0056 2.41268 4.16107C1.6174 4.93841 1.69902 6.98414 2.61931 9.37223C3.75665 12.3227 6.01658 15.5459 8.98235 18.448C11.9481 21.3501 15.2412 23.5606 18.2556 24.6736C20.6961 25.5749 22.7867 25.6531 23.582 24.874C23.7409 24.7194 23.9102 24.5614 24.0838 24.4C24.9763 23.57 25.9878 22.6304 25.9444 21.5871C25.914 20.8709 25.3809 20.1004 24.3591 19.2976C21.303 16.895 20.4495 17.7446 19.0326 19.1481L18.7548 19.4225C18.0802 20.086 16.9802 19.9407 15.4852 18.9892C14.452 18.3316 13.1723 17.2586 11.6833 15.8025C8.00997 12.208 6.83442 10.0094 7.98479 8.88289L8.26175 8.61443C9.70122 7.22796 10.5694 6.39115 8.11328 3.40072C7.29197 2.40249 6.50451 1.88086 5.77261 1.85028C5.75004 1.84943 5.7266 1.84858 5.70489 1.84858Z" stroke="white" stroke-width="1.4"/>
<path d="M21.8974 11.4391C21.8427 11.4391 21.788 11.4289 21.7342 11.4076C21.5119 11.3193 21.4043 11.0721 21.4954 10.8554C22.0476 9.52333 21.7316 8.00518 20.6932 6.98827C19.6262 5.94416 17.9862 5.65446 16.6101 6.25935C16.3939 6.35535 16.1343 6.2619 16.0362 6.04781C15.9372 5.83372 16.0336 5.58225 16.2524 5.48625C17.9549 4.73185 19.9856 5.09461 21.307 6.38848C22.5928 7.64667 22.9826 9.52503 22.2994 11.1749C22.2317 11.338 22.0684 11.4391 21.8974 11.4391Z" stroke="white" stroke-width="1.4"/>
<path d="M25.7736 12.9787C25.7189 12.9787 25.6642 12.9685 25.6104 12.9472C25.3873 12.8589 25.2805 12.6116 25.3716 12.395C26.5567 9.53456 25.8821 6.27652 23.6517 4.09401C21.3614 1.85289 17.8391 1.22422 14.8873 2.52998C14.6685 2.62343 14.4115 2.53168 14.3125 2.31759C14.2144 2.10266 14.3108 1.85119 14.5296 1.75434C17.8087 0.305 21.7209 1.00248 24.2656 3.49253C26.7434 5.91716 27.4935 9.53626 26.1756 12.7136C26.1079 12.8784 25.9447 12.9787 25.7736 12.9787Z" stroke="white" stroke-width="1.4"/>
</svg>
