<svg width="33" height="29" viewBox="0 0 33 29" fill="none" xmlns="http://www.w3.org/2000/svg">
<path d="M9.24326 19.5988L12.8831 17.9884L11.8617 19.0312C11.5344 19.3647 11.351 19.8163 11.351 20.2845V27.2251C11.351 28.8143 13.2359 29.5852 14.3223 28.4785L17.9761 24.7563L25.9382 28.8119C26.9689 29.3369 28.2154 28.7149 28.429 27.542L32.9718 2.09475C33.2109 0.725554 31.8877 -0.381157 30.6226 0.124903L1.10472 11.8944C-0.21843 12.4193 -0.394849 14.2639 0.802951 15.0419L7.6137 19.4687C8.10118 19.7856 8.71632 19.8352 9.24326 19.5988ZM28.9884 4.58959L25.4205 24.5837L18.4102 21.0153C17.7323 20.67 16.9245 20.8143 16.4022 21.3487L14.833 22.9473V21.0247L21.8132 13.9139C23.1665 12.5352 21.6437 10.2603 19.8888 11.0336L8.70704 15.9759L5.56397 13.9328L28.9884 4.58959Z" fill="white"/>
</svg>
