<svg width="36" height="36" viewBox="0 0 36 36" fill="none" xmlns="http://www.w3.org/2000/svg">
<path d="M10.9667 21.419L13.3163 20.3985L12.657 21.0594C12.4457 21.2707 12.3273 21.5569 12.3273 21.8536V26.2516C12.3273 27.2585 13.5441 27.747 14.2454 27.0457L16.604 24.6872L21.7437 27.257C22.409 27.5897 23.2137 27.1956 23.3516 26.4523L26.2841 10.3274C26.4384 9.45976 25.5843 8.75848 24.7676 9.07915L5.71312 16.537C4.859 16.8697 4.74512 18.0385 5.51832 18.5315L9.91482 21.3366C10.2295 21.5374 10.6266 21.5688 10.9667 21.419ZM23.7127 11.9082L21.4095 24.5778L16.8842 22.3166C16.4466 22.0978 15.9252 22.1892 15.588 22.5279L14.575 23.5408V22.3226L19.0809 17.8167C19.9545 16.9431 18.9715 15.5016 17.8387 15.9916L10.6206 19.1234L8.59168 17.8287L23.7127 11.9082Z" fill="white"/>
<circle cx="17.9118" cy="17.9118" r="17.3118" stroke="white" stroke-width="1.2"/>
</svg>
